<!-- Generated by IcoMoon.io -->
<svg version="1.1" xmlns="http://www.w3.org/2000/svg" width="32" height="32" viewBox="0 0 32 32">
<title>12</title>
<path fill="#00000c" d="M16 30.366c-7.922 0-14.366-6.445-14.366-14.366s6.445-14.366 14.366-14.366c3.837 0 7.445 1.494 10.158 4.208s4.208 6.321 4.208 10.158c0 3.837-1.494 7.445-4.208 10.158s-6.321 4.208-10.158 4.208zM16 2.422c-7.487 0-13.578 6.091-13.578 13.578s6.091 13.578 13.578 13.578c3.627 0 7.037-1.412 9.601-3.977s3.977-5.974 3.977-9.601c0-3.627-1.412-7.037-3.977-9.601s-5.974-3.977-9.601-3.977z"></path>
<path fill="#00000c" d="M2.028 16.394h-1.634c-0.217 0-0.394-0.176-0.394-0.394s0.176-0.394 0.394-0.394h1.634c0.217 0 0.394 0.176 0.394 0.394s-0.176 0.394-0.394 0.394z"></path>
<path fill="#00000c" d="M31.606 16.394h-1.634c-0.218 0-0.394-0.176-0.394-0.394s0.176-0.394 0.394-0.394h1.634c0.218 0 0.394 0.176 0.394 0.394s-0.176 0.394-0.394 0.394z"></path>
<path fill="#00000c" d="M2.485 24.197c-0.136 0-0.269-0.071-0.342-0.197-0.109-0.188-0.044-0.429 0.144-0.538l1.364-0.788c0.188-0.109 0.429-0.044 0.538 0.144s0.044 0.429-0.144 0.538l-1.364 0.788c-0.062 0.036-0.13 0.053-0.196 0.053z"></path>
<path fill="#00000c" d="M28.16 9.374c-0.136 0-0.269-0.071-0.342-0.197-0.109-0.188-0.044-0.429 0.144-0.538l1.356-0.783c0.188-0.109 0.429-0.044 0.538 0.144s0.044 0.429-0.144 0.538l-1.356 0.783c-0.062 0.036-0.13 0.053-0.197 0.053z"></path>
<path fill="#00000c" d="M8.197 29.909c-0.067 0-0.134-0.017-0.197-0.053-0.188-0.109-0.253-0.35-0.144-0.538l0.79-1.368c0.109-0.188 0.35-0.253 0.538-0.144s0.253 0.35 0.144 0.538l-0.79 1.368c-0.073 0.126-0.205 0.197-0.341 0.197z"></path>
<path fill="#00000c" d="M23.018 4.237c-0.067 0-0.134-0.017-0.197-0.053-0.189-0.109-0.253-0.35-0.144-0.538l0.784-1.358c0.109-0.188 0.35-0.253 0.538-0.144s0.253 0.35 0.144 0.538l-0.784 1.358c-0.073 0.126-0.205 0.197-0.341 0.197z"></path>
<path fill="#00000c" d="M3.865 9.388c-0.067 0-0.135-0.017-0.197-0.053l-1.381-0.797c-0.188-0.109-0.253-0.35-0.144-0.538s0.35-0.253 0.538-0.144l1.381 0.797c0.188 0.109 0.253 0.35 0.144 0.538-0.073 0.126-0.205 0.197-0.341 0.197z"></path>
<path fill="#00000c" d="M29.515 24.197c-0.067 0-0.135-0.017-0.197-0.053l-1.374-0.793c-0.188-0.109-0.253-0.35-0.144-0.538s0.35-0.253 0.538-0.144l1.374 0.793c0.189 0.109 0.253 0.35 0.144 0.538-0.073 0.126-0.205 0.197-0.341 0.197z"></path>
<path fill="#00000c" d="M8.992 4.256c-0.136 0-0.269-0.071-0.342-0.197l-0.795-1.377c-0.109-0.188-0.044-0.429 0.144-0.538s0.429-0.044 0.538 0.144l0.795 1.377c0.109 0.189 0.044 0.429-0.144 0.538-0.062 0.036-0.13 0.053-0.197 0.053z"></path>
<path fill="#00000c" d="M23.803 29.909c-0.136 0-0.269-0.071-0.342-0.197l-0.785-1.359c-0.109-0.189-0.044-0.429 0.144-0.538s0.429-0.044 0.538 0.144l0.785 1.359c0.109 0.189 0.044 0.429-0.144 0.538-0.062 0.036-0.13 0.053-0.197 0.053z"></path>
<path fill="#00000c" d="M16 32c-0.217 0-0.394-0.176-0.394-0.394v-1.634c0-0.218 0.176-0.394 0.394-0.394s0.394 0.176 0.394 0.394v1.634c0 0.218-0.176 0.394-0.394 0.394z"></path>
<path fill="#00000c" d="M16 2.422c-0.217 0-0.394-0.176-0.394-0.394v-1.634c0-0.217 0.176-0.394 0.394-0.394s0.394 0.176 0.394 0.394v1.634c0 0.218-0.176 0.394-0.394 0.394z"></path>
<path fill="#00000c" d="M14.638 17.605c-0.793 0-1.538-0.309-2.098-0.869-1.157-1.157-1.157-3.039 0-4.196s3.040-1.157 4.196 0c1.157 1.157 1.157 3.040 0 4.196-0.561 0.56-1.306 0.869-2.098 0.869zM14.638 12.459c-0.558 0-1.116 0.212-1.541 0.637-0.85 0.85-0.85 2.232 0 3.082 0.412 0.412 0.959 0.638 1.541 0.638s1.129-0.227 1.541-0.638c0.85-0.85 0.85-2.232 0-3.082-0.425-0.425-0.983-0.637-1.541-0.637z"></path>
<path fill="#00000c" d="M29.184 29.578c-0.101 0-0.202-0.038-0.279-0.115l-12.727-12.727c-0.154-0.154-0.154-0.403 0-0.557s0.403-0.154 0.557 0l12.727 12.727c0.154 0.154 0.154 0.403 0 0.557-0.077 0.077-0.178 0.115-0.279 0.115z"></path>
</svg>
