<!-- Generated by IcoMoon.io -->
<svg version="1.1" xmlns="http://www.w3.org/2000/svg" width="28" height="32" viewBox="0 0 28 32">
<title>13</title>
<path fill="#00000c" d="M26.446 32h-24.207c-0.808 0-1.532-0.418-1.936-1.118s-0.404-1.536 0-2.235l12.103-20.963c0.404-0.7 1.128-1.118 1.936-1.118s1.532 0.418 1.936 1.118l12.103 20.963c0.127 0.22 0.052 0.501-0.168 0.628s-0.501 0.052-0.628-0.168l-12.103-20.963c-0.238-0.412-0.664-0.658-1.14-0.658s-0.902 0.246-1.139 0.658l-12.103 20.963c-0.238 0.412-0.238 0.904-0 1.316s0.664 0.658 1.14 0.658h24.206c0.254 0 0.46 0.206 0.46 0.46s-0.205 0.46-0.459 0.46z"></path>
<path fill="#00000c" d="M14.342 9.263c-0.254 0-0.46-0.206-0.46-0.46v-8.344c0-0.254 0.206-0.46 0.46-0.46s0.46 0.206 0.46 0.46v8.344c0 0.254-0.206 0.46-0.46 0.46z"></path>
<path fill="#00000c" d="M13.473 29.261c-0.298 0-0.592-0.078-0.857-0.231-0.398-0.23-0.682-0.6-0.801-1.044s-0.058-0.907 0.172-1.305l3.106-5.38c0.23-0.398 0.6-0.682 1.044-0.801s0.907-0.058 1.305 0.172c0.821 0.474 1.103 1.528 0.629 2.349l-3.106 5.38c-0.23 0.398-0.601 0.682-1.044 0.801-0.148 0.040-0.298 0.059-0.448 0.059zM16.584 21.36c-0.070 0-0.14 0.009-0.209 0.028-0.206 0.055-0.379 0.188-0.486 0.373v0l-3.106 5.38c-0.107 0.185-0.135 0.401-0.080 0.607s0.188 0.379 0.373 0.486c0.185 0.107 0.401 0.135 0.607 0.080s0.379-0.188 0.486-0.373l3.106-5.38c0.221-0.382 0.089-0.872-0.293-1.093-0.123-0.071-0.26-0.108-0.399-0.108zM15.492 21.53v0z"></path>
<path fill="#00000c" d="M17.212 21.529c-0.078 0-0.157-0.020-0.23-0.062-0.22-0.127-0.295-0.408-0.168-0.628l6.587-11.409c0.127-0.22 0.408-0.295 0.628-0.168s0.295 0.408 0.168 0.628l-6.587 11.409c-0.085 0.147-0.24 0.23-0.399 0.23z"></path>
</svg>
