<!-- Generated by IcoMoon.io -->
<svg version="1.1" xmlns="http://www.w3.org/2000/svg" width="39" height="32" viewBox="0 0 39 32">
<title>17</title>
<path fill="#00000c" d="M16.141 4.040h-14.842c-0.375 0-0.732-0.162-0.978-0.444s-0.359-0.658-0.309-1.029l0.141-1.037c0.118-0.872 0.871-1.529 1.751-1.529h13.635c0.88 0 1.633 0.658 1.75 1.529l0.14 1.037c0.050 0.372-0.062 0.747-0.309 1.029s-0.603 0.444-0.978 0.444zM1.903 0.985c-0.389 0-0.722 0.291-0.774 0.676l-0.14 1.037c-0.017 0.123 0.040 0.209 0.075 0.249s0.112 0.107 0.236 0.107h14.842c0.124 0 0.201-0.067 0.236-0.107s0.091-0.126 0.075-0.249l-0.141-1.037c-0.052-0.386-0.385-0.676-0.774-0.676h-13.635z"></path>
<path fill="#00000c" d="M14.353 14.324h-11.266c-0.252 0-0.464-0.191-0.49-0.442l-1.063-10.284c-0.014-0.139 0.031-0.277 0.124-0.381s0.226-0.163 0.366-0.163h13.392c0.14 0 0.272 0.059 0.366 0.163s0.139 0.242 0.124 0.381l-1.063 10.284c-0.026 0.251-0.238 0.442-0.49 0.442zM3.532 13.339h10.377l0.962-9.299h-12.3l0.962 9.299z"></path>
<path fill="#00000c" d="M3.841 16.13c-0.272 0-0.493-0.221-0.493-0.493v-1.806c0-0.272 0.22-0.493 0.493-0.493s0.493 0.221 0.493 0.493v1.806c0 0.272-0.22 0.493-0.493 0.493z"></path>
<path fill="#00000c" d="M13.599 16.13c-0.272 0-0.493-0.221-0.493-0.493v-1.806c0-0.272 0.22-0.493 0.493-0.493s0.493 0.221 0.493 0.493v1.806c0 0.272-0.221 0.493-0.493 0.493z"></path>
<path fill="#00000c" d="M38.099 4.040h-14.842c-0.375 0-0.732-0.162-0.978-0.444s-0.359-0.658-0.309-1.029l0.141-1.037c0.118-0.872 0.87-1.529 1.75-1.529h13.635c0.88 0 1.632 0.658 1.751 1.529l0.14 1.037c0.050 0.372-0.062 0.747-0.309 1.029s-0.603 0.444-0.978 0.444zM23.861 0.985c-0.389 0-0.722 0.291-0.774 0.676l-0.14 1.037c-0.017 0.123 0.039 0.209 0.075 0.249s0.112 0.107 0.236 0.107h14.842c0.124 0 0.201-0.067 0.236-0.107s0.091-0.126 0.075-0.249l-0.141-1.037c-0.052-0.386-0.385-0.676-0.774-0.676h-13.635z"></path>
<path fill="#00000c" d="M36.311 14.324h-11.266c-0.252 0-0.464-0.191-0.49-0.442l-1.064-10.284c-0.014-0.139 0.031-0.277 0.124-0.381s0.226-0.163 0.366-0.163h13.392c0.14 0 0.272 0.059 0.366 0.163s0.139 0.242 0.124 0.381l-1.063 10.284c-0.026 0.251-0.237 0.442-0.49 0.442zM25.49 13.339h10.377l0.962-9.299h-12.3l0.962 9.299z"></path>
<path fill="#00000c" d="M25.799 16.13c-0.272 0-0.493-0.221-0.493-0.493v-1.806c0-0.272 0.221-0.493 0.493-0.493s0.493 0.221 0.493 0.493v1.806c0 0.272-0.221 0.493-0.493 0.493z"></path>
<path fill="#00000c" d="M35.557 16.13c-0.272 0-0.493-0.221-0.493-0.493v-1.806c0-0.272 0.221-0.493 0.493-0.493s0.493 0.221 0.493 0.493v1.806c0 0.272-0.22 0.493-0.493 0.493z"></path>
<path fill="#00000c" d="M24.227 6.406h-9.055c-0.272 0-0.493-0.221-0.493-0.493s0.22-0.493 0.493-0.493h9.055c0.272 0 0.493 0.221 0.493 0.493s-0.221 0.493-0.493 0.493z"></path>
<path fill="#00000c" d="M19.699 32c-0.272 0-0.493-0.221-0.493-0.493v-27.355c0-0.272 0.22-0.493 0.493-0.493s0.493 0.221 0.493 0.493v27.354c0 0.272-0.22 0.493-0.493 0.493z"></path>
<path fill="#00000c" d="M27.634 32c-0.096 0-0.192-0.028-0.277-0.086l-7.658-5.222-7.657 5.222c-0.225 0.153-0.531 0.095-0.684-0.129s-0.095-0.531 0.129-0.684l7.935-5.411c0.167-0.114 0.388-0.114 0.555 0l7.935 5.411c0.225 0.153 0.283 0.46 0.129 0.684-0.095 0.14-0.25 0.215-0.407 0.215z"></path>
</svg>
