<!-- Generated by IcoMoon.io -->
<svg version="1.1" xmlns="http://www.w3.org/2000/svg" width="32" height="32" viewBox="0 0 32 32">
<title>20</title>
<path fill="#00000c" d="M15.682 19.113c-0.013 0-0.027-0.001-0.040-0.002-0.122-0.012-0.231-0.080-0.297-0.183-0.291-0.459-0.631-0.883-1.010-1.262v0c-0.379-0.379-0.803-0.719-1.262-1.010-0.103-0.066-0.171-0.175-0.183-0.297s0.032-0.242 0.12-0.327l11.778-11.344c0.097-0.093 0.234-0.131 0.365-0.102s0.238 0.124 0.285 0.249c0.299 0.799 0.927 1.431 1.724 1.735 0.125 0.048 0.218 0.155 0.247 0.286s-0.009 0.267-0.102 0.364l-11.337 11.771c-0.076 0.078-0.179 0.122-0.287 0.122zM14.899 17.101c0.303 0.303 0.583 0.632 0.836 0.982l10.612-11.018c-0.588-0.337-1.075-0.827-1.408-1.416l-11.022 10.616c0.35 0.254 0.679 0.534 0.982 0.837v0z"></path>
<path fill="#00000c" d="M9.133 31.020c-2.178 0-4.225-0.848-5.765-2.388-3.179-3.179-3.179-8.352 0-11.531s8.352-3.179 11.531 0v0c1.54 1.54 2.388 3.588 2.388 5.765s-0.848 4.225-2.388 5.765c-1.54 1.54-3.588 2.388-5.765 2.388zM9.133 15.515c-1.884 0-3.767 0.717-5.201 2.151-2.868 2.868-2.868 7.534 0 10.402 1.389 1.389 3.236 2.154 5.201 2.154s3.812-0.765 5.201-2.154c1.389-1.389 2.154-3.236 2.154-5.201s-0.765-3.812-2.154-5.201v0c-1.434-1.434-3.317-2.151-5.201-2.151z"></path>
<path fill="#00000c" d="M27.982 7.556c-0.009 0-0.019-0-0.028-0.001-1.859-0.133-3.36-1.634-3.493-3.493-0.008-0.115 0.034-0.229 0.116-0.311l3.634-3.634c0.075-0.075 0.176-0.117 0.282-0.117s0.207 0.042 0.282 0.117l3.123 3.123c0.075 0.075 0.117 0.176 0.117 0.282s-0.042 0.207-0.117 0.282l-3.634 3.634c-0.075 0.075-0.176 0.117-0.282 0.117zM25.275 4.182c0.175 1.324 1.235 2.384 2.559 2.559l3.218-3.218-2.559-2.559-3.218 3.218z"></path>
<path fill="#00000c" d="M29.92 7.205c-0.102 0-0.204-0.039-0.282-0.117l-0.794-0.794c-0.156-0.156-0.156-0.408 0-0.564s0.409-0.156 0.564 0l0.794 0.794c0.156 0.156 0.156 0.408 0 0.564-0.078 0.078-0.18 0.117-0.282 0.117z"></path>
<path fill="#00000c" d="M31.165 5.96c-0.102 0-0.204-0.039-0.282-0.117l-0.794-0.794c-0.156-0.156-0.156-0.408 0-0.564s0.409-0.156 0.564 0l0.794 0.794c0.156 0.156 0.156 0.408 0 0.564-0.078 0.078-0.18 0.117-0.282 0.117z"></path>
<path fill="#00000c" d="M26.003 3.288c-0.102 0-0.204-0.039-0.282-0.117l-0.794-0.794c-0.156-0.156-0.156-0.408 0-0.564s0.409-0.156 0.564 0l0.794 0.794c0.156 0.156 0.156 0.408 0 0.564-0.078 0.078-0.18 0.117-0.282 0.117z"></path>
<path fill="#00000c" d="M27.248 2.043c-0.102 0-0.204-0.039-0.282-0.117l-0.794-0.794c-0.156-0.156-0.156-0.408 0-0.564s0.409-0.156 0.564 0l0.794 0.794c0.156 0.156 0.156 0.409 0 0.564-0.078 0.078-0.18 0.117-0.282 0.117z"></path>
<path fill="#00000c" d="M10.6 26.794c-0.102 0-0.204-0.039-0.282-0.117l-4.995-4.995c-0.156-0.156-0.156-0.408 0-0.564s0.409-0.156 0.564 0l4.995 4.995c0.156 0.156 0.156 0.408 0 0.564-0.078 0.078-0.18 0.117-0.282 0.117z"></path>
<path fill="#00000c" d="M4.932 29.783c-0.075 0-0.15-0.021-0.217-0.064-0.487-0.315-0.94-0.68-1.347-1.087s-0.773-0.86-1.087-1.347c-0.102-0.158-0.080-0.366 0.053-0.499l1.503-1.503c0.156-0.156 0.408-0.156 0.564 0l2.316 2.316c0.075 0.075 0.117 0.176 0.117 0.282s-0.042 0.207-0.117 0.282l-1.503 1.503c-0.077 0.077-0.179 0.117-0.282 0.117zM3.131 27.117c0.241 0.339 0.509 0.658 0.801 0.95s0.611 0.561 0.95 0.801l0.987-0.988-1.751-1.751-0.987 0.988z"></path>
<path fill="#00000c" d="M3.65 17.782c-0.102 0-0.204-0.039-0.282-0.117l-0.911-0.911c-0.156-0.156-0.156-0.408 0-0.564s0.409-0.156 0.564 0l0.911 0.911c0.156 0.156 0.156 0.408 0 0.564-0.078 0.078-0.18 0.117-0.282 0.117z"></path>
<path fill="#00000c" d="M15.527 29.66c-0.102 0-0.204-0.039-0.282-0.117l-0.911-0.911c-0.156-0.156-0.156-0.408 0-0.564s0.408-0.156 0.564 0l0.911 0.911c0.156 0.156 0.156 0.408 0 0.564-0.078 0.078-0.18 0.117-0.282 0.117z"></path>
<path fill="#00000c" d="M1.643 21.259c-0.034 0-0.069-0.004-0.103-0.014l-1.244-0.333c-0.213-0.057-0.339-0.276-0.282-0.489s0.275-0.339 0.489-0.282l1.244 0.333c0.213 0.057 0.339 0.276 0.282 0.489-0.048 0.178-0.209 0.296-0.385 0.296z"></path>
<path fill="#00000c" d="M17.868 25.606c-0.034 0-0.069-0.004-0.104-0.014l-1.244-0.333c-0.213-0.057-0.339-0.276-0.282-0.489s0.275-0.339 0.489-0.282l1.244 0.333c0.213 0.057 0.339 0.276 0.282 0.489-0.048 0.178-0.209 0.296-0.385 0.296z"></path>
<path fill="#00000c" d="M0.399 25.606c-0.176 0-0.337-0.118-0.385-0.296-0.057-0.213 0.069-0.432 0.282-0.489l1.244-0.333c0.213-0.057 0.432 0.069 0.489 0.282s-0.069 0.432-0.282 0.489l-1.244 0.333c-0.034 0.009-0.069 0.014-0.103 0.014z"></path>
<path fill="#00000c" d="M16.623 21.259c-0.176 0-0.337-0.118-0.385-0.296-0.057-0.213 0.069-0.432 0.282-0.489l1.244-0.333c0.213-0.057 0.432 0.069 0.489 0.282s-0.069 0.432-0.282 0.489l-1.244 0.333c-0.034 0.009-0.069 0.014-0.103 0.014z"></path>
<path fill="#00000c" d="M7.126 15.775c-0.176 0-0.337-0.118-0.385-0.296l-0.333-1.244c-0.057-0.213 0.069-0.432 0.282-0.489s0.432 0.069 0.489 0.282l0.333 1.244c0.057 0.213-0.069 0.432-0.282 0.489-0.034 0.009-0.069 0.014-0.103 0.014z"></path>
<path fill="#00000c" d="M11.473 32c-0.176 0-0.337-0.118-0.385-0.296l-0.333-1.244c-0.057-0.213 0.069-0.432 0.282-0.489s0.432 0.069 0.489 0.282l0.333 1.244c0.057 0.213-0.069 0.432-0.282 0.489-0.035 0.009-0.069 0.014-0.104 0.014z"></path>
<path fill="#00000c" d="M11.141 15.775c-0.034 0-0.069-0.004-0.103-0.014-0.213-0.057-0.339-0.276-0.282-0.489l0.333-1.244c0.057-0.213 0.275-0.34 0.489-0.282s0.339 0.276 0.282 0.489l-0.333 1.244c-0.048 0.178-0.209 0.296-0.385 0.296z"></path>
<path fill="#00000c" d="M6.793 32c-0.034 0-0.069-0.004-0.103-0.014-0.213-0.057-0.339-0.276-0.282-0.489l0.333-1.244c0.057-0.213 0.276-0.339 0.489-0.282s0.339 0.276 0.282 0.489l-0.333 1.244c-0.048 0.178-0.209 0.296-0.385 0.296z"></path>
<path fill="#00000c" d="M2.74 29.66c-0.102 0-0.204-0.039-0.282-0.117-0.156-0.156-0.156-0.408 0-0.564l0.911-0.911c0.156-0.156 0.408-0.156 0.564 0s0.156 0.408 0 0.564l-0.911 0.911c-0.078 0.078-0.18 0.117-0.282 0.117z"></path>
</svg>
