<!-- Generated by IcoMoon.io -->
<svg version="1.1" xmlns="http://www.w3.org/2000/svg" width="38" height="32" viewBox="0 0 38 32">
<title>25</title>
<path fill="#00000c" d="M37.045 3.675h-15.767c-0.322 0-0.629-0.139-0.843-0.38s-0.312-0.564-0.272-0.883l0.136-1.085c0.095-0.756 0.741-1.326 1.503-1.326h14.717c0.762 0 1.408 0.57 1.503 1.326l0.136 1.085c0.040 0.32-0.059 0.642-0.272 0.883s-0.52 0.38-0.842 0.38zM21.803 0.947c-0.286 0-0.528 0.214-0.563 0.497l-0.136 1.086c-0.009 0.069 0.023 0.116 0.043 0.138s0.063 0.060 0.132 0.060h15.767c0.069 0 0.112-0.037 0.132-0.060s0.051-0.070 0.043-0.138l-0.136-1.086c-0.036-0.283-0.278-0.497-0.563-0.497h-14.717z"></path>
<path fill="#00000c" d="M32.261 32h-6.199c-0.806 0-1.549-0.434-1.938-1.133-2.54-4.564-4.057-12.327-4.057-20.766 0-0.795 0.014-1.599 0.041-2.39 0.022-0.629 0.165-1.238 0.425-1.809l1.319-2.896c0.077-0.169 0.245-0.277 0.431-0.277h13.756c0.186 0 0.354 0.109 0.431 0.277l1.319 2.896c0 0 0 0 0 0 0.26 0.571 0.403 1.18 0.425 1.809 0.027 0.791 0.041 1.595 0.041 2.39 0 8.439-1.517 16.202-4.057 20.766-0.389 0.699-1.131 1.133-1.937 1.133zM22.588 3.675l-1.193 2.619c-0.208 0.458-0.323 0.945-0.34 1.449-0.027 0.78-0.041 1.574-0.041 2.358 0 8.285 1.472 15.876 3.937 20.306 0.222 0.399 0.647 0.646 1.11 0.646h6.199c0.463 0 0.888-0.248 1.11-0.646 2.465-4.43 3.937-12.021 3.937-20.306 0-0.784-0.014-1.577-0.041-2.358-0.018-0.504-0.132-0.991-0.34-1.449h0l-1.193-2.619h-13.146z"></path>
<path fill="#00000c" d="M25.872 12.578c-0.839 0-1.522-0.683-1.522-1.522s0.683-1.522 1.522-1.522c0.839 0 1.522 0.683 1.522 1.522s-0.683 1.522-1.522 1.522zM25.872 10.482c-0.317 0-0.575 0.258-0.575 0.575s0.258 0.575 0.575 0.575c0.317 0 0.575-0.258 0.575-0.575s-0.258-0.575-0.575-0.575z"></path>
<path fill="#00000c" d="M25.872 10.482c-0.262 0-0.474-0.212-0.474-0.474v-6.807c0-0.261 0.212-0.474 0.474-0.474s0.474 0.212 0.474 0.474v6.807c0 0.262-0.212 0.474-0.474 0.474z"></path>
<path fill="#00000c" d="M32.451 12.578c-0.839 0-1.522-0.683-1.522-1.522s0.683-1.522 1.522-1.522c0.839 0 1.522 0.683 1.522 1.522s-0.683 1.522-1.522 1.522zM32.451 10.482c-0.317 0-0.575 0.258-0.575 0.575s0.258 0.575 0.575 0.575c0.317 0 0.575-0.258 0.575-0.575s-0.258-0.575-0.575-0.575z"></path>
<path fill="#00000c" d="M32.451 10.482c-0.262 0-0.474-0.212-0.474-0.474v-6.807c0-0.261 0.212-0.474 0.474-0.474s0.474 0.212 0.474 0.474v6.807c0 0.262-0.212 0.474-0.474 0.474z"></path>
<path fill="#00000c" d="M16.978 3.675h-15.767c-0.322 0-0.629-0.139-0.842-0.38s-0.312-0.564-0.272-0.883l0.136-1.085c0.095-0.756 0.741-1.326 1.503-1.326h14.717c0.762 0 1.408 0.57 1.503 1.326l0.136 1.085c0.040 0.32-0.059 0.642-0.272 0.883s-0.52 0.38-0.843 0.38zM1.736 0.947c-0.286 0-0.528 0.214-0.563 0.497l-0.137 1.086c-0.008 0.069 0.023 0.116 0.043 0.138s0.063 0.060 0.132 0.060h15.767c0.069 0 0.113-0.037 0.132-0.060s0.051-0.070 0.043-0.139l-0.136-1.085c-0.036-0.283-0.278-0.497-0.564-0.497h-14.717z"></path>
<path fill="#00000c" d="M12.193 32h-6.199c-0.806 0-1.549-0.434-1.938-1.133-2.54-4.564-4.057-12.328-4.057-20.766 0-0.793 0.014-1.597 0.041-2.39 0.022-0.629 0.165-1.238 0.425-1.809l1.319-2.896c0.077-0.169 0.245-0.277 0.431-0.277h13.756c0.186 0 0.354 0.109 0.431 0.277l1.319 2.896c0.26 0.571 0.403 1.18 0.425 1.809 0.027 0.793 0.041 1.597 0.041 2.39 0 8.439-1.517 16.202-4.057 20.766-0.389 0.698-1.132 1.133-1.938 1.133zM2.521 3.675l-1.192 2.619c-0.209 0.458-0.323 0.945-0.34 1.449-0.027 0.782-0.041 1.576-0.041 2.358 0 8.285 1.472 15.876 3.937 20.306 0.222 0.399 0.647 0.646 1.11 0.646h6.199c0.463 0 0.888-0.248 1.11-0.646 2.465-4.43 3.937-12.021 3.937-20.306 0-0.782-0.014-1.575-0.041-2.358-0.017-0.504-0.132-0.991-0.34-1.449 0 0 0 0-0 0l-1.193-2.619h-13.146z"></path>
<path fill="#00000c" d="M5.804 12.578c-0.839 0-1.522-0.683-1.522-1.522s0.683-1.522 1.522-1.522c0.839 0 1.522 0.683 1.522 1.522s-0.683 1.522-1.522 1.522zM5.804 10.482c-0.317 0-0.575 0.258-0.575 0.575s0.258 0.575 0.575 0.575c0.317 0 0.575-0.258 0.575-0.575s-0.258-0.575-0.575-0.575z"></path>
<path fill="#00000c" d="M5.804 10.482c-0.262 0-0.474-0.212-0.474-0.474v-6.807c0-0.261 0.212-0.474 0.474-0.474s0.474 0.212 0.474 0.474v6.807c0 0.262-0.212 0.474-0.474 0.474z"></path>
<path fill="#00000c" d="M12.384 12.578c-0.839 0-1.522-0.683-1.522-1.522s0.683-1.522 1.522-1.522c0.839 0 1.522 0.683 1.522 1.522s-0.683 1.522-1.522 1.522zM12.384 10.482c-0.317 0-0.575 0.258-0.575 0.575s0.258 0.575 0.575 0.575c0.317 0 0.575-0.258 0.575-0.575s-0.258-0.575-0.575-0.575z"></path>
<path fill="#00000c" d="M12.384 10.482c-0.262 0-0.474-0.212-0.474-0.474v-6.807c0-0.261 0.212-0.474 0.474-0.474s0.474 0.212 0.474 0.474v6.807c0 0.262-0.212 0.474-0.474 0.474z"></path>
</svg>
