<!-- Generated by IcoMoon.io -->
<svg version="1.1" xmlns="http://www.w3.org/2000/svg" width="35" height="32" viewBox="0 0 35 32">
<title>26</title>
<path fill="#00000c" d="M8.064 32c-0.409 0-0.794-0.159-1.083-0.449l-6.533-6.533c-0.289-0.289-0.449-0.674-0.449-1.083s0.159-0.794 0.449-1.083l21.361-21.361c0.289-0.289 0.674-0.449 1.083-0.449s0.794 0.159 1.083 0.449l6.533 6.533c0.289 0.289 0.449 0.674 0.449 1.083s-0.159 0.794-0.449 1.083l-21.362 21.361c-0.289 0.289-0.674 0.449-1.083 0.449zM22.893 1.869c-0.188 0-0.366 0.073-0.499 0.207l-21.361 21.361c-0.133 0.133-0.207 0.311-0.207 0.499s0.073 0.366 0.207 0.499l6.533 6.533c0.133 0.133 0.311 0.207 0.499 0.207s0.366-0.073 0.499-0.207l21.361-21.361c0.133-0.133 0.207-0.31 0.207-0.499s-0.073-0.366-0.207-0.499v0l-6.533-6.533c-0.133-0.133-0.31-0.207-0.499-0.207z"></path>
<path fill="#00000c" d="M24.619 10.78c-0.109 0-0.215-0.043-0.292-0.121l-5.55-5.55c-0.161-0.161-0.161-0.423 0-0.584l1.912-1.912c0.077-0.077 0.182-0.121 0.292-0.121s0.215 0.043 0.292 0.121l5.55 5.55c0.161 0.161 0.161 0.423 0 0.584l-1.912 1.912c-0.077 0.077-0.183 0.121-0.292 0.121zM19.653 4.817l4.966 4.966 1.328-1.328-4.966-4.966-1.328 1.328z"></path>
<path fill="#00000c" d="M22.707 12.692c-0.106 0-0.211-0.040-0.292-0.121l-5.55-5.55c-0.077-0.077-0.121-0.182-0.121-0.292s0.043-0.215 0.121-0.292l1.912-1.912c0.161-0.161 0.423-0.161 0.584 0l5.55 5.55c0.161 0.161 0.161 0.423 0 0.584l-1.912 1.912c-0.081 0.081-0.186 0.121-0.292 0.121zM17.741 6.729l4.966 4.966 1.328-1.328-4.966-4.966-1.328 1.328z"></path>
<path fill="#00000c" d="M20.795 14.603c-0.106 0-0.211-0.040-0.292-0.121l-5.55-5.55c-0.161-0.161-0.161-0.423 0-0.584l1.912-1.912c0.161-0.161 0.423-0.161 0.584 0l5.55 5.55c0.077 0.077 0.121 0.182 0.121 0.292s-0.043 0.215-0.121 0.292l-1.912 1.912c-0.080 0.080-0.186 0.121-0.292 0.121zM15.829 8.64l4.966 4.966 1.328-1.328-4.966-4.966-1.328 1.328z"></path>
<path fill="#00000c" d="M18.883 16.515c-0.11 0-0.215-0.043-0.292-0.121l-5.55-5.55c-0.161-0.161-0.161-0.423 0-0.584l1.912-1.912c0.161-0.161 0.423-0.161 0.584 0l5.55 5.55c0.161 0.161 0.161 0.423 0 0.584l-1.912 1.912c-0.077 0.077-0.182 0.121-0.292 0.121zM13.917 10.552l4.966 4.966 1.328-1.328-4.966-4.966-1.328 1.328z"></path>
<path fill="#00000c" d="M16.971 18.427c-0.106 0-0.211-0.040-0.292-0.121l-5.55-5.55c-0.161-0.161-0.161-0.423 0-0.584l1.912-1.912c0.077-0.077 0.182-0.121 0.292-0.121s0.215 0.043 0.292 0.121l5.55 5.55c0.161 0.161 0.161 0.423 0 0.584l-1.912 1.912c-0.081 0.081-0.186 0.121-0.292 0.121zM12.005 12.464l4.966 4.966 1.328-1.328-4.966-4.966-1.328 1.328z"></path>
<path fill="#00000c" d="M15.059 20.339c-0.106 0-0.211-0.040-0.292-0.121l-5.55-5.55c-0.077-0.077-0.121-0.182-0.121-0.292s0.043-0.215 0.121-0.292l1.912-1.912c0.161-0.161 0.423-0.161 0.584 0l5.55 5.55c0.077 0.077 0.121 0.182 0.121 0.292s-0.043 0.215-0.121 0.292l-1.912 1.912c-0.081 0.081-0.186 0.121-0.292 0.121zM10.093 14.376l4.966 4.966 1.328-1.328-4.966-4.966-1.328 1.328z"></path>
<path fill="#00000c" d="M13.147 22.251c-0.11 0-0.215-0.043-0.292-0.121l-5.55-5.55c-0.161-0.161-0.161-0.423 0-0.584l1.912-1.912c0.161-0.161 0.423-0.161 0.584 0l5.55 5.55c0.161 0.161 0.161 0.423 0 0.584l-1.912 1.912c-0.077 0.078-0.182 0.121-0.292 0.121zM8.181 16.288l4.966 4.966 1.328-1.328-4.966-4.966-1.328 1.328z"></path>
<path fill="#00000c" d="M11.236 24.163c-0.106 0-0.211-0.040-0.292-0.121l-5.55-5.55c-0.161-0.161-0.161-0.423 0-0.584l1.912-1.912c0.077-0.077 0.182-0.121 0.292-0.121s0.215 0.043 0.292 0.121l5.55 5.55c0.161 0.161 0.161 0.423 0 0.584l-1.912 1.912c-0.081 0.081-0.186 0.121-0.292 0.121zM6.269 18.2l4.966 4.966 1.328-1.328-4.966-4.966-1.328 1.328z"></path>
<path fill="#00000c" d="M9.324 26.075c-0.106 0-0.211-0.040-0.292-0.121l-5.55-5.55c-0.077-0.077-0.121-0.182-0.121-0.292s0.043-0.215 0.121-0.292l1.912-1.912c0.161-0.161 0.423-0.161 0.584 0l5.55 5.55c0.161 0.161 0.161 0.423 0 0.584l-1.912 1.912c-0.081 0.081-0.186 0.121-0.292 0.121zM4.357 20.112l4.966 4.966 1.328-1.328-4.966-4.966-1.328 1.328z"></path>
<path fill="#00000c" d="M7.412 27.987c-0.106 0-0.211-0.040-0.292-0.121l-5.55-5.55c-0.161-0.161-0.161-0.423 0-0.584l1.912-1.912c0.161-0.161 0.423-0.161 0.584 0l5.55 5.55c0.077 0.077 0.121 0.182 0.121 0.292s-0.043 0.215-0.121 0.292l-1.912 1.912c-0.080 0.080-0.186 0.121-0.292 0.121zM2.446 22.024l4.966 4.966 1.328-1.328-4.966-4.966-1.328 1.328z"></path>
<path fill="#00000c" d="M27.372 5.885c-0.106 0-0.211-0.040-0.292-0.121l-1.376-1.376c-0.161-0.161-0.161-0.423 0-0.584l0.648-0.648c1.025-1.025 2.43-1.592 3.957-1.595 0.776-0.002 1.506-0.305 2.055-0.854l0.379-0.379c0.212-0.212 0.493-0.328 0.793-0.328s0.581 0.117 0.793 0.328l0.374 0.374c0.437 0.437 0.437 1.149 0 1.586l-0.45 0.45c-1.025 1.025-2.43 1.592-3.957 1.595-0.776 0.002-1.506 0.305-2.055 0.854l-0.578 0.578c-0.080 0.080-0.186 0.121-0.292 0.121zM26.581 4.097l0.792 0.792 0.286-0.286c0.705-0.705 1.641-1.094 2.637-1.096 1.306-0.003 2.505-0.483 3.374-1.353l0.45-0.45c0.115-0.115 0.115-0.303 0-0.418l-0.374-0.374c-0.112-0.112-0.306-0.112-0.418 0l-0.379 0.379c-0.705 0.704-1.641 1.094-2.637 1.096-1.306 0.003-2.505 0.483-3.374 1.353l-0.357 0.356z"></path>
</svg>
