<!-- Generated by IcoMoon.io -->
<svg version="1.1" xmlns="http://www.w3.org/2000/svg" width="40" height="32" viewBox="0 0 40 32">
<title>29</title>
<path fill="#00000c" d="M18.184 32c-2.144 0-4.16-0.835-5.676-2.351s-2.351-3.532-2.351-5.676c0-2.144 0.835-4.16 2.351-5.676s3.532-2.351 5.676-2.351c2.144 0 4.16 0.835 5.676 2.351s2.351 3.532 2.351 5.676c0 2.144-0.835 4.16-2.351 5.676s-3.532 2.351-5.676 2.351zM18.184 16.659c-4.033 0-7.313 3.281-7.313 7.313s3.281 7.313 7.313 7.313 7.313-3.281 7.313-7.313-3.281-7.313-7.313-7.313z"></path>
<path fill="#00000c" d="M6.672 31.796c-0.197 0-0.357-0.16-0.357-0.357v-26.199c0-0.197 0.16-0.357 0.357-0.357s0.357 0.16 0.357 0.357v26.199c0 0.197-0.16 0.357-0.357 0.357z"></path>
<path fill="#00000c" d="M10.479 31.095c-0.069 0-0.139-0.020-0.201-0.062l-3.606-2.459-3.606 2.459c-0.163 0.111-0.385 0.069-0.496-0.094s-0.069-0.385 0.094-0.496l3.807-2.596c0.121-0.083 0.281-0.083 0.402 0l3.807 2.596c0.163 0.111 0.205 0.333 0.094 0.496-0.069 0.101-0.181 0.156-0.295 0.156z"></path>
<path fill="#00000c" d="M10.009 7.425c-1.084 0-2.341-0.11-3.64-0.322-1.712-0.279-3.3-0.703-4.47-1.193-1.37-0.574-1.987-1.148-1.888-1.756s0.867-0.957 2.348-1.066c1.265-0.093 2.905 0.009 4.617 0.288s3.3 0.703 4.47 1.193c1.37 0.574 1.988 1.148 1.888 1.756s-0.867 0.957-2.348 1.066c-0.305 0.022-0.632 0.034-0.977 0.034zM3.339 3.768c-0.328 0-0.638 0.011-0.928 0.032-1.348 0.099-1.685 0.4-1.696 0.469s0.213 0.461 1.459 0.983c1.12 0.469 2.651 0.876 4.309 1.146s3.239 0.37 4.45 0.281c1.348-0.099 1.685-0.4 1.696-0.469s-0.213-0.461-1.459-0.983c-1.12-0.469-2.65-0.876-4.309-1.147-1.262-0.206-2.479-0.312-3.522-0.312z"></path>
<path fill="#00000c" d="M6.922 4.067c-0.019 0-0.038-0.002-0.058-0.005-0.195-0.032-0.327-0.215-0.295-0.41l0.176-1.083c0.032-0.195 0.215-0.327 0.41-0.295s0.327 0.215 0.295 0.41l-0.176 1.083c-0.028 0.175-0.18 0.3-0.352 0.3z"></path>
<path fill="#00000c" d="M29.695 31.796c-0.197 0-0.357-0.16-0.357-0.357v-28.469c0-0.197 0.16-0.357 0.357-0.357s0.357 0.16 0.357 0.357v28.469c0 0.197-0.16 0.357-0.357 0.357z"></path>
<path fill="#00000c" d="M33.502 31.095c-0.069 0-0.139-0.020-0.201-0.062l-3.606-2.459-3.606 2.459c-0.163 0.111-0.385 0.069-0.496-0.094s-0.069-0.385 0.094-0.496l3.807-2.596c0.121-0.083 0.281-0.083 0.402 0l3.807 2.596c0.163 0.111 0.205 0.333 0.094 0.496-0.069 0.101-0.181 0.156-0.295 0.156z"></path>
<path fill="#00000c" d="M26.359 5.155c-0.345 0-0.672-0.011-0.977-0.034-1.481-0.109-2.249-0.458-2.348-1.066s0.519-1.183 1.888-1.756c1.17-0.49 2.758-0.914 4.47-1.193v0c1.712-0.279 3.352-0.381 4.617-0.288 1.481 0.109 2.249 0.458 2.348 1.066s-0.519 1.183-1.888 1.756c-1.17 0.49-2.758 0.914-4.47 1.193-1.299 0.212-2.557 0.322-3.64 0.322zM29.506 1.811c-1.659 0.27-3.189 0.677-4.309 1.146-1.246 0.522-1.471 0.914-1.459 0.983s0.348 0.369 1.696 0.469c1.211 0.089 2.792-0.010 4.45-0.281s3.189-0.677 4.309-1.147c1.246-0.522 1.471-0.914 1.459-0.983s-0.348-0.369-1.696-0.469c-1.211-0.089-2.791 0.010-4.45 0.281 0 0 0 0 0 0z"></path>
<path fill="#00000c" d="M29.446 1.797c-0.172 0-0.323-0.125-0.352-0.3l-0.176-1.083c-0.032-0.195 0.1-0.378 0.295-0.41s0.378 0.1 0.41 0.295l0.176 1.083c0.032 0.195-0.1 0.378-0.295 0.41-0.019 0.003-0.039 0.005-0.058 0.005z"></path>
<path fill="#00000c" d="M33.91 29.665c-0.197 0-0.357-0.16-0.357-0.357v-13.177c0-0.197 0.16-0.357 0.357-0.357s0.357 0.16 0.357 0.357v13.177c0 0.197-0.16 0.357-0.357 0.357z"></path>
<path fill="#00000c" d="M36.802 29.143c-0.069 0-0.139-0.020-0.201-0.062l-2.691-1.835-2.691 1.835c-0.163 0.111-0.385 0.069-0.496-0.094s-0.069-0.385 0.094-0.496l2.892-1.972c0.121-0.083 0.281-0.083 0.402 0l2.892 1.972c0.163 0.111 0.205 0.333 0.094 0.496-0.069 0.101-0.181 0.156-0.295 0.156z"></path>
<path fill="#00000c" d="M33.91 17.804c-1.454 0-2.826-0.141-3.862-0.396-1.235-0.304-1.836-0.722-1.836-1.277s0.601-0.973 1.836-1.277c1.036-0.255 2.407-0.396 3.862-0.396s2.826 0.141 3.862 0.396c1.235 0.304 1.836 0.722 1.836 1.277s-0.601 0.973-1.836 1.277c-1.036 0.255-2.407 0.396-3.862 0.396zM28.928 16.13c0.030 0.085 0.338 0.363 1.4 0.61 0.969 0.225 2.241 0.349 3.583 0.349s2.614-0.124 3.583-0.349c1.061-0.247 1.37-0.525 1.4-0.61-0.030-0.085-0.338-0.363-1.4-0.61-0.969-0.225-2.241-0.349-3.583-0.349s-2.614 0.124-3.583 0.349c-1.061 0.247-1.37 0.525-1.4 0.61zM38.894 16.135v0z"></path>
<path fill="#00000c" d="M33.91 15.171c-0.197 0-0.357-0.16-0.357-0.357v-2.506c0-0.197 0.16-0.357 0.357-0.357s0.357 0.16 0.357 0.357v2.506c0 0.197-0.16 0.357-0.357 0.357z"></path>
<path fill="#00000c" d="M8.642 18.216c-0.197 0-0.357-0.16-0.357-0.357v-5.687c0-0.574 0.832-0.816 1.457-0.949 0.781-0.165 1.813-0.256 2.908-0.256s2.127 0.091 2.908 0.256c0.625 0.132 1.457 0.375 1.457 0.949v4.282c0 0.17-0.12 0.316-0.286 0.35-0.642 0.13-1.266 0.347-1.854 0.646-0.064 0.032-0.136 0.045-0.207 0.036-0.607-0.077-1.304-0.118-2.018-0.118-0.933 0-1.834 0.070-2.538 0.197-0.813 0.147-1.060 0.31-1.119 0.359-0.031 0.166-0.176 0.291-0.351 0.291zM8.999 17.859c0 0 0 0 0 0s0-0 0-0zM8.999 12.232v4.887c0.24-0.094 0.506-0.16 0.743-0.21 0.781-0.165 1.813-0.256 2.908-0.256 0.701 0 1.39 0.038 2 0.11 0.528-0.26 1.082-0.46 1.651-0.597v-3.935c-0.069-0.055-0.325-0.212-1.113-0.354-0.704-0.127-1.605-0.197-2.538-0.197s-1.834 0.070-2.538 0.197c-0.788 0.142-1.044 0.3-1.113 0.354zM16.323 12.252v0z"></path>
<path fill="#00000c" d="M12.607 19.064c-0 0-0.001 0-0.001 0-1.086-0.002-2.108-0.094-2.879-0.259-0.619-0.132-1.442-0.374-1.442-0.946 0-0.574 0.832-0.816 1.457-0.949 0.781-0.165 1.813-0.256 2.908-0.256 0.742 0 1.47 0.043 2.106 0.123 0.156 0.020 0.28 0.139 0.307 0.293s-0.050 0.308-0.19 0.379c-0.751 0.382-1.425 0.887-2.006 1.502-0.067 0.071-0.161 0.112-0.26 0.112zM9.092 17.861c0.37 0.194 1.52 0.469 3.364 0.488 0.348-0.354 0.725-0.674 1.129-0.956-0.304-0.016-0.618-0.024-0.935-0.024-0.933 0-1.834 0.070-2.538 0.197-0.59 0.107-0.882 0.221-1.020 0.296z"></path>
<path fill="#00000c" d="M27.726 18.216c-0.175 0-0.32-0.126-0.351-0.291-0.059-0.049-0.306-0.212-1.119-0.359-0.704-0.127-1.605-0.197-2.538-0.197-0.714 0-1.411 0.041-2.018 0.118-0.071 0.009-0.143-0.003-0.207-0.036-0.588-0.299-1.212-0.517-1.854-0.646-0.167-0.034-0.286-0.18-0.286-0.35v-4.282c0-0.574 0.832-0.816 1.457-0.949 0.781-0.165 1.813-0.256 2.908-0.256s2.128 0.091 2.908 0.256c0.625 0.132 1.457 0.375 1.457 0.949v5.687c-0 0.197-0.16 0.357-0.357 0.357zM27.369 17.859c0 0 0 0 0 0s0-0 0-0zM27.369 17.859v0zM23.718 16.654c1.095 0 2.128 0.091 2.908 0.256 0.237 0.050 0.503 0.116 0.743 0.21v-4.887c-0.069-0.055-0.325-0.212-1.113-0.354-0.704-0.127-1.605-0.197-2.538-0.197s-1.834 0.070-2.538 0.197c-0.788 0.142-1.044 0.3-1.113 0.354v3.935c0.569 0.137 1.123 0.337 1.651 0.597 0.61-0.072 1.298-0.11 2-0.11zM27.391 12.252v0z"></path>
<path fill="#00000c" d="M23.761 19.064c-0.098 0-0.192-0.040-0.26-0.112-0.581-0.615-1.256-1.12-2.006-1.502-0.14-0.071-0.217-0.225-0.19-0.379s0.151-0.273 0.307-0.293c0.635-0.081 1.363-0.123 2.106-0.123 1.095 0 2.128 0.091 2.908 0.256 0.625 0.132 1.457 0.375 1.457 0.949 0 0.571-0.823 0.813-1.442 0.946-0.771 0.165-1.793 0.257-2.879 0.259-0 0-0 0-0.001 0zM22.783 17.392c0.404 0.283 0.781 0.602 1.129 0.956 1.844-0.018 2.994-0.294 3.364-0.488-0.138-0.074-0.43-0.189-1.020-0.295-0.704-0.127-1.605-0.197-2.538-0.197-0.317-0-0.631 0.008-0.935 0.024z"></path>
<path fill="#00000c" d="M5.258 27.071c-1.129 0-2.194-0.082-2.999-0.231-1.042-0.193-1.507-0.469-1.507-0.894s0.465-0.701 1.507-0.894c0.804-0.149 1.869-0.231 2.999-0.231s2.194 0.082 2.999 0.231c1.042 0.193 1.507 0.469 1.507 0.894s-0.465 0.701-1.507 0.894c-0.804 0.149-1.869 0.231-2.999 0.231zM1.647 25.945c0.173 0.067 0.474 0.153 0.986 0.234 0.73 0.114 1.662 0.177 2.625 0.177s1.895-0.063 2.625-0.177c0.512-0.080 0.813-0.167 0.986-0.234-0.173-0.067-0.474-0.153-0.986-0.234-0.73-0.114-1.662-0.177-2.625-0.177s-1.895 0.063-2.625 0.177c-0.512 0.080-0.813 0.167-0.986 0.234zM9.085 26.057v0z"></path>
<path fill="#00000c" d="M9.407 26.302c-0.165 0-0.303-0.111-0.345-0.263-0.073-0.050-0.348-0.198-1.179-0.328-0.73-0.114-1.662-0.177-2.625-0.177s-1.895 0.063-2.625 0.177c-0.831 0.13-1.106 0.278-1.179 0.328-0.041 0.151-0.18 0.263-0.345 0.263v0c-0.197 0-0.357-0.16-0.357-0.357v-9.567c0-0.426 0.465-0.701 1.507-0.894 0.804-0.149 1.869-0.231 2.999-0.231 1.39 0 2.656 0.122 3.474 0.335 0.157 0.041 0.267 0.183 0.267 0.346v1.864c0.047 0.037 0.179 0.121 0.508 0.216 0.153 0.044 0.257 0.184 0.257 0.343v7.588c0 0.197-0.16 0.357-0.357 0.357zM1.466 16.465v8.787c0.213-0.076 0.476-0.142 0.793-0.201 0.804-0.149 1.869-0.231 2.999-0.231s2.194 0.082 2.999 0.231c0.317 0.059 0.58 0.125 0.793 0.201v-6.635c-0.38-0.138-0.765-0.362-0.765-0.758v-1.641c-0.758-0.158-1.86-0.25-3.027-0.25-0.963 0-1.895 0.063-2.625 0.177-0.79 0.124-1.077 0.263-1.167 0.32z"></path>
<path fill="#00000c" d="M11.838 32c-0.089 0-0.179-0.033-0.248-0.1-0.142-0.137-0.146-0.363-0.009-0.505l1.593-1.65c0.137-0.142 0.363-0.146 0.505-0.009s0.146 0.363 0.009 0.505l-1.593 1.65c-0.070 0.073-0.163 0.109-0.257 0.109z"></path>
<path fill="#00000c" d="M24.53 32c-0.093 0-0.187-0.037-0.257-0.109l-1.593-1.65c-0.137-0.142-0.133-0.368 0.009-0.505s0.368-0.133 0.505 0.009l1.593 1.65c0.137 0.142 0.133 0.368-0.009 0.505-0.069 0.067-0.159 0.1-0.248 0.1z"></path>
</svg>
