<!-- Generated by IcoMoon.io -->
<svg version="1.1" xmlns="http://www.w3.org/2000/svg" width="31" height="32" viewBox="0 0 31 32">
<title>3</title>
<path fill="#00000c" d="M3.561 32c-0.413 0-0.827-0.157-1.141-0.472l-1.949-1.949c-0.629-0.629-0.629-1.653 0-2.282l11.661-11.661c0.146-0.146 0.382-0.146 0.527 0l3.703 3.703c0.146 0.146 0.146 0.382 0 0.527l-11.661 11.661c-0.315 0.315-0.728 0.472-1.141 0.472zM12.396 16.428l-11.397 11.397c-0.164 0.164-0.254 0.382-0.254 0.614s0.090 0.45 0.254 0.614l1.948 1.948c0.338 0.339 0.889 0.338 1.228 0l11.397-11.397-3.176-3.176z"></path>
<path fill="#00000c" d="M16.1 19.976c-0.099 0-0.194-0.039-0.264-0.109l-3.703-3.703c-0.146-0.146-0.146-0.382 0-0.527l8.581-8.581c0.070-0.070 0.165-0.109 0.264-0.109s0.194 0.039 0.264 0.109l2.207 2.207c0.146 0.146 0.146 0.382 0 0.527l-4.027 4.027 1.233 1.233c0.146 0.146 0.146 0.382 0 0.527l-4.29 4.29c-0.070 0.070-0.165 0.109-0.264 0.109zM12.924 15.9l3.176 3.176 3.763-3.763-1.233-1.233c-0.146-0.146-0.146-0.382 0-0.527l4.027-4.027-1.68-1.679-8.053 8.053z"></path>
<path fill="#00000c" d="M5.101 28.38c-0.396 0-0.768-0.154-1.048-0.434s-0.434-0.652-0.434-1.047 0.154-0.768 0.434-1.047c0.28-0.28 0.652-0.434 1.048-0.434s0.768 0.154 1.048 0.434c0.28 0.28 0.434 0.652 0.434 1.047s-0.154 0.768-0.434 1.047c-0.28 0.28-0.652 0.434-1.048 0.434zM5.101 26.163c-0.188 0-0.377 0.072-0.52 0.215-0.287 0.287-0.287 0.754 0 1.040s0.754 0.287 1.040 0c0.287-0.287 0.287-0.754 0-1.040-0.143-0.143-0.332-0.215-0.52-0.215z"></path>
<path fill="#00000c" d="M8.291 25.19c-0.396 0-0.768-0.154-1.048-0.434s-0.434-0.652-0.434-1.047 0.154-0.768 0.434-1.047c0.28-0.28 0.652-0.434 1.048-0.434s0.768 0.154 1.047 0.434c0.577 0.578 0.577 1.517 0 2.095-0.28 0.28-0.652 0.434-1.047 0.434zM8.291 22.973c-0.188 0-0.377 0.072-0.52 0.215-0.287 0.287-0.287 0.754 0 1.040s0.754 0.287 1.040 0c0.287-0.287 0.287-0.754 0-1.040-0.143-0.143-0.332-0.215-0.52-0.215z"></path>
<path fill="#00000c" d="M11.481 22c-0.396 0-0.768-0.154-1.047-0.434s-0.434-0.652-0.434-1.047 0.154-0.768 0.434-1.047c0.28-0.28 0.652-0.434 1.047-0.434s0.768 0.154 1.047 0.434c0.28 0.28 0.434 0.652 0.434 1.047s-0.154 0.768-0.434 1.047c-0.28 0.28-0.652 0.434-1.047 0.434zM11.481 19.783c-0.188 0-0.377 0.072-0.52 0.215-0.287 0.287-0.287 0.754 0 1.040s0.754 0.287 1.040 0c0.287-0.287 0.287-0.754 0-1.040-0.143-0.143-0.332-0.215-0.52-0.215z"></path>
<path fill="#00000c" d="M14.6 24.011c-0.095 0-0.191-0.036-0.264-0.109l-2.335-2.335c-0.146-0.146-0.146-0.382 0-0.527s0.382-0.146 0.527 0l2.335 2.335c0.146 0.146 0.146 0.382 0 0.527-0.073 0.073-0.168 0.109-0.264 0.109z"></path>
<path fill="#00000c" d="M11.41 27.201c-0.095 0-0.191-0.036-0.264-0.109l-2.335-2.335c-0.146-0.146-0.146-0.382 0-0.527s0.382-0.146 0.527 0l2.335 2.335c0.146 0.146 0.146 0.382 0 0.527-0.073 0.073-0.168 0.109-0.264 0.109z"></path>
<path fill="#00000c" d="M8.22 30.391c-0.095 0-0.191-0.036-0.264-0.109l-2.335-2.335c-0.146-0.146-0.146-0.382 0-0.527s0.382-0.146 0.527 0l2.335 2.335c0.146 0.146 0.146 0.382 0 0.527-0.073 0.073-0.168 0.109-0.264 0.109z"></path>
<path fill="#00000c" d="M7.004 31.607c-0.095 0-0.191-0.036-0.264-0.109-0.146-0.146-0.146-0.382 0-0.527l8.812-8.812c0.146-0.146 0.382-0.146 0.527 0s0.146 0.382 0 0.527l-8.812 8.812c-0.073 0.073-0.168 0.109-0.264 0.109z"></path>
<path fill="#00000c" d="M7.611 21.058c-0.095 0-0.191-0.036-0.264-0.109l-1.267-1.268c-0.146-0.146-0.146-0.382 0-0.527s0.382-0.146 0.527 0l1.267 1.268c0.146 0.146 0.146 0.382 0 0.527-0.073 0.073-0.168 0.109-0.264 0.109z"></path>
<path fill="#00000c" d="M10.801 17.868c-0.095 0-0.191-0.036-0.264-0.109l-1.268-1.267c-0.146-0.146-0.146-0.382 0-0.527s0.382-0.146 0.527 0l1.268 1.267c0.146 0.146 0.146 0.382 0 0.527-0.073 0.073-0.168 0.109-0.264 0.109z"></path>
<path fill="#00000c" d="M13.991 14.678c-0.095 0-0.191-0.036-0.264-0.109l-1.267-1.268c-0.146-0.146-0.146-0.382 0-0.527s0.382-0.146 0.527 0l1.267 1.268c0.146 0.146 0.146 0.382 0 0.527-0.073 0.073-0.168 0.109-0.264 0.109z"></path>
<path fill="#00000c" d="M5.128 21.007c-0.095 0-0.191-0.036-0.264-0.109-0.146-0.146-0.146-0.382 0-0.527l8.812-8.812c0.146-0.146 0.382-0.146 0.527 0s0.146 0.382 0 0.527l-8.812 8.812c-0.073 0.073-0.168 0.109-0.264 0.109z"></path>
<path fill="#00000c" d="M23.184 9.899c-0.099 0-0.194-0.039-0.264-0.109l-2.207-2.207c-0.146-0.146-0.146-0.382 0-0.527l5.353-5.353c-0.387-0.395-0.387-1.025 0-1.412 0.188-0.188 0.437-0.291 0.702-0.291s0.515 0.103 0.702 0.291l2.742 2.742c0.188 0.188 0.291 0.437 0.291 0.702s-0.103 0.515-0.291 0.702c-0.187 0.188-0.437 0.291-0.702 0.291s-0.515-0.103-0.702-0.291l-5.361 5.353c-0.070 0.070-0.165 0.109-0.264 0.109zM21.504 7.32l1.679 1.679 5.089-5.089c0.293-0.293 0.77-0.293 1.062 0 0.094 0.093 0.256 0.093 0.35 0 0.047-0.047 0.072-0.109 0.072-0.175s-0.026-0.128-0.072-0.175c-0 0-0 0-0 0l-2.742-2.742c-0.093-0.093-0.256-0.093-0.35 0-0.047 0.047-0.072 0.109-0.072 0.175s0.026 0.128 0.072 0.175c0.293 0.293 0.293 0.77 0 1.062l-5.089 5.089z"></path>
<path fill="#00000c" d="M26.261 20.132c-0.095 0-0.191-0.036-0.264-0.109l-1.937-1.937c-0.319-0.319-0.495-0.743-0.495-1.194s0.176-0.875 0.495-1.194c0.293-0.292 0.454-0.681 0.454-1.095s-0.161-0.802-0.454-1.095c-0.604-0.604-1.586-0.604-2.19 0l-1.644 1.643c-0.146 0.146-0.382 0.146-0.527 0s-0.146-0.382 0-0.527l1.644-1.643c0.433-0.433 1.009-0.672 1.622-0.672s1.189 0.239 1.622 0.672c0.433 0.433 0.672 1.009 0.672 1.622s-0.239 1.189-0.672 1.622c-0.178 0.178-0.276 0.415-0.276 0.667s0.098 0.489 0.276 0.667l1.937 1.937c0.146 0.146 0.146 0.382 0 0.527-0.073 0.072-0.168 0.109-0.264 0.109z"></path>
</svg>
