<!-- Generated by IcoMoon.io -->
<svg version="1.1" xmlns="http://www.w3.org/2000/svg" width="32" height="32" viewBox="0 0 32 32">
<title>30</title>
<path fill="#00000c" d="M8.361 32c-0.365 0-0.709-0.142-0.967-0.401l-6.993-6.993c-0.258-0.258-0.401-0.602-0.401-0.967s0.142-0.709 0.401-0.967l22.272-22.272c0.258-0.258 0.602-0.401 0.967-0.401s0.709 0.142 0.967 0.401l6.993 6.993c0.258 0.258 0.401 0.602 0.401 0.967s-0.142 0.709-0.401 0.967l-22.272 22.272c-0.258 0.258-0.602 0.401-0.967 0.401zM23.64 0.757c-0.156 0-0.313 0.059-0.432 0.178l-22.272 22.272c-0.238 0.238-0.238 0.625 0 0.863l6.993 6.993c0.238 0.238 0.625 0.238 0.863 0l22.272-22.272c0.238-0.238 0.238-0.625 0-0.863l-6.993-6.993c-0.119-0.119-0.275-0.178-0.432-0.178z"></path>
<path fill="#00000c" d="M10.051 30.719c-0.097 0-0.194-0.037-0.268-0.111l-4.908-4.908c-0.148-0.148-0.148-0.388 0-0.535l1.691-1.691c0.148-0.148 0.387-0.148 0.535 0l4.908 4.908c0.148 0.148 0.148 0.387 0 0.535l-1.691 1.691c-0.074 0.074-0.171 0.111-0.268 0.111zM5.678 25.432l4.373 4.373 1.155-1.155-4.373-4.373-1.155 1.155z"></path>
<path fill="#00000c" d="M11.742 29.028c-0.1 0-0.197-0.040-0.268-0.111l-4.908-4.908c-0.071-0.071-0.111-0.167-0.111-0.268s0.040-0.197 0.111-0.268l1.691-1.691c0.148-0.148 0.387-0.148 0.535 0l4.908 4.908c0.148 0.148 0.148 0.387 0 0.535l-1.691 1.691c-0.071 0.071-0.168 0.111-0.268 0.111zM7.369 23.742l4.373 4.373 1.155-1.155-4.373-4.373-1.155 1.155z"></path>
<path fill="#00000c" d="M13.433 27.337c-0.097 0-0.194-0.037-0.268-0.111l-4.908-4.908c-0.148-0.148-0.148-0.388 0-0.535l1.691-1.691c0.148-0.148 0.388-0.148 0.535 0l4.908 4.908c0.071 0.071 0.111 0.167 0.111 0.268s-0.040 0.197-0.111 0.268l-1.691 1.691c-0.074 0.074-0.171 0.111-0.268 0.111zM9.060 22.051l4.373 4.373 1.155-1.155-4.373-4.373-1.155 1.155z"></path>
<path fill="#00000c" d="M15.124 25.647c-0.097 0-0.194-0.037-0.268-0.111l-4.908-4.908c-0.148-0.148-0.148-0.388 0-0.535l1.691-1.691c0.071-0.071 0.167-0.111 0.268-0.111s0.197 0.040 0.268 0.111l4.908 4.908c0.148 0.148 0.148 0.387 0 0.535l-1.691 1.691c-0.074 0.074-0.171 0.111-0.268 0.111zM10.751 20.36l4.373 4.373 1.155-1.155-4.373-4.373-1.155 1.155z"></path>
<path fill="#00000c" d="M16.814 23.956c-0.097 0-0.194-0.037-0.268-0.111l-4.908-4.908c-0.071-0.071-0.111-0.167-0.111-0.268s0.040-0.197 0.111-0.268l1.691-1.691c0.148-0.148 0.387-0.148 0.535 0l4.908 4.908c0.148 0.148 0.148 0.387 0 0.535l-1.691 1.691c-0.074 0.074-0.171 0.111-0.268 0.111zM12.442 18.669l4.373 4.373 1.155-1.155-4.373-4.373-1.155 1.155z"></path>
<path fill="#00000c" d="M18.505 22.265c-0.1 0-0.197-0.040-0.268-0.111l-4.908-4.908c-0.148-0.148-0.148-0.387 0-0.535l1.691-1.691c0.148-0.148 0.387-0.148 0.535 0l4.908 4.908c0.148 0.148 0.148 0.388 0 0.535l-1.691 1.691c-0.071 0.071-0.167 0.111-0.268 0.111zM14.132 16.979l4.373 4.373 1.155-1.155-4.373-4.373-1.155 1.155z"></path>
<path fill="#00000c" d="M20.196 20.574c-0.097 0-0.194-0.037-0.268-0.111l-4.908-4.908c-0.148-0.148-0.148-0.387 0-0.535l1.691-1.691c0.071-0.071 0.167-0.111 0.268-0.111s0.197 0.040 0.268 0.111l4.908 4.908c0.071 0.071 0.111 0.167 0.111 0.268s-0.040 0.197-0.111 0.268l-1.691 1.691c-0.074 0.074-0.171 0.11-0.268 0.11zM15.823 15.288l4.373 4.373 1.155-1.155-4.373-4.373-1.155 1.155z"></path>
<path fill="#00000c" d="M21.887 18.884c-0.097 0-0.194-0.037-0.268-0.111l-4.908-4.908c-0.148-0.148-0.148-0.387 0-0.535l1.691-1.691c0.148-0.148 0.388-0.148 0.535 0l4.908 4.908c0.148 0.148 0.148 0.388 0 0.535l-1.691 1.691c-0.074 0.074-0.171 0.111-0.268 0.111zM17.514 13.597l4.373 4.373 1.155-1.155-4.373-4.373-1.155 1.155z"></path>
<path fill="#00000c" d="M23.577 17.193c-0.1 0-0.197-0.040-0.268-0.111l-4.908-4.908c-0.071-0.071-0.111-0.167-0.111-0.268s0.040-0.197 0.111-0.268l1.691-1.691c0.148-0.148 0.387-0.148 0.535 0l4.908 4.908c0.148 0.148 0.148 0.388 0 0.535l-1.691 1.691c-0.071 0.071-0.167 0.111-0.268 0.111zM19.205 11.906l4.373 4.373 1.155-1.155-4.373-4.373-1.155 1.155z"></path>
<path fill="#00000c" d="M25.268 15.502c-0.097 0-0.194-0.037-0.268-0.111l-4.908-4.908c-0.148-0.148-0.148-0.387 0-0.535l1.691-1.691c0.071-0.071 0.167-0.111 0.268-0.111s0.197 0.040 0.268 0.111l4.908 4.908c0.071 0.071 0.111 0.167 0.111 0.268s-0.040 0.197-0.111 0.268l-1.691 1.691c-0.074 0.074-0.171 0.111-0.268 0.111zM20.895 10.215l4.373 4.373 1.155-1.155-4.373-4.373-1.155 1.155z"></path>
<path fill="#00000c" d="M26.959 13.811c-0.097 0-0.194-0.037-0.268-0.111l-4.908-4.908c-0.148-0.148-0.148-0.387 0-0.535l1.691-1.691c0.148-0.148 0.388-0.148 0.535 0l4.908 4.908c0.148 0.148 0.148 0.388 0 0.535l-1.691 1.691c-0.074 0.074-0.171 0.111-0.268 0.111zM22.586 8.525l4.373 4.373 1.155-1.155-4.373-4.373-1.155 1.155z"></path>
<path fill="#00000c" d="M28.65 12.121c-0.1 0-0.197-0.040-0.268-0.111l-4.908-4.908c-0.071-0.071-0.111-0.167-0.111-0.268s0.040-0.197 0.111-0.268l1.691-1.691c0.148-0.148 0.387-0.148 0.535 0l4.908 4.908c0.148 0.148 0.148 0.387 0 0.535l-1.691 1.691c-0.071 0.071-0.167 0.111-0.268 0.111zM24.277 6.834l4.373 4.373 1.155-1.155-4.373-4.373-1.155 1.155z"></path>
<path fill="#00000c" d="M3.401 24.069c-0.097 0-0.194-0.037-0.268-0.111-0.148-0.148-0.148-0.387 0-0.535l3.381-3.381c0.148-0.148 0.388-0.148 0.535 0s0.148 0.387 0 0.535l-3.381 3.381c-0.074 0.074-0.171 0.111-0.268 0.111z"></path>
<path fill="#00000c" d="M20.309 7.162c-0.097 0-0.194-0.037-0.268-0.111-0.148-0.148-0.148-0.387 0-0.535l3.381-3.381c0.148-0.148 0.387-0.148 0.535 0s0.148 0.387 0 0.535l-3.381 3.382c-0.074 0.074-0.171 0.111-0.268 0.111z"></path>
<path fill="#00000c" d="M10.165 18.285c-0.348 0-0.695-0.132-0.96-0.397-0.256-0.256-0.398-0.598-0.398-0.96s0.141-0.704 0.398-0.96v0 0c0.256-0.256 0.597-0.398 0.96-0.398s0.704 0.141 0.96 0.398c0.529 0.529 0.529 1.391 0 1.92-0.265 0.265-0.613 0.397-0.96 0.397zM10.165 16.327c-0.16 0-0.311 0.062-0.425 0.176v0c-0.114 0.113-0.176 0.264-0.176 0.425s0.062 0.311 0.176 0.425c0.234 0.234 0.615 0.234 0.85 0s0.234-0.615 0-0.85c-0.114-0.113-0.264-0.176-0.425-0.176zM9.472 16.235v0z"></path>
<path fill="#00000c" d="M14.791 11.409c-0.246 0.246-0.246 0.646 0 0.892s0.646 0.246 0.892 0c0.246-0.246 0.246-0.646 0-0.892s-0.646-0.246-0.892 0z"></path>
<path fill="#00000c" d="M13.1 13.1c-0.246 0.246-0.246 0.646 0 0.892s0.646 0.246 0.892 0c0.246-0.246 0.246-0.646 0-0.892s-0.646-0.246-0.892 0z"></path>
<path fill="#00000c" d="M16.481 9.718c-0.246 0.246-0.246 0.646 0 0.892s0.646 0.246 0.892 0c0.246-0.246 0.246-0.646 0-0.892s-0.646-0.246-0.892 0z"></path>
</svg>
