<!-- Generated by IcoMoon.io -->
<svg version="1.1" xmlns="http://www.w3.org/2000/svg" width="40" height="32" viewBox="0 0 40 32">
<title>33</title>
<path fill="#00000c" d="M18.758 32c-4.45 0-8.070-3.62-8.070-8.070s3.62-8.070 8.070-8.070 8.070 3.62 8.070 8.070c0 4.45-3.62 8.070-8.070 8.070zM18.758 16.773c-3.947 0-7.157 3.211-7.157 7.157s3.211 7.157 7.157 7.157 7.157-3.211 7.157-7.157c0-3.947-3.211-7.157-7.157-7.157z"></path>
<path fill="#00000c" d="M9.509 26.345h-7.162c-0.548 0-0.993-0.445-0.993-0.993v-8.422c0-0.547 0.445-0.993 0.993-0.993h6.94c0.252 0 0.456 0.204 0.456 0.456v0.933c0 0.044 0.036 0.080 0.080 0.080h0.223c0.252 0 0.456 0.204 0.456 0.456v7.49c0 0.548-0.445 0.993-0.993 0.993zM2.347 16.849c-0.044 0-0.080 0.036-0.080 0.080v8.422c0 0.045 0.036 0.080 0.080 0.080h7.162c0.044 0 0.080-0.036 0.080-0.080v-7.061c-0.435-0.105-0.759-0.498-0.759-0.965v-0.477h-6.483z"></path>
<path fill="#00000c" d="M14.161 18.318h-4.338c-0.547 0-0.993-0.445-0.993-0.993v-4.572c0-0.547 0.445-0.993 0.993-0.993h6.884c0.548 0 0.993 0.445 0.993 0.993v3.714c0 0.217-0.153 0.404-0.366 0.447-1.043 0.211-2.045 0.664-2.897 1.311-0.079 0.060-0.176 0.093-0.276 0.093zM9.823 12.673c-0.044 0-0.080 0.036-0.080 0.080v4.572c0 0.044 0.036 0.080 0.080 0.080h4.187c0.832-0.606 1.783-1.052 2.778-1.302v-3.35c0-0.044-0.036-0.080-0.080-0.080h-6.884zM17.244 16.468v0z"></path>
<path fill="#00000c" d="M27.551 18.318h-4.195c-0.1 0-0.196-0.032-0.276-0.093-0.888-0.673-1.936-1.135-3.031-1.334-0.217-0.040-0.374-0.228-0.374-0.449v-3.689c0-0.547 0.445-0.993 0.993-0.993h6.884c0.548 0 0.993 0.445 0.993 0.993v4.572c0 0.548-0.445 0.993-0.993 0.993zM23.506 17.406h4.044c0.044 0 0.080-0.036 0.080-0.080v-4.572c0-0.044-0.036-0.080-0.080-0.080h-6.884c-0.044 0-0.080 0.036-0.080 0.080v3.318c1.049 0.244 2.049 0.701 2.92 1.335z"></path>
<path fill="#00000c" d="M6.725 29.312c-0.252 0-0.456-0.204-0.456-0.456v-23.519c0-0.252 0.204-0.456 0.456-0.456s0.456 0.204 0.456 0.456v23.519c0 0.252-0.204 0.456-0.456 0.456z"></path>
<path fill="#00000c" d="M10.503 31.102c-0.065 0-0.132-0.014-0.195-0.044l-3.583-1.697-3.583 1.697c-0.228 0.108-0.5 0.011-0.608-0.217s-0.011-0.5 0.217-0.608l3.779-1.79c0.124-0.058 0.267-0.058 0.391 0l3.779 1.79c0.228 0.108 0.325 0.38 0.217 0.608-0.078 0.165-0.242 0.261-0.412 0.261z"></path>
<path fill="#00000c" d="M10.065 7.605c-1.248 0-2.611-0.148-3.658-0.318-1.707-0.278-3.291-0.701-4.46-1.19-1.409-0.59-2.043-1.197-1.936-1.854 0.251-1.539 4.537-1.263 7.031-0.856v0c1.707 0.278 3.291 0.701 4.46 1.19 1.409 0.59 2.043 1.197 1.936 1.854-0.145 0.893-1.649 1.175-3.372 1.175zM0.922 4.391c0.065 0.128 0.438 0.495 1.573 0.943 1.085 0.429 2.526 0.802 4.059 1.052s3.018 0.353 4.183 0.291c1.219-0.065 1.689-0.295 1.791-0.395-0.065-0.128-0.438-0.495-1.573-0.943-1.085-0.429-2.526-0.802-4.059-1.052s-3.018-0.353-4.183-0.291c-1.219 0.065-1.689 0.295-1.791 0.395z"></path>
<path fill="#00000c" d="M6.725 4.254c-0.252 0-0.456-0.204-0.456-0.456v-1.089c0-0.252 0.204-0.456 0.456-0.456s0.456 0.204 0.456 0.456v1.089c0 0.252-0.204 0.456-0.456 0.456z"></path>
<path fill="#00000c" d="M30.792 29.312c-0.252 0-0.456-0.204-0.456-0.456v-25.771c0-0.252 0.204-0.456 0.456-0.456s0.456 0.204 0.456 0.456v25.771c0 0.252-0.204 0.456-0.456 0.456z"></path>
<path fill="#00000c" d="M34.57 31.102c-0.065 0-0.132-0.014-0.195-0.044l-3.584-1.697-3.584 1.697c-0.228 0.108-0.5 0.011-0.608-0.217s-0.011-0.5 0.217-0.608l3.779-1.79c0.124-0.058 0.267-0.058 0.391 0l3.779 1.79c0.228 0.108 0.325 0.38 0.217 0.608-0.078 0.165-0.242 0.261-0.412 0.261z"></path>
<path fill="#00000c" d="M27.451 5.353c-1.724 0-3.227-0.282-3.372-1.175-0.107-0.657 0.526-1.263 1.936-1.854 1.169-0.489 2.753-0.912 4.46-1.19v0c2.493-0.406 6.78-0.683 7.031 0.857s-3.902 2.638-6.395 3.044c-1.047 0.17-2.41 0.318-3.658 0.318zM24.989 4.029c0.102 0.1 0.573 0.33 1.791 0.395 1.165 0.062 2.65-0.041 4.183-0.291s2.974-0.623 4.059-1.052c1.135-0.448 1.508-0.816 1.573-0.943-0.102-0.1-0.572-0.33-1.791-0.395-1.165-0.062-2.65 0.041-4.183 0.291v0c-1.533 0.25-2.974 0.623-4.059 1.052-1.135 0.449-1.508 0.816-1.573 0.943z"></path>
<path fill="#00000c" d="M30.792 2.002c-0.252 0-0.456-0.204-0.456-0.456v-1.089c0-0.252 0.204-0.456 0.456-0.456s0.456 0.204 0.456 0.456v1.089c0 0.252-0.204 0.456-0.456 0.456z"></path>
<path fill="#00000c" d="M34.57 26.735c-0.252 0-0.456-0.204-0.456-0.456v-10.132c0-0.252 0.204-0.456 0.456-0.456s0.456 0.204 0.456 0.456v10.132c0 0.252-0.204 0.456-0.456 0.456z"></path>
<path fill="#00000c" d="M38.349 28.524c-0.065 0-0.132-0.014-0.195-0.044l-3.584-1.697-3.584 1.697c-0.228 0.108-0.5 0.011-0.608-0.217s-0.011-0.5 0.217-0.608l3.779-1.79c0.124-0.058 0.267-0.058 0.391 0l3.779 1.79c0.228 0.108 0.325 0.38 0.217 0.608-0.078 0.165-0.242 0.261-0.412 0.261z"></path>
<path fill="#00000c" d="M34.57 17.909c-0.589 0-5.757-0.049-5.757-1.763s5.168-1.763 5.757-1.763c0.589 0 5.757 0.049 5.757 1.762s-5.168 1.763-5.757 1.763zM29.748 16.147c0.294 0.326 2.033 0.85 4.822 0.85s4.528-0.524 4.822-0.85c-0.294-0.326-2.033-0.85-4.822-0.85s-4.528 0.524-4.822 0.85zM39.423 16.189v0z"></path>
<path fill="#00000c" d="M34.57 15.296c-0.252 0-0.456-0.204-0.456-0.456v-2.487c0-0.252 0.204-0.456 0.456-0.456s0.456 0.204 0.456 0.456v2.488c0 0.252-0.204 0.456-0.456 0.456z"></path>
</svg>
