<!-- Generated by IcoMoon.io -->
<svg version="1.1" xmlns="http://www.w3.org/2000/svg" width="20" height="32" viewBox="0 0 20 32">
<title>35</title>
<path fill="#00000c" d="M5.211 29.018c-0.168 0-0.317-0.121-0.347-0.293l-4.86-28.313c-0.033-0.192 0.096-0.374 0.287-0.407 0.193-0.033 0.374 0.096 0.407 0.288l4.86 28.313c0.033 0.192-0.096 0.374-0.287 0.407-0.020 0.003-0.040 0.005-0.060 0.005z"></path>
<path fill="#00000c" d="M8.229 29.018c-0.168 0-0.317-0.121-0.347-0.293l-4.024-23.447c-0.033-0.192 0.096-0.374 0.287-0.407 0.193-0.033 0.374 0.096 0.407 0.288l4.024 23.447c0.033 0.192-0.096 0.374-0.287 0.407-0.020 0.003-0.040 0.005-0.060 0.005z"></path>
<path fill="#00000c" d="M10.734 26.032c-0.168 0-0.317-0.121-0.347-0.293l-3.208-18.693c-0.033-0.192 0.096-0.374 0.287-0.407 0.193-0.033 0.374 0.096 0.407 0.288l3.208 18.693c0.033 0.192-0.096 0.374-0.287 0.407-0.020 0.004-0.040 0.005-0.060 0.005z"></path>
<path fill="#00000c" d="M13.044 21.91c-0.168 0-0.317-0.121-0.347-0.293l-1.826-10.642c-0.033-0.192 0.096-0.374 0.287-0.407 0.193-0.033 0.374 0.096 0.407 0.288l1.826 10.642c0.033 0.192-0.096 0.374-0.287 0.407-0.020 0.003-0.040 0.005-0.060 0.005z"></path>
<path fill="#00000c" d="M15.354 17.789c-0.168 0-0.317-0.121-0.347-0.293l-0.963-5.608c-0.033-0.192 0.096-0.374 0.287-0.407 0.193-0.033 0.374 0.096 0.407 0.288l0.963 5.608c0.033 0.192-0.096 0.374-0.287 0.407-0.020 0.003-0.040 0.005-0.060 0.005z"></path>
<path fill="#00000c" d="M9.061 29.018c-0.058 0-0.117-0.014-0.172-0.045-0.17-0.095-0.23-0.31-0.135-0.479l10.813-19.293c0.105-0.187 0.034-0.359-0.066-0.457-0.048-0.047-0.224-0.191-0.454-0.056-1.685 0.994-3.236 1.498-4.611 1.498-1.847 0-2.72-1.338-3.731-2.888-1.567-2.403-3.517-5.393-10.145-5.393-0.195 0-0.352-0.158-0.352-0.352s0.158-0.352 0.352-0.352c7.010 0 9.163 3.302 10.735 5.712 0.972 1.491 1.675 2.568 3.141 2.568 1.248 0 2.679-0.471 4.253-1.4 0.426-0.251 0.951-0.188 1.305 0.159 0.355 0.348 0.431 0.872 0.188 1.305l-10.813 19.293c-0.065 0.115-0.184 0.18-0.308 0.18z"></path>
<path fill="#00000c" d="M14.065 12.188c-2.536 0-3.758-1.484-5.051-3.055-1.56-1.896-3.174-3.856-7.398-3.856-0.195 0-0.352-0.158-0.352-0.352s0.158-0.352 0.352-0.352c4.557 0 6.355 2.185 7.942 4.112 1.236 1.501 2.303 2.798 4.507 2.798 3.385 0 5.526-2.323 5.548-2.347 0.13-0.144 0.353-0.156 0.497-0.025s0.156 0.352 0.026 0.497c-0.095 0.105-2.363 2.58-6.071 2.58z"></path>
<path fill="#00000c" d="M12.131 32h-9.83c-0.195 0-0.352-0.158-0.352-0.352v-1.422c0-1.054 0.858-1.912 1.912-1.912h6.71c1.054 0 1.912 0.858 1.912 1.912v1.422c0 0.194-0.158 0.352-0.352 0.352zM2.653 31.296h9.126v-1.070c0-0.666-0.542-1.208-1.208-1.208h-6.71c-0.666 0-1.208 0.542-1.208 1.208v1.070z"></path>
</svg>
