<!-- Generated by IcoMoon.io -->
<svg version="1.1" xmlns="http://www.w3.org/2000/svg" width="32" height="32" viewBox="0 0 32 32">
<title>36</title>
<path fill="#00000c" d="M15.982 29.642c-0.713 0-1.429-0.056-2.143-0.17-0.827-0.132-1.452-0.809-1.52-1.646-0.17-2.099-1.085-4.077-2.576-5.568s-3.468-2.406-5.567-2.576c-0.836-0.068-1.512-0.685-1.643-1.5-0.329-2.045-0.187-4.171 0.412-6.149 0.627-2.070 1.709-3.915 3.215-5.482 2.526-2.629 5.94-4.111 9.614-4.173 3.668-0.061 7.127 1.301 9.736 3.839 2.64 2.568 4.108 6.008 4.134 9.688s-1.393 7.141-3.996 9.743c-2.572 2.573-6.072 3.994-9.666 3.994zM16.013 3.238c-0.075 0-0.15 0.001-0.225 0.002-3.442 0.058-6.641 1.446-9.007 3.908-2.805 2.919-4.044 6.89-3.398 10.897 0.068 0.423 0.423 0.743 0.862 0.778 2.303 0.187 4.471 1.191 6.107 2.826s2.639 3.805 2.826 6.107c0.036 0.44 0.363 0.796 0.797 0.865 4.040 0.645 8.175-0.694 11.063-3.582 2.438-2.438 3.767-5.679 3.743-9.128s-1.399-6.671-3.873-9.076c-2.39-2.324-5.542-3.597-8.896-3.597z"></path>
<path fill="#00000c" d="M21.052 7.587c-0.483 0-0.973-0.093-1.446-0.289-1.932-0.8-2.853-3.023-2.052-4.955 0.387-0.936 1.116-1.665 2.052-2.052s1.967-0.388 2.903 0c0.936 0.387 1.665 1.117 2.052 2.052s0.388 1.967 0 2.903c-0.604 1.459-2.020 2.341-3.509 2.341zM21.057 0.862c-0.38 0-0.76 0.075-1.121 0.225-0.723 0.3-1.287 0.863-1.586 1.586-0.618 1.493 0.093 3.211 1.586 3.829s3.211-0.093 3.829-1.586c0.3-0.723 0.3-1.52 0-2.243s-0.863-1.287-1.586-1.586v0c-0.362-0.15-0.742-0.225-1.121-0.225z"></path>
<path fill="#00000c" d="M28.208 24.852c-0.492 0-0.983-0.097-1.451-0.291-1.932-0.8-2.853-3.023-2.052-4.955s3.023-2.853 4.955-2.052c0.936 0.388 1.665 1.116 2.052 2.052s0.388 1.967 0 2.903-1.117 1.665-2.052 2.052c-0.468 0.194-0.959 0.29-1.451 0.29zM28.212 18.126c-1.151 0-2.244 0.682-2.711 1.809-0.618 1.493 0.093 3.211 1.586 3.829s3.211-0.093 3.829-1.586c0.3-0.723 0.3-1.52 0-2.243s-0.863-1.287-1.586-1.586c-0.366-0.151-0.745-0.223-1.118-0.223z"></path>
<path fill="#00000c" d="M3.794 14.739c-0.492 0-0.983-0.097-1.451-0.291-0.936-0.387-1.665-1.116-2.052-2.052s-0.388-1.967 0-2.903c0.8-1.932 3.023-2.853 4.955-2.052 0.936 0.388 1.665 1.117 2.052 2.052s0.388 1.967 0 2.903c-0.388 0.936-1.117 1.665-2.052 2.052-0.468 0.194-0.96 0.291-1.451 0.291zM3.798 8.014c-1.151 0-2.244 0.682-2.711 1.809-0.3 0.723-0.3 1.52 0 2.243s0.863 1.287 1.586 1.586c1.493 0.618 3.211-0.093 3.829-1.586s-0.093-3.211-1.586-3.829c-0.366-0.151-0.745-0.223-1.118-0.223z"></path>
<path fill="#00000c" d="M28.208 14.739c-0.492 0-0.983-0.097-1.451-0.291-0.936-0.388-1.665-1.117-2.052-2.052s-0.388-1.967 0-2.903c0.388-0.936 1.117-1.665 2.052-2.052 1.932-0.8 4.155 0.12 4.955 2.052v0c0.388 0.936 0.388 1.967 0 2.903s-1.117 1.665-2.052 2.052c-0.468 0.194-0.959 0.291-1.451 0.291zM28.204 8.014c-0.373 0-0.752 0.072-1.118 0.223-1.493 0.618-2.205 2.336-1.586 3.829s2.336 2.204 3.829 1.586c0.723-0.3 1.287-0.863 1.586-1.586s0.3-1.52 0-2.243c-0.467-1.128-1.561-1.809-2.711-1.809z"></path>
<path fill="#00000c" d="M10.945 7.589c-0.492 0-0.983-0.097-1.451-0.291-0.936-0.388-1.665-1.117-2.052-2.052s-0.388-1.967 0-2.902c0.388-0.936 1.116-1.665 2.052-2.052v0c0.936-0.388 1.967-0.388 2.903 0s1.665 1.117 2.052 2.052c0.8 1.932-0.12 4.155-2.052 4.955-0.468 0.194-0.96 0.291-1.451 0.291zM10.945 0.862c-0.38 0-0.76 0.075-1.122 0.225v0c-0.723 0.3-1.286 0.863-1.586 1.586s-0.3 1.52 0 2.243 0.863 1.287 1.586 1.586c0.723 0.3 1.52 0.3 2.243 0 1.493-0.618 2.204-2.336 1.586-3.829-0.3-0.723-0.863-1.287-1.586-1.586-0.362-0.149-0.742-0.224-1.121-0.224zM9.658 0.689v0z"></path>
<path fill="#00000c" d="M21.062 32c-1.489 0-2.904-0.882-3.509-2.341-0.388-0.936-0.388-1.967 0-2.903s1.116-1.665 2.052-2.052v0c0.936-0.388 1.967-0.388 2.903 0s1.665 1.117 2.052 2.052c0.8 1.932-0.12 4.155-2.052 4.955-0.473 0.196-0.964 0.289-1.446 0.289zM19.936 25.5c-1.493 0.618-2.204 2.336-1.586 3.829s2.336 2.205 3.829 1.586c1.493-0.618 2.204-2.336 1.586-3.829-0.3-0.723-0.863-1.287-1.586-1.586s-1.52-0.3-2.243 0v0z"></path>
</svg>
