<!-- Generated by IcoMoon.io -->
<svg version="1.1" xmlns="http://www.w3.org/2000/svg" width="32" height="32" viewBox="0 0 32 32">
<title>39</title>
<path fill="#00000c" d="M14.702 32c-0.095 0-0.188-0.037-0.257-0.106l-14.339-14.339c-0.092-0.092-0.127-0.225-0.094-0.351s0.131-0.223 0.257-0.257l17.061-4.572 8.459-8.176c0.142-0.138 0.369-0.136 0.509 0.004l1.498 1.498c0.14 0.14 0.142 0.367 0.004 0.509l-8.177 8.459-4.572 17.061c-0.034 0.125-0.131 0.223-0.257 0.257-0.031 0.008-0.062 0.012-0.094 0.012zM1.064 17.486l13.45 13.45 4.433-16.544c0.016-0.060 0.047-0.114 0.090-0.158l7.994-8.27-0.993-0.993-8.27 7.994c-0.044 0.043-0.099 0.074-0.158 0.090l-16.545 4.433z"></path>
<path fill="#00000c" d="M12.758 21.41c-0.556 0-1.111-0.212-1.534-0.634-0.41-0.41-0.636-0.955-0.636-1.534s0.226-1.124 0.636-1.534c0.846-0.846 2.222-0.846 3.069 0 0.41 0.41 0.636 0.955 0.636 1.534s-0.226 1.124-0.636 1.534c-0.423 0.423-0.979 0.634-1.534 0.634zM12.758 17.799c-0.37 0-0.739 0.141-1.021 0.422-0.273 0.273-0.423 0.635-0.423 1.021s0.15 0.748 0.423 1.021c0.563 0.563 1.479 0.563 2.042 0 0.273-0.273 0.423-0.635 0.423-1.021s-0.15-0.748-0.423-1.021c-0.281-0.282-0.651-0.422-1.021-0.422z"></path>
<path fill="#00000c" d="M11.143 24.269c-0.093 0-0.186-0.035-0.257-0.106l-3.049-3.049c-0.142-0.142-0.142-0.371 0-0.513s0.372-0.142 0.513 0l3.049 3.049c0.142 0.142 0.142 0.371 0 0.513-0.071 0.071-0.164 0.106-0.257 0.106z"></path>
<path fill="#00000c" d="M17.020 17.204c-0.096 0-0.189-0.038-0.257-0.106l-1.862-1.861c-0.069-0.069-0.107-0.162-0.106-0.26s0.041-0.19 0.111-0.258l10.883-10.519c0.142-0.138 0.369-0.136 0.509 0.004l1.498 1.498c0.14 0.14 0.142 0.367 0.004 0.509l-10.519 10.883c-0.068 0.070-0.16 0.11-0.258 0.111-0.001 0-0.002 0-0.003 0zM15.676 14.984l1.34 1.339 10.014-10.361-0.993-0.993-10.361 10.014z"></path>
<path fill="#00000c" d="M27.539 6.321c-0.093 0-0.186-0.036-0.257-0.106l-1.498-1.498c-0.127-0.127-0.142-0.327-0.036-0.471l3.006-4.098c0.063-0.085 0.159-0.139 0.265-0.147s0.209 0.030 0.284 0.105l2.589 2.59c0.075 0.075 0.113 0.179 0.105 0.284s-0.062 0.202-0.147 0.265l-4.098 3.006c-0.064 0.047-0.14 0.070-0.215 0.070zM26.518 4.425l1.057 1.057 3.506-2.572-1.991-1.991-2.572 3.506z"></path>
<path fill="#00000c" d="M28.423 1.578c-0.093 0-0.186-0.035-0.257-0.106l-0.717-0.717c-0.142-0.142-0.142-0.372 0-0.513s0.372-0.142 0.513 0l0.717 0.717c0.142 0.142 0.142 0.372 0 0.513-0.071 0.071-0.164 0.106-0.257 0.106z"></path>
<path fill="#00000c" d="M27.544 2.775c-0.093 0-0.186-0.035-0.257-0.106l-0.717-0.717c-0.142-0.142-0.142-0.371 0-0.513s0.372-0.142 0.513 0l0.717 0.717c0.142 0.142 0.142 0.371 0 0.513-0.071 0.071-0.164 0.106-0.257 0.106z"></path>
<path fill="#00000c" d="M26.666 3.972c-0.093 0-0.186-0.035-0.257-0.106l-0.717-0.717c-0.142-0.142-0.142-0.371 0-0.513s0.372-0.142 0.513 0l0.717 0.717c0.142 0.142 0.142 0.371 0 0.513-0.071 0.071-0.164 0.106-0.257 0.106z"></path>
</svg>
