<!-- Generated by IcoMoon.io -->
<svg version="1.1" xmlns="http://www.w3.org/2000/svg" width="32" height="32" viewBox="0 0 32 32">
<title>42</title>
<path fill="#00000c" d="M9.99 32c-1.775 0-3.779-0.905-5.797-2.685-0.089-0.078-0.138-0.192-0.135-0.31s0.059-0.229 0.152-0.302l5.428-4.274-2.067-2.067-4.274 5.428c-0.073 0.093-0.183 0.148-0.302 0.152-0.122 0.003-0.231-0.046-0.309-0.135-3.070-3.478-3.537-6.92-1.25-9.206 1.162-1.162 2.598-2 4.154-2.425 0.213-0.058 0.381-0.211 0.463-0.421 0.052-0.134 0.173-0.23 0.315-0.25s0.285 0.038 0.372 0.152c0.518 0.678 1.908 0.599 3.036-0.171 1.109-0.758 1.642-1.942 1.188-2.64-0.071-0.11-0.084-0.247-0.035-0.368s0.155-0.21 0.283-0.238c0.214-0.047 0.381-0.191 0.456-0.394 0.371-0.998 0.947-1.892 1.713-2.658 1.687-1.687 4.13-1.51 6.702 0.487 0.092 0.071 0.148 0.179 0.154 0.296s-0.040 0.229-0.125 0.309l-5.21 4.899 1.92 1.92 4.898-5.211c0.080-0.085 0.193-0.13 0.309-0.125s0.224 0.062 0.296 0.153c1.997 2.572 2.175 5.015 0.487 6.702-0.766 0.766-1.66 1.342-2.658 1.713-0.204 0.076-0.347 0.242-0.394 0.457-0.028 0.128-0.117 0.233-0.238 0.283s-0.258 0.037-0.368-0.035c-0.698-0.454-1.882 0.079-2.64 1.189-0.771 1.128-0.849 2.518-0.171 3.036 0.114 0.087 0.173 0.23 0.153 0.372s-0.116 0.263-0.25 0.315c-0.209 0.081-0.363 0.25-0.421 0.463v0c-0.424 1.556-1.263 2.992-2.425 4.154-0.961 0.96-2.125 1.435-3.41 1.435zM5.084 29.029c2.997 2.482 5.873 2.853 7.753 0.973 1.064-1.064 1.832-2.378 2.22-3.801 0.075-0.275 0.223-0.515 0.425-0.701-0.64-0.905-0.515-2.422 0.375-3.724 0.891-1.303 2.258-1.939 3.307-1.607 0.164-0.265 0.412-0.472 0.713-0.583 0.89-0.33 1.688-0.845 2.372-1.529 1.746-1.746 0.573-4.058-0.276-5.275l-4.853 5.162c-0.074 0.078-0.176 0.124-0.284 0.125s-0.211-0.040-0.288-0.117l-2.501-2.501c-0.076-0.076-0.118-0.18-0.117-0.288s0.047-0.21 0.125-0.284l5.162-4.853c-1.217-0.849-3.529-2.022-5.275-0.276-0.684 0.684-1.199 1.483-1.529 2.372-0.112 0.301-0.318 0.549-0.583 0.713 0.332 1.048-0.304 2.416-1.607 3.307-1.302 0.89-2.82 1.015-3.724 0.375-0.186 0.202-0.426 0.35-0.701 0.425-1.423 0.388-2.736 1.156-3.801 2.22-1.88 1.88-1.509 4.756 0.973 7.753l4.252-5.399c0.070-0.089 0.176-0.144 0.289-0.151s0.225 0.035 0.305 0.116l2.701 2.701c0.081 0.080 0.123 0.191 0.116 0.305s-0.062 0.219-0.151 0.289l-5.399 4.252zM15.441 26.306v0z"></path>
<path fill="#00000c" d="M7.696 19.334c-0.239 0-0.453-0.074-0.631-0.252-0.155-0.155-0.155-0.407 0-0.563s0.407-0.155 0.563 0c0.018 0.018 0.14 0.043 0.451-0.072 0.343-0.127 0.77-0.37 1.184-0.605 1.029-0.585 2.001-1.138 2.591-0.548 0.155 0.155 0.155 0.407 0 0.563s-0.408 0.155-0.563 0c-0.018-0.018-0.139-0.043-0.451 0.072-0.343 0.127-0.77 0.37-1.183 0.605-0.718 0.408-1.408 0.8-1.96 0.8z"></path>
<path fill="#00000c" d="M13.2 25.051c-0.102 0-0.204-0.039-0.281-0.117-0.589-0.589-0.037-1.562 0.548-2.591 0.235-0.413 0.478-0.841 0.605-1.183 0.116-0.312 0.090-0.433 0.072-0.451-0.155-0.155-0.155-0.407 0-0.563s0.408-0.155 0.563 0c0.589 0.589 0.037 1.562-0.548 2.591-0.235 0.413-0.478 0.841-0.605 1.183-0.116 0.312-0.090 0.433-0.072 0.451 0.155 0.155 0.155 0.408 0 0.563-0.078 0.078-0.18 0.117-0.282 0.117z"></path>
<path fill="#00000c" d="M1.42 31.628c-0.27 0-0.538-0.104-0.742-0.307-0.375-0.375-0.411-0.973-0.082-1.39l6.626-8.414c0.070-0.089 0.176-0.144 0.289-0.151s0.225 0.035 0.305 0.116l2.701 2.701c0.081 0.080 0.123 0.191 0.116 0.305s-0.062 0.219-0.151 0.289l-8.414 6.626c-0.191 0.151-0.42 0.225-0.648 0.225zM7.571 22.362l-6.349 8.062c-0.079 0.1-0.071 0.244 0.020 0.335s0.234 0.099 0.334 0.020l8.062-6.349-2.067-2.067z"></path>
<path fill="#00000c" d="M16.83 18.069c-0.105 0-0.207-0.042-0.281-0.117l-2.501-2.501c-0.076-0.076-0.118-0.18-0.117-0.287s0.047-0.21 0.125-0.284l13.25-12.457c0.157-0.147 0.402-0.144 0.554 0.009l1.707 1.707c0.152 0.152 0.156 0.397 0.008 0.554l-12.457 13.25c-0.074 0.078-0.176 0.124-0.284 0.125-0.002 0-0.004 0-0.006 0zM14.901 15.179l1.92 1.92 11.911-12.67-1.161-1.161-12.67 11.911z"></path>
<path fill="#00000c" d="M29.569 4.827c-0.283 0-0.548-0.11-0.748-0.31l-1.337-1.336c-0.204-0.204-0.314-0.476-0.31-0.764s0.122-0.557 0.332-0.755l1.452-1.37c0.42-0.396 1.068-0.387 1.476 0.021l1.255 1.255c0.408 0.408 0.417 1.056 0.022 1.476l-1.37 1.451c-0.198 0.21-0.466 0.328-0.755 0.332-0.005 0-0.011 0-0.016 0zM29.684 0.797c-0.065 0-0.13 0.024-0.181 0.072l-1.452 1.369c-0.052 0.049-0.082 0.116-0.083 0.188s0.026 0.139 0.077 0.19l1.337 1.336c0.051 0.051 0.117 0.079 0.19 0.077 0.072-0.001 0.138-0.030 0.188-0.083l1.37-1.451c0.099-0.104 0.096-0.265-0.005-0.367 0 0 0 0 0 0l-1.254-1.255c-0.052-0.052-0.119-0.078-0.186-0.078z"></path>
<path fill="#00000c" d="M26.96 3.694c-0.102 0-0.204-0.039-0.281-0.117l-0.953-0.953c-0.155-0.155-0.155-0.407 0-0.563s0.408-0.155 0.563 0l0.953 0.953c0.155 0.155 0.155 0.407 0 0.563-0.078 0.078-0.18 0.117-0.281 0.117z"></path>
<path fill="#00000c" d="M25.977 4.618c-0.102 0-0.204-0.039-0.281-0.117l-0.953-0.953c-0.155-0.155-0.155-0.407 0-0.563s0.408-0.155 0.563 0l0.953 0.953c0.155 0.155 0.155 0.407 0 0.563-0.078 0.078-0.18 0.117-0.281 0.117z"></path>
<path fill="#00000c" d="M29.658 6.391c-0.102 0-0.204-0.039-0.281-0.117l-0.953-0.953c-0.155-0.155-0.155-0.407 0-0.563s0.408-0.155 0.563 0l0.953 0.953c0.155 0.155 0.155 0.407 0 0.563-0.078 0.078-0.18 0.117-0.281 0.117z"></path>
<path fill="#00000c" d="M28.733 7.374c-0.102 0-0.204-0.039-0.281-0.117l-0.953-0.953c-0.155-0.155-0.155-0.407 0-0.563s0.407-0.155 0.563 0l0.953 0.953c0.155 0.155 0.155 0.408 0 0.563-0.078 0.078-0.18 0.117-0.281 0.117z"></path>
</svg>
