<!-- Generated by IcoMoon.io -->
<svg version="1.1" xmlns="http://www.w3.org/2000/svg" width="32" height="32" viewBox="0 0 32 32">
<title>46</title>
<path fill="#00000c" d="M3.589 26.863l-0.839 0.839-0.386-0.386 0.839-0.839 0.386 0.386zM3.711 26.984l-0.839 0.839 0.386 0.386 0.839-0.839-0.386-0.386zM4.219 27.491l-0.839 0.839 0.386 0.386 0.839-0.839-0.386-0.386zM3.888 28.839l0.386 0.386 0.839-0.839-0.386-0.386-0.839 0.839zM32 1.467c-0.001 0.559-0.361 1.025-0.897 1.16l-0.152 0.038c-0.138 0.035-0.257 0.126-0.327 0.25l-1.782 3.159c-0.144 0.237-0.397 0.378-0.677 0.378-0.122 0-0.241-0.027-0.352-0.079-0.15-0.071-0.317-0.108-0.484-0.108-0.302 0-0.587 0.118-0.801 0.332l-0.418 0.418-13.643 13.935c-0.173 0.388-0.147 0.7 0.080 0.926 0.325 0.325 0.889 0.298 1.726-0.084 0.033-0.014 0.078-0.036 0.144-0.069 0.266-0.13 0.542-0.125 0.778 0.015 0.28 0.166 0.466 0.509 0.484 0.895 0.022 0.464-0.153 0.865-0.55 1.262-0.464 0.464-1.533 0.988-2.306 1.296-0.761 0.303-1.324 0.957-1.507 1.749-0.276 1.2-0.674 2.149-1.184 2.821-0.167 0.283-0.37 0.545-0.605 0.779-0.743 0.743-1.731 1.153-2.782 1.153-0 0-0 0-0.001 0-1.051 0-2.039-0.409-2.782-1.152l-2.81-2.81c-0.743-0.743-1.153-1.732-1.153-2.783s0.409-2.039 1.153-2.782c0.218-0.218 0.459-0.408 0.721-0.569l-0.012-0.011 0.36-0.181c0.279-0.134 0.571-0.234 0.869-0.299l1.702-0.584c1.146-0.394 2.033-1.269 2.434-2.4 0.529-1.495 1.22-2.518 2.114-3.128 0.014-0.010 0.041-0.031 0.080-0.060 1.681-1.28 2.844-1.566 3.456-0.852 0.094 0.11 0.136 0.249 0.12 0.4-0.055 0.523-0.839 1.188-1.678 1.829-0.073 0.055-0.135 0.103-0.164 0.127-0.209 0.175-0.431 0.559-0.449 0.956-0.012 0.263 0.065 0.48 0.229 0.644 0.144 0.144 0.341 0.219 0.589 0.225l13.001-12.643c0.12-0.116 0.209-0.261 0.259-0.419l0.082-0.261c0.088-0.281 0.274-0.52 0.525-0.675l0.265-0.209-0.224-0.31c-0.088-0.122-0.061-0.293 0.061-0.381s0.293-0.061 0.381 0.061l0.211 0.292 0.823-0.648-0.224-0.31c-0.088-0.122-0.061-0.293 0.061-0.381s0.293-0.061 0.381 0.061l0.211 0.292 0.821-0.646-0.237-0.328c-0.088-0.122-0.061-0.293 0.061-0.381s0.293-0.061 0.381 0.061l0.224 0.31 0.823-0.647-0.241-0.334c-0.088-0.122-0.061-0.293 0.061-0.381s0.293-0.061 0.381 0.061l0.228 0.316 0.204-0.161c0.234-0.193 0.511-0.298 0.796-0.298 0.099 0 0.199 0.013 0.297 0.038 0.524 0.134 0.862 0.575 0.861 1.123zM12.161 22.262c-0.187-0.187-0.3-0.409-0.338-0.655l-0.551 0.563-1.855-1.855 1.629-1.584c-0.189-0.064-0.357-0.166-0.495-0.305-0.273-0.273-0.408-0.638-0.389-1.055 0.023-0.505 0.282-1.048 0.644-1.351 0.037-0.031 0.098-0.078 0.182-0.142 1.332-1.018 1.464-1.359 1.467-1.449-0.379-0.422-1.363-0.080-2.703 0.94-0.050 0.038-0.085 0.064-0.103 0.076-0.784 0.534-1.425 1.496-1.907 2.859-0.456 1.289-1.466 2.286-2.771 2.734l-1.749 0.598c-0.245 0.052-0.487 0.133-0.718 0.24l-0.050 0.024c-0.341 0.166-0.649 0.385-0.915 0.651-0.64 0.64-0.993 1.491-0.993 2.396s0.352 1.756 0.993 2.396l2.81 2.81c0.64 0.64 1.491 0.992 2.396 0.992 0 0 0 0 0 0 0.905-0 1.756-0.353 2.396-0.993 0.206-0.206 0.383-0.436 0.529-0.684l0.020-0.034 0.013-0.012c0.572-0.759 0.903-1.835 1.081-2.606 0.223-0.967 0.909-1.765 1.837-2.134 0.926-0.368 1.799-0.851 2.122-1.175 0.288-0.288 0.405-0.543 0.391-0.85-0.010-0.202-0.095-0.379-0.217-0.451-0.075-0.045-0.16-0.043-0.257 0.005-0.075 0.037-0.126 0.062-0.164 0.078-0.388 0.177-1.582 0.722-2.333-0.029zM31.454 1.466c0-0.231-0.118-0.508-0.45-0.593-0.211-0.054-0.425-0.001-0.615 0.156l-4.701 3.697c-0.143 0.085-0.25 0.22-0.299 0.379l-0.082 0.261c-0.077 0.245-0.215 0.469-0.4 0.648l-14.712 14.307 1.073 1.073 14.874-15.183c0.317-0.317 0.739-0.492 1.187-0.492 0.247 0 0.495 0.056 0.717 0.161 0.119 0.056 0.262 0.018 0.327-0.085l1.775-3.147c0.143-0.254 0.387-0.44 0.669-0.511l0.152-0.038c0.357-0.090 0.483-0.396 0.484-0.631zM7.9 26.323l-1.813-1.813 1.041-1.041 1.813 1.813-1.041 1.041zM7.9 25.551l0.268-0.268-1.040-1.040-0.268 0.268 1.040 1.040zM8.253 24.326l-1.813-1.813 1.041-1.041 1.813 1.813-1.041 1.041zM8.253 23.554l0.268-0.268-1.040-1.040-0.268 0.268 1.040 1.040zM9.644 28.501c0.048 0.423-0.257 0.806-0.68 0.854-0.029 0.003-0.058 0.005-0.087 0.005 0 0 0 0-0 0-0.393-0-0.722-0.295-0.766-0.685-0.023-0.205 0.035-0.406 0.163-0.568s0.312-0.263 0.517-0.286c0.029-0.003 0.058-0.005 0.087-0.005 0.393 0 0.722 0.295 0.766 0.685zM9.101 28.562c-0.013-0.114-0.109-0.2-0.224-0.2-0.009 0-0.017 0-0.026 0.001-0.060 0.007-0.114 0.036-0.151 0.084s-0.055 0.106-0.048 0.166c0.013 0.114 0.109 0.2 0.224 0.2 0 0 0 0 0 0 0.009 0 0.017-0 0.026-0.001 0.124-0.014 0.213-0.126 0.199-0.25zM8.368 29.877c0.048 0.423-0.257 0.806-0.68 0.854-0.029 0.003-0.058 0.005-0.087 0.005 0 0 0 0-0 0-0.393 0-0.722-0.295-0.766-0.685-0.023-0.205 0.035-0.406 0.163-0.568s0.312-0.263 0.517-0.286c0.029-0.003 0.058-0.005 0.087-0.005 0.393 0 0.722 0.295 0.766 0.685zM7.825 29.938c-0.013-0.114-0.109-0.2-0.224-0.2-0.009 0-0.017 0-0.026 0.001-0.060 0.007-0.114 0.036-0.151 0.084s-0.055 0.106-0.048 0.166c0.013 0.114 0.109 0.2 0.224 0.2 0.009 0 0.017-0 0.026-0.001 0.124-0.014 0.213-0.126 0.199-0.25z"></path>
</svg>
