<!-- Generated by IcoMoon.io -->
<svg version="1.1" xmlns="http://www.w3.org/2000/svg" width="32" height="32" viewBox="0 0 32 32">
<title>8</title>
<path fill="#00000c" d="M8.86 32c-0.295 0-0.59-0.112-0.815-0.337l-7.709-7.709c-0.449-0.449-0.449-1.18 0-1.629l21.988-21.988c0.218-0.218 0.507-0.337 0.815-0.337s0.597 0.12 0.814 0.337l7.709 7.709c0.449 0.449 0.449 1.18 0 1.629l-21.988 21.988c-0.225 0.224-0.52 0.337-0.815 0.337zM0.886 23.405l7.709 7.709c0.146 0.146 0.384 0.146 0.53 0l21.988-21.988c0.146-0.146 0.146-0.384 0-0.53l-7.709-7.709c-0.071-0.071-0.165-0.11-0.265-0.11s-0.194 0.039-0.265 0.11l-21.988 21.988c-0.146 0.146-0.146 0.384 0 0.53v0z"></path>
<path fill="#00000c" d="M7.086 30.543c-0.099 0-0.199-0.038-0.275-0.114-0.152-0.152-0.152-0.398 0-0.549l23.067-23.068c0.152-0.152 0.398-0.152 0.549 0s0.152 0.398 0 0.549l-23.067 23.067c-0.076 0.076-0.175 0.114-0.275 0.114z"></path>
<path fill="#00000c" d="M6.481 25c-0.331 0-0.652-0.132-0.887-0.367-0.253-0.253-0.386-0.602-0.365-0.959l0.134-2.338c0.032-0.564 0.27-1.094 0.669-1.494l13.81-13.81c0.399-0.399 0.93-0.637 1.494-0.669l2.338-0.134c0.356-0.020 0.706 0.113 0.959 0.365s0.386 0.602 0.365 0.959l-0.134 2.339c-0.032 0.564-0.27 1.094-0.669 1.494l-13.81 13.81c-0.399 0.399-0.93 0.637-1.494 0.669l-2.338 0.134c-0.024 0.001-0.048 0.002-0.071 0.002zM20.39 6.581l-13.81 13.81c-0.264 0.264-0.422 0.615-0.443 0.989l-0.134 2.338c-0.008 0.138 0.042 0.267 0.139 0.365s0.227 0.147 0.365 0.139l2.338-0.134c0.373-0.021 0.724-0.179 0.989-0.443l13.81-13.81c0.264-0.264 0.422-0.615 0.443-0.989l0.134-2.338c0.008-0.138-0.042-0.267-0.139-0.365s-0.228-0.146-0.365-0.139l-2.338 0.134c-0.373 0.021-0.725 0.179-0.989 0.443v0z"></path>
<path fill="#00000c" d="M11.167 30.010c-0.099 0-0.199-0.038-0.275-0.114l-1.774-1.774c-0.152-0.152-0.152-0.398 0-0.549s0.398-0.152 0.549 0l1.774 1.774c0.152 0.152 0.152 0.398 0 0.549-0.076 0.076-0.175 0.114-0.275 0.114z"></path>
<path fill="#00000c" d="M13.474 27.703c-0.099 0-0.199-0.038-0.275-0.114l-1.774-1.774c-0.152-0.152-0.152-0.398 0-0.549s0.398-0.152 0.549 0l1.774 1.774c0.152 0.152 0.152 0.398 0 0.549-0.076 0.076-0.175 0.114-0.275 0.114z"></path>
<path fill="#00000c" d="M15.781 25.396c-0.099 0-0.199-0.038-0.275-0.114l-1.774-1.774c-0.152-0.152-0.152-0.398 0-0.549s0.398-0.152 0.549 0l1.774 1.774c0.152 0.152 0.152 0.398 0 0.549-0.076 0.076-0.175 0.114-0.275 0.114z"></path>
<path fill="#00000c" d="M18.087 23.090c-0.099 0-0.199-0.038-0.275-0.114l-1.774-1.774c-0.152-0.152-0.152-0.398 0-0.549s0.398-0.152 0.549 0l1.774 1.774c0.152 0.152 0.152 0.398 0 0.549-0.076 0.076-0.175 0.114-0.275 0.114z"></path>
<path fill="#00000c" d="M20.394 20.783c-0.099 0-0.199-0.038-0.275-0.114l-1.774-1.774c-0.152-0.152-0.152-0.398 0-0.549s0.398-0.152 0.549 0l1.774 1.774c0.152 0.152 0.152 0.398 0 0.549-0.076 0.076-0.175 0.114-0.275 0.114z"></path>
<path fill="#00000c" d="M22.701 18.476c-0.099 0-0.199-0.038-0.275-0.114l-1.774-1.774c-0.152-0.152-0.152-0.398 0-0.549s0.398-0.152 0.549 0l1.774 1.774c0.152 0.152 0.152 0.398 0 0.549-0.076 0.076-0.175 0.114-0.275 0.114z"></path>
<path fill="#00000c" d="M25.008 16.17c-0.099 0-0.199-0.038-0.275-0.114l-1.774-1.774c-0.152-0.152-0.152-0.398 0-0.549s0.398-0.152 0.549 0l1.774 1.774c0.152 0.152 0.152 0.398 0 0.549-0.076 0.076-0.175 0.114-0.275 0.114z"></path>
<path fill="#00000c" d="M27.314 13.863c-0.099 0-0.199-0.038-0.275-0.114l-1.774-1.774c-0.152-0.152-0.152-0.398 0-0.549s0.398-0.152 0.549 0l1.774 1.774c0.152 0.152 0.152 0.398 0 0.549-0.076 0.076-0.175 0.114-0.275 0.114z"></path>
<path fill="#00000c" d="M29.621 11.556c-0.099 0-0.199-0.038-0.275-0.114l-1.774-1.774c-0.152-0.152-0.152-0.398 0-0.549s0.398-0.152 0.549 0l1.774 1.774c0.152 0.152 0.152 0.398 0 0.549-0.076 0.076-0.175 0.114-0.275 0.114z"></path>
</svg>
