<!-- Generated by IcoMoon.io -->
<svg version="1.1" xmlns="http://www.w3.org/2000/svg" width="29" height="32" viewBox="0 0 29 32">
<title>9</title>
<path fill="#00000c" d="M25.43 32h-21.884c-0.232 0-0.42-0.188-0.42-0.42v-6.58h-0.598c-0.232 0-0.42-0.188-0.42-0.42v-5.265c0-0.232 0.188-0.42 0.42-0.42h0.598v-1.679c0-0.232 0.188-0.42 0.42-0.42h21.884c0.232 0 0.42 0.188 0.42 0.42v1.679h0.598c0.232 0 0.42 0.188 0.42 0.42v5.265c0 0.232-0.188 0.42-0.42 0.42h-0.598v6.58c-0 0.232-0.188 0.42-0.421 0.42zM3.967 31.159h21.043v-6.58c0-0.232 0.188-0.42 0.42-0.42h0.598v-4.425h-0.598c-0.232 0-0.42-0.188-0.42-0.42v-1.679h-21.043v1.679c0 0.232-0.188 0.42-0.42 0.42h-0.598v4.425h0.598c0.232 0 0.42 0.188 0.42 0.42v6.58z"></path>
<path fill="#00000c" d="M5.655 32h-2.108c-0.232 0-0.42-0.188-0.42-0.42v-7.001c0-0.232 0.188-0.42 0.42-0.42h2.108c0.232 0 0.42 0.188 0.42 0.42v7.001c0 0.232-0.188 0.42-0.42 0.42zM3.967 31.159h1.267v-6.16h-1.267v6.16z"></path>
<path fill="#00000c" d="M25.43 32h-2.108c-0.232 0-0.42-0.188-0.42-0.42v-7.001c0-0.232 0.188-0.42 0.42-0.42h2.108c0.232 0 0.42 0.188 0.42 0.42v7.001c0 0.232-0.188 0.42-0.42 0.42zM23.743 31.159h1.267v-6.16h-1.267v6.16z"></path>
<path fill="#00000c" d="M26.449 24.999h-23.921c-0.232 0-0.42-0.188-0.42-0.42v-5.265c0-0.232 0.188-0.42 0.42-0.42h4.145c0.232 0 0.42 0.188 0.42 0.42v1.949h14.791v-1.949c0-0.232 0.188-0.42 0.42-0.42h4.145c0.232 0 0.42 0.188 0.42 0.42v5.265c0 0.232-0.188 0.42-0.42 0.42zM2.948 24.159h23.080v-4.425h-3.304v1.949c0 0.232-0.188 0.42-0.42 0.42h-15.631c-0.232 0-0.42-0.188-0.42-0.42v-1.949h-3.304v4.425z"></path>
<path fill="#00000c" d="M19.178 32h-9.379c-0.232 0-0.42-0.188-0.42-0.42v-4.845c0-0.232 0.188-0.42 0.42-0.42h9.379c0.232 0 0.42 0.188 0.42 0.42v4.845c0 0.232-0.188 0.42-0.42 0.42zM10.219 31.159h8.538v-4.004h-8.538v4.004z"></path>
<path fill="#00000c" d="M3.547 32h-3.126c-0.232 0-0.42-0.188-0.42-0.42v-21.704c0-0.566 0.46-1.026 1.026-1.026h1.914c0.566 0 1.026 0.46 1.026 1.026v9.438c0 0.232-0.188 0.42-0.42 0.42h-0.598v4.425h0.598c0.232 0 0.42 0.188 0.42 0.42v7.001c0 0.232-0.188 0.42-0.42 0.42zM0.841 31.159h2.286v-6.16h-0.598c-0.232 0-0.42-0.188-0.42-0.42v-5.266c0-0.232 0.188-0.42 0.42-0.42h0.598v-9.017c0-0.102-0.083-0.186-0.186-0.186h-1.914c-0.102 0-0.186 0.083-0.186 0.186v21.283z"></path>
<path fill="#00000c" d="M16.052 17.635h-3.126c-0.232 0-0.42-0.188-0.42-0.42v-7.338c0-0.566 0.46-1.026 1.026-1.026h1.914c0.566 0 1.026 0.46 1.026 1.026v7.338c0 0.232-0.188 0.42-0.42 0.42zM13.346 16.794h2.286v-6.918c0-0.102-0.083-0.186-0.186-0.186h-1.914c-0.102 0-0.185 0.083-0.185 0.186v6.918z"></path>
<path fill="#00000c" d="M9.799 17.635h-3.126c-0.232 0-0.42-0.188-0.42-0.42v-16.188c0-0.566 0.46-1.026 1.026-1.026h1.914c0.566 0 1.026 0.46 1.026 1.026v16.188c0 0.232-0.188 0.42-0.42 0.42zM7.093 16.794h2.286v-15.768c0-0.102-0.083-0.186-0.185-0.186h-1.914c-0.102 0-0.185 0.083-0.185 0.186v15.768z"></path>
<path fill="#00000c" d="M22.304 17.635h-3.126c-0.232 0-0.42-0.188-0.42-0.42v-16.188c0-0.566 0.46-1.026 1.026-1.026h1.914c0.566 0 1.026 0.46 1.026 1.026v16.188c0 0.232-0.188 0.42-0.42 0.42zM19.598 16.794h2.286v-15.768c0-0.102-0.083-0.186-0.185-0.186h-1.914c-0.102 0-0.186 0.083-0.186 0.186v15.768z"></path>
<path fill="#00000c" d="M6.673 17.635h-3.126c-0.232 0-0.42-0.188-0.42-0.42v-11.763c0-0.566 0.46-1.026 1.026-1.026h1.914c0.566 0 1.026 0.46 1.026 1.026v11.763c0 0.232-0.188 0.42-0.42 0.42zM3.967 16.794h2.286v-11.343c0-0.102-0.083-0.185-0.185-0.185h-1.914c-0.102 0-0.185 0.083-0.185 0.185v11.343z"></path>
<path fill="#00000c" d="M12.926 17.635h-3.126c-0.232 0-0.42-0.188-0.42-0.42v-11.763c0-0.566 0.46-1.026 1.026-1.026h1.914c0.566 0 1.026 0.46 1.026 1.026v11.763c0 0.232-0.188 0.42-0.42 0.42zM10.219 16.794h2.286v-11.343c0-0.102-0.083-0.185-0.186-0.185h-1.914c-0.102 0-0.185 0.083-0.185 0.185v11.343z"></path>
<path fill="#00000c" d="M19.178 17.635h-3.126c-0.232 0-0.42-0.188-0.42-0.42v-11.763c0-0.566 0.46-1.026 1.026-1.026h1.914c0.566 0 1.026 0.46 1.026 1.026v11.763c0 0.232-0.188 0.42-0.42 0.42zM16.472 16.794h2.286v-11.343c0-0.102-0.083-0.185-0.185-0.185h-1.915c-0.102 0-0.185 0.083-0.185 0.185v11.343z"></path>
<path fill="#00000c" d="M25.43 17.635h-3.126c-0.232 0-0.42-0.188-0.42-0.42v-11.763c0-0.566 0.46-1.026 1.026-1.026h1.914c0.566 0 1.026 0.46 1.026 1.026v11.763c0 0.232-0.188 0.42-0.42 0.42zM22.725 16.794h2.286v-11.343c0-0.102-0.083-0.185-0.185-0.185h-1.914c-0.102 0-0.186 0.083-0.186 0.185v11.343z"></path>
<path fill="#00000c" d="M28.557 32h-3.126c-0.232 0-0.42-0.188-0.42-0.42v-7.001c0-0.232 0.188-0.42 0.42-0.42h0.598v-4.425h-0.598c-0.232 0-0.42-0.188-0.42-0.42v-9.438c0-0.566 0.46-1.026 1.026-1.026h1.914c0.566 0 1.026 0.46 1.026 1.026v21.704c0 0.232-0.188 0.42-0.42 0.42zM25.851 31.159h2.286v-21.283c0-0.102-0.083-0.186-0.185-0.186h-1.914c-0.102 0-0.185 0.083-0.185 0.186v9.017h0.598c0.232 0 0.42 0.188 0.42 0.42v5.265c0 0.232-0.188 0.42-0.42 0.42h-0.598v6.16z"></path>
</svg>
