<?xml version='1.0' encoding='utf-8'?>
<svg xmlns="http://www.w3.org/2000/svg" width="1490" height="1490" viewBox="0 0 394.229 394.229">
    <path style="mix-blend-mode:normal" fill="transparent" paint-order="stroke markers fill"
        d="M0 0h394.229v394.229H-.001z" />
    <g style="mix-blend-mode:normal">
        <path
            d="M51.765 204.174L32.553 215.31l9.165 5.291 4.584-2.645 165.009 95.27-4.588 2.61 9.165 5.291 146.65-84.628-9.14-5.308-4.61 2.662-4.508-2.69z"
            opacity=".25" />
        <path d="M179.2 88.309L32.554 172.975v26.46l9.164 5.29 146.647-84.666V93.6z" fill="#a25117" />
        <path d="M183.783 96.246L46.3 175.621v26.458l164.977 95.25 137.482-79.374v-26.459z"
            fill="#ccc5c8" />
        <path d="M183.782 96.246l164.978 95.25-137.481 79.375L46.3 175.621z" fill="#f0eeef" />
        <path d="M179.2 88.309L32.553 172.975l9.165 5.292L188.365 93.6z" fill="#d2691e" />
        <path d="M206.696 135.934l36.662 21.167-27.497 15.875-36.661-21.167z" fill="#ccc5c8" />
        <path d="M133.373 157.1l128.316 74.084-59.576 34.396-128.316-74.084z" fill="#fbfbfb" />
        <path d="M353.343 188.85l-146.647 84.667v26.458l9.165 5.292L362.509 220.6v-26.458z"
            fill="#a25117" />
        <path d="M353.343 188.85l-146.647 84.667 9.165 5.292 146.648-84.667z" fill="#d2691e" />
        <path style="font-variation-settings:normal"
            d="M170.035 108.834c-5.157 0-10.103 1.182-13.749 3.287-3.646 2.105-5.695 4.96-5.695 7.938 0 .043.005.086.006.129 0 .043-.006.086-.006.13 0 .042.005.085.006.128 0 .043-.006.086-.006.129 0 .043.005.086.006.13 0 .042-.006.085-.006.128 0 .044.005.086.006.13 0 .042-.006.085-.006.128s.005.086.006.13c0 .043-.006.085-.006.129 0 .043.005.085.006.128 0 .043-.006.086-.006.13 0 .043.005.086.006.129 0 .043-.006.086-.006.129 0 .043.005.086.006.129 0 .043-.006.086-.006.129 0 .043.005.086.006.129 0 .043-.006.086-.006.13 0 .042.005.085.006.128 0 .043-.006.086-.006.129 0 .043.005.086.006.13 0 .042-.006.085-.006.128 0 .044.005.086.006.13 0 .042-.006.085-.006.128 0 .044.005.087.006.13 0 .043-.006.086-.006.129 0 .043.005.085.006.128 0 .043-.006.086-.006.13 0 .043.005.086.006.129 0 .043-.006.086-.006.129 0 .043.005.086.006.129 0 .043-.006.086-.006.129 0 .043.005.086.006.13 0 .042-.006.085-.006.128s.005.086.006.129c0 .043-.006.086-.006.129 0 .044.005.086.006.13 0 .042-.006.085-.006.128 0 .044.005.086.006.13 0 .043-.006.086-.006.129 0 .043.005.086.006.129 0 .043-.006.086-.006.129 0 .043.005.086.006.129 0 .043-.006.085-.006.128v.001c0 .043.005.086.006.129 0 .043-.006.086-.006.129 0 .044.005.087.006.13 0 .043-.006.086-.006.128 0 .044.005.087.006.13 0 .043-.006.085-.006.128 0 .044.005.087.006.13 0 .043-.006.086-.006.128 0 .044.005.087.006.13 0 .043-.006.086-.006.128 0 .044.005.088.006.131 0 .043-.006.085-.006.128s.005.087.006.13c0 .043-.006.085-.006.128 0 .044.005.087.006.13 0 .043-.006.085-.006.128 0 .044.005.087.006.13 0 .043-.006.085-.006.128 0 .044.005.087.006.13 0 .043-.006.086-.006.128 0 .044.005.087.006.13 0 .043-.006.086-.006.128 0 .044.005.087.006.131 0 .043-.006.085-.006.128s.005.086.006.13c0 .042-.006.085-.006.127v.001c0 .044.005.087.006.13 0 .043-.006.085-.006.128 0 .044.005.087.006.13 0 .043-.006.085-.006.128 0 .044.005.087.006.13 0 .043-.006.085-.006.128 0 .044.005.087.006.13 0 .043-.006.086-.006.128 0 .044.005.087.006.13 0 .043-.006.086-.006.128 0 .044.005.088.006.131 0 .043-.006.085-.006.127 0 2.978 2.049 5.833 5.695 7.938 3.646 2.105 8.591 3.288 13.748 3.288s10.102-1.183 13.749-3.288c3.646-2.105 5.694-4.96 5.694-7.937 0-.043-.004-.086-.005-.129 0-.043.005-.086.005-.129 0-.043-.004-.086-.005-.129 0-.043.005-.086.005-.129 0-.043-.004-.086-.005-.13 0-.042.005-.085.005-.128 0-.044-.004-.086-.005-.13 0-.043.005-.085.005-.128 0-.044-.004-.086-.005-.13 0-.043.005-.085.005-.129 0-.043-.004-.086-.005-.129 0-.043.005-.085.005-.128v-.001c0-.043-.004-.086-.005-.129 0-.043.005-.086.005-.129 0-.043-.004-.086-.005-.13 0-.042.005-.085.005-.128s-.004-.086-.005-.13c0-.042.005-.085.005-.128 0-.044-.004-.086-.005-.13 0-.042.005-.085.005-.128 0-.044-.004-.086-.005-.13 0-.042.005-.085.005-.128 0-.044-.004-.087-.005-.13 0-.043.005-.085.005-.128 0-.044-.004-.087-.005-.13 0-.043.005-.086.005-.129 0-.043-.004-.086-.005-.129 0-.043.005-.086.005-.13 0-.042-.004-.085-.005-.128 0-.043.005-.086.005-.129 0-.043-.004-.086-.005-.13 0-.042.005-.085.005-.128s-.004-.086-.005-.13c0-.043.005-.085.005-.128 0-.044-.004-.087-.005-.13 0-.043.005-.086.005-.129 0-.043-.004-.085-.005-.128 0-.043.005-.086.005-.13 0-.043-.004-.086-.005-.129 0-.043.005-.086.005-.129 0-.043-.004-.086-.005-.13 0-.042.005-.085.005-.128s-.004-.086-.005-.13c0-.042.005-.085.005-.128 0-.044-.004-.087-.005-.13 0-.043.005-.085.005-.129 0-.043-.004-.085-.005-.128 0-.043.005-.086.005-.13 0-.043-.004-.086-.005-.129 0-.043.005-.086.005-.129 0-.043-.004-.086-.005-.129 0-.043.005-.086.005-.129 0-.043-.004-.086-.005-.13 0-.042.005-.085.005-.128s-.004-.086-.005-.129c0-.043.005-.086.005-.129 0-.043-.004-.086-.005-.13 0-.042.005-.085.005-.128s-.004-.086-.005-.13c0-.043.005-.086.005-.129 0-.043-.004-.086-.005-.129 0-.043.005-.086.005-.129 0-.043-.004-.086-.005-.129 0-.043.005-.086.005-.129 0-.043-.004-.086-.005-.129 0-.043.005-.086.005-.129 0-.043-.004-.086-.005-.129 0-.043.005-.086.005-.13 0-.042-.004-.085-.005-.128 0-.043.005-.086.005-.129 0-.044-.004-.087-.005-.13 0-.043.005-.085.005-.128 0-.044-.004-.086-.005-.13 0-.043.005-.086.005-.129 0-.043-.004-.086-.005-.128 0-.044.005-.086.005-.13 0-.043-.004-.086-.005-.129 0-.043.005-.086.005-.13 0-.042-.004-.085-.005-.128 0-.043.005-.086.005-.129 0-.043-.004-.086-.005-.13 0-.042.005-.085.005-.128 0-2.977-2.048-5.833-5.694-7.938-3.647-2.105-8.592-3.287-13.748-3.287z"
            fill="#3f3f3f" paint-order="stroke markers fill" />
        <path style="font-variation-settings:normal"
            d="M183.782 127.996a19.443 11.225 0 01-27.496 0 19.443 11.225 0 010-15.875 19.443 11.225 0 0127.496 0 19.443 11.225 0 010 15.875z"
            fill="#565656" paint-order="stroke markers fill" />
        <path
            style="line-height:normal;font-variant-ligatures:normal;font-variant-position:normal;font-variant-caps:normal;font-variant-numeric:normal;font-variant-alternates:normal;font-variant-east-asian:normal;font-feature-settings:normal;font-variation-settings:normal;text-indent:0;text-align:start;text-decoration-line:none;text-decoration-style:solid;text-decoration-color:#000;text-transform:none;text-orientation:mixed;white-space:normal;shape-padding:0;shape-margin:0;inline-size:0;isolation:auto;mix-blend-mode:normal;solid-color:#000;solid-opacity:1"
            d="M174.617 117.413c-2.531 1.461-6.634 1.461-9.165 0-2.531-1.461-2.531-3.83 0-5.292 2.53-1.46 6.634-1.46 9.165 0 2.531 1.462 2.531 3.83 0 5.292z"
            color="#000" font-weight="400" font-family="sans-serif" overflow="visible"
            fill="#3f3f3f" paint-order="stroke markers fill" />
        <path
            style="line-height:normal;font-variant-ligatures:normal;font-variant-position:normal;font-variant-caps:normal;font-variant-numeric:normal;font-variant-alternates:normal;font-variant-east-asian:normal;font-feature-settings:normal;font-variation-settings:normal;text-indent:0;text-align:start;text-decoration-line:none;text-decoration-style:solid;text-decoration-color:#000;text-transform:none;text-orientation:mixed;white-space:normal;shape-padding:0;shape-margin:0;inline-size:0;isolation:auto;mix-blend-mode:normal;solid-color:#000;solid-opacity:1"
            d="M174.617 117.79c-2.531.959-6.634.959-9.165 0-2.531-.96-2.531-2.516 0-3.475 2.53-.96 6.634-.96 9.165 0 2.531.96 2.531 2.515 0 3.474z"
            color="#000" font-weight="400" font-family="sans-serif" overflow="visible" fill="#777"
            paint-order="stroke markers fill" />
        <path
            d="M84.94 160.506c-2.176.028-5.434 1.196-8.873 3.181-3.04 1.755-5.954 3.995-8.103 6.227v.001c-2.15 2.232-3.356 5.676-3.356 5.676v.014l9.147 5.29v.014l22.917-13.231v-.015c0-.72-.321-1.242-.927-1.546a1.94 1.94 0 00-.22-.127c-2.9-1.683-5.803-3.364-8.704-5.047-.436-.296-1.068-.447-1.881-.437z"
            fill="#565656" paint-order="stroke markers fill" />
        <path
            d="M94.087 165.81a4.48 13.526 55.726 00-8.874 3.182 4.48 13.526 55.726 00-11.458 11.903 4.48 13.526 55.726 000 .014l22.917-13.231a4.48 13.526 55.726 000-.015 4.48 13.526 55.726 00-2.585-1.853z"
            fill="#3f3f3f" paint-order="stroke markers fill" />
        <path
            d="M112.46 144.631c-2.175.028-5.433 1.196-8.872 3.181-3.04 1.755-5.954 3.995-8.103 6.227v.001c-2.15 2.232-3.356 5.676-3.356 5.676v.014l9.146 5.29v.014h.001l22.917-13.231v-.015c0-.72-.321-1.242-.928-1.546a1.94 1.94 0 00-.22-.127c-2.9-1.683-5.802-3.364-8.703-5.047-.437-.296-1.068-.447-1.881-.437z"
            fill="#565656" paint-order="stroke markers fill" />
        <path
            d="M121.608 149.935a4.48 13.526 55.726 00-8.874 3.182 4.48 13.526 55.726 00-11.458 11.903 4.48 13.526 55.726 000 .014l22.917-13.231a4.48 13.526 55.726 000-.015 4.48 13.526 55.726 00-2.585-1.853z"
            fill="#3f3f3f" paint-order="stroke markers fill" />
        <path
            style="line-height:normal;font-variant-ligatures:normal;font-variant-position:normal;font-variant-caps:normal;font-variant-numeric:normal;font-variant-alternates:normal;font-variant-east-asian:normal;font-feature-settings:normal;font-variation-settings:normal;text-indent:0;text-align:start;text-decoration-line:none;text-decoration-style:solid;text-decoration-color:#000;text-transform:none;text-orientation:mixed;white-space:normal;shape-padding:0;shape-margin:0;inline-size:0;isolation:auto;mix-blend-mode:normal;solid-color:#000;solid-opacity:1"
            d="M252.524 153.358c-1.659 0-3.317.365-4.583 1.096v.001c-1.323.763-1.953 1.775-1.893 2.775a2.218 2.218 0 000 .257 2.227 2.227 0 000 .259 2.218 2.218 0 000 .258 2.218 2.218 0 000 .257 2.227 2.227 0 000 .259 2.227 2.227 0 000 .258 2.227 2.227 0 000 .259 2.227 2.227 0 000 .258 2.21 2.21 0 000 .257 2.227 2.227 0 000 .259 2.218 2.218 0 000 .258 2.218 2.218 0 000 .257 2.227 2.227 0 000 .259 2.227 2.227 0 000 .258 2.227 2.227 0 000 .259 2.227 2.227 0 000 .258 2.21 2.21 0 000 .257 2.227 2.227 0 000 .259 2.227 2.227 0 000 .258 2.218 2.218 0 000 .258 2.227 2.227 0 000 .258 2.218 2.218 0 000 .258 2.227 2.227 0 000 .259 2.227 2.227 0 000 .258 2.21 2.21 0 000 .257 2.227 2.227 0 000 .259 2.227 2.227 0 000 .258 2.227 2.227 0 000 .258 2.218 2.218 0 000 .258 2.218 2.218 0 000 .258 2.227 2.227 0 000 .259 2.227 2.227 0 000 .258 2.21 2.21 0 000 .257 2.227 2.227 0 000 .259 2.227 2.227 0 000 .258 2.227 2.227 0 000 .258 2.227 2.227 0 000 .259 2.21 2.21 0 000 .257 2.227 2.227 0 000 .259 2.227 2.227 0 000 .258c-.06 1 .57 2.011 1.892 2.775 2.531 1.461 6.635 1.461 9.166 0 1.323-.764 1.952-1.775 1.893-2.775a2.227 2.227 0 000-.258 2.227 2.227 0 000-.259 2.21 2.21 0 000-.257 2.227 2.227 0 000-.259 2.227 2.227 0 000-.258 2.227 2.227 0 000-.258 2.227 2.227 0 000-.259 2.21 2.21 0 000-.257 2.227 2.227 0 000-.258 2.227 2.227 0 000-.259 2.21 2.21 0 000-.257 2.227 2.227 0 000-.259 2.227 2.227 0 000-.258 2.227 2.227 0 000-.258 2.227 2.227 0 000-.259 2.21 2.21 0 000-.257 2.227 2.227 0 000-.258 2.227 2.227 0 000-.259 2.21 2.21 0 000-.257 2.227 2.227 0 000-.259 2.227 2.227 0 000-.258 2.227 2.227 0 000-.258 2.227 2.227 0 000-.259 2.21 2.21 0 000-.257 2.227 2.227 0 000-.258 2.227 2.227 0 000-.259 2.21 2.21 0 000-.257 2.227 2.227 0 000-.258 2.227 2.227 0 000-.259 2.227 2.227 0 000-.258 2.227 2.227 0 000-.259 2.21 2.21 0 000-.257 2.227 2.227 0 000-.258 2.227 2.227 0 000-.259 2.21 2.21 0 000-.257 2.227 2.227 0 000-.258 2.308 2.308 0 000-.264c.005-.084.004-.169 0-.253a2.227 2.227 0 000-.259 2.218 2.218 0 000-.257c.06-1-.57-2.012-1.893-2.775-1.265-.731-2.924-1.096-4.582-1.097z"
            color="#000" font-weight="400" font-family="sans-serif" overflow="visible"
            fill="#3f3f3f" paint-order="stroke markers fill" />
        <path
            style="line-height:normal;font-variant-ligatures:normal;font-variant-position:normal;font-variant-caps:normal;font-variant-numeric:normal;font-variant-alternates:normal;font-variant-east-asian:normal;font-feature-settings:normal;font-variation-settings:normal;text-indent:0;text-align:start;text-decoration-line:none;text-decoration-style:solid;text-decoration-color:#000;text-transform:none;text-orientation:mixed;white-space:normal;shape-padding:0;shape-margin:0;inline-size:0;isolation:auto;mix-blend-mode:normal;solid-color:#000;solid-opacity:1"
            d="M257.106 159.746c-2.531 1.462-6.635 1.462-9.166 0-2.53-1.46-2.53-3.83 0-5.291 2.531-1.462 6.635-1.462 9.166 0 2.53 1.46 2.53 3.83 0 5.291z"
            color="#000" font-weight="400" font-family="sans-serif" overflow="visible"
            fill="#565656" paint-order="stroke markers fill" />
        <path d="M206.695 141.204l32.084 18.524-22.918 13.248-32.052-18.56z" fill="#6bb7d6" />
        <path
            style="line-height:normal;font-variant-ligatures:normal;font-variant-position:normal;font-variant-caps:normal;font-variant-numeric:normal;font-variant-alternates:normal;font-variant-east-asian:normal;font-feature-settings:normal;font-variation-settings:normal;text-indent:0;text-align:start;text-decoration-line:none;text-decoration-style:solid;text-decoration-color:#000;text-transform:none;text-orientation:mixed;white-space:normal;shape-padding:0;shape-margin:0;inline-size:0;isolation:auto;mix-blend-mode:normal;solid-color:#000;solid-opacity:1"
            d="M270.826 163.904c-1.658 0-3.317.365-4.582 1.095l-.001.001c-1.322.764-1.952 1.775-1.893 2.775a2.218 2.218 0 000 .258 2.227 2.227 0 000 .258 2.218 2.218 0 000 .258 2.218 2.218 0 000 .258 2.227 2.227 0 000 .258 2.227 2.227 0 000 .259 2.227 2.227 0 000 .258 2.227 2.227 0 000 .259 2.21 2.21 0 000 .257 2.227 2.227 0 000 .258 2.218 2.218 0 000 .258 2.218 2.218 0 000 .258 2.227 2.227 0 000 .258 2.227 2.227 0 000 .259 2.227 2.227 0 000 .258 2.227 2.227 0 000 .259 2.21 2.21 0 000 .257 2.227 2.227 0 000 .258 2.227 2.227 0 000 .259 2.218 2.218 0 000 .257 2.227 2.227 0 000 .259 2.218 2.218 0 000 .258 2.227 2.227 0 000 .258 2.227 2.227 0 000 .258 2.21 2.21 0 000 .258 2.227 2.227 0 000 .258 2.227 2.227 0 000 .259 2.227 2.227 0 000 .258 2.218 2.218 0 000 .258 2.218 2.218 0 000 .258 2.227 2.227 0 000 .258 2.227 2.227 0 000 .258 2.21 2.21 0 000 .258 2.227 2.227 0 000 .258 2.227 2.227 0 000 .259 2.227 2.227 0 000 .258 2.227 2.227 0 000 .258 2.21 2.21 0 000 .258 2.227 2.227 0 000 .258 2.227 2.227 0 000 .258c-.06 1 .57 2.012 1.893 2.775 2.531 1.461 6.635 1.461 9.166 0 1.322-.763 1.952-1.774 1.893-2.775a2.227 2.227 0 000-.258 2.227 2.227 0 000-.258 2.21 2.21 0 000-.258 2.227 2.227 0 000-.258 2.227 2.227 0 000-.258 2.227 2.227 0 000-.259 2.227 2.227 0 000-.258 2.21 2.21 0 000-.258 2.227 2.227 0 000-.258 2.227 2.227 0 000-.258 2.21 2.21 0 000-.258 2.227 2.227 0 000-.258 2.227 2.227 0 000-.258 2.227 2.227 0 000-.259 2.227 2.227 0 000-.258 2.21 2.21 0 000-.258 2.227 2.227 0 000-.258 2.227 2.227 0 000-.258 2.21 2.21 0 000-.258 2.227 2.227 0 000-.258 2.227 2.227 0 000-.258 2.227 2.227 0 000-.259 2.227 2.227 0 000-.258 2.21 2.21 0 000-.257 2.227 2.227 0 000-.259 2.227 2.227 0 000-.258 2.21 2.21 0 000-.258 2.227 2.227 0 000-.258 2.227 2.227 0 000-.258 2.227 2.227 0 000-.259 2.227 2.227 0 000-.258 2.21 2.21 0 000-.257 2.227 2.227 0 000-.259 2.227 2.227 0 000-.258 2.21 2.21 0 000-.258 2.227 2.227 0 000-.258 2.308 2.308 0 000-.263c.005-.085.004-.17 0-.254a2.227 2.227 0 000-.258 2.218 2.218 0 000-.258c.059-1-.57-2.011-1.893-2.775-1.266-.73-2.924-1.096-4.583-1.096z"
            color="#000" font-weight="400" font-family="sans-serif" overflow="visible"
            fill="#3f3f3f" paint-order="stroke markers fill" />
        <path
            style="line-height:normal;font-variant-ligatures:normal;font-variant-position:normal;font-variant-caps:normal;font-variant-numeric:normal;font-variant-alternates:normal;font-variant-east-asian:normal;font-feature-settings:normal;font-variation-settings:normal;text-indent:0;text-align:start;text-decoration-line:none;text-decoration-style:solid;text-decoration-color:#000;text-transform:none;text-orientation:mixed;white-space:normal;shape-padding:0;shape-margin:0;inline-size:0;isolation:auto;mix-blend-mode:normal;solid-color:#000;solid-opacity:1"
            d="M275.408 170.292c-2.53 1.461-6.634 1.461-9.165 0-2.531-1.461-2.531-3.83 0-5.292 2.531-1.461 6.634-1.461 9.165 0 2.531 1.461 2.531 3.83 0 5.292z"
            color="#000" font-weight="400" font-family="sans-serif" overflow="visible"
            fill="#565656" paint-order="stroke markers fill" />
        <path
            style="line-height:normal;font-variant-ligatures:normal;font-variant-position:normal;font-variant-caps:normal;font-variant-numeric:normal;font-variant-alternates:normal;font-variant-east-asian:normal;font-feature-settings:normal;font-variation-settings:normal;text-indent:0;text-align:start;text-decoration-line:none;text-decoration-style:solid;text-decoration-color:#000;text-transform:none;text-orientation:mixed;white-space:normal;shape-padding:0;shape-margin:0;inline-size:0;isolation:auto;mix-blend-mode:normal;solid-color:#000;solid-opacity:1"
            d="M289.236 174.487c-1.658 0-3.316.365-4.582 1.096-1.323.764-1.953 1.775-1.894 2.775a2.218 2.218 0 000 .258 2.227 2.227 0 000 .259 2.218 2.218 0 000 .257 2.218 2.218 0 000 .258 2.227 2.227 0 000 .259 2.227 2.227 0 000 .258 2.227 2.227 0 000 .259 2.227 2.227 0 000 .258 2.21 2.21 0 000 .257 2.227 2.227 0 000 .259 2.218 2.218 0 000 .257 2.218 2.218 0 000 .258 2.227 2.227 0 000 .259 2.227 2.227 0 000 .258 2.227 2.227 0 000 .259 2.227 2.227 0 000 .258 2.21 2.21 0 000 .257 2.227 2.227 0 000 .259 2.227 2.227 0 000 .258 2.218 2.218 0 000 .258 2.227 2.227 0 000 .258 2.218 2.218 0 000 .258 2.227 2.227 0 000 .258 2.227 2.227 0 000 .259 2.21 2.21 0 000 .257 2.227 2.227 0 000 .259 2.227 2.227 0 000 .258 2.227 2.227 0 000 .258 2.218 2.218 0 000 .258 2.218 2.218 0 000 .258 2.227 2.227 0 000 .258 2.227 2.227 0 000 .259 2.21 2.21 0 000 .257 2.227 2.227 0 000 .259 2.227 2.227 0 000 .258 2.227 2.227 0 000 .258 2.227 2.227 0 000 .259 2.21 2.21 0 000 .257 2.227 2.227 0 000 .258 2.227 2.227 0 000 .259c-.059 1 .571 2.011 1.893 2.775 2.531 1.46 6.635 1.46 9.166 0 1.322-.764 1.952-1.775 1.893-2.775a2.227 2.227 0 000-.259 2.227 2.227 0 000-.258 2.21 2.21 0 000-.257 2.227 2.227 0 000-.259 2.227 2.227 0 000-.258 2.227 2.227 0 000-.258 2.227 2.227 0 000-.259 2.21 2.21 0 000-.257 2.227 2.227 0 000-.259 2.227 2.227 0 000-.258 2.21 2.21 0 000-.257 2.227 2.227 0 000-.259 2.227 2.227 0 000-.258 2.227 2.227 0 000-.258 2.227 2.227 0 000-.259 2.21 2.21 0 000-.257 2.227 2.227 0 000-.259 2.227 2.227 0 000-.258 2.21 2.21 0 000-.257 2.227 2.227 0 000-.259 2.227 2.227 0 000-.258 2.227 2.227 0 000-.258 2.227 2.227 0 000-.259 2.21 2.21 0 000-.257 2.227 2.227 0 000-.258 2.227 2.227 0 000-.259 2.21 2.21 0 000-.257 2.227 2.227 0 000-.259 2.227 2.227 0 000-.258 2.227 2.227 0 000-.258 2.227 2.227 0 000-.259 2.21 2.21 0 000-.257 2.227 2.227 0 000-.258 2.227 2.227 0 000-.259 2.21 2.21 0 000-.257 2.227 2.227 0 000-.259 2.308 2.308 0 000-.263c.005-.084.004-.169 0-.253a2.227 2.227 0 000-.259 2.218 2.218 0 000-.258c.059-1-.57-2.01-1.893-2.774-1.265-.731-2.924-1.097-4.583-1.097z"
            color="#000" font-weight="400" font-family="sans-serif" overflow="visible"
            fill="#3f3f3f" paint-order="stroke markers fill" />
        <path
            style="line-height:normal;font-variant-ligatures:normal;font-variant-position:normal;font-variant-caps:normal;font-variant-numeric:normal;font-variant-alternates:normal;font-variant-east-asian:normal;font-feature-settings:normal;font-variation-settings:normal;text-indent:0;text-align:start;text-decoration-line:none;text-decoration-style:solid;text-decoration-color:#000;text-transform:none;text-orientation:mixed;white-space:normal;shape-padding:0;shape-margin:0;inline-size:0;isolation:auto;mix-blend-mode:normal;solid-color:#000;solid-opacity:1"
            d="M293.819 180.875c-2.531 1.461-6.635 1.461-9.166 0-2.53-1.461-2.53-3.83 0-5.291 2.531-1.462 6.635-1.462 9.166 0 2.53 1.46 2.53 3.83 0 5.291z"
            color="#000" font-weight="400" font-family="sans-serif" overflow="visible"
            fill="#565656" paint-order="stroke markers fill" />
        <path
            style="line-height:normal;font-variant-ligatures:normal;font-variant-position:normal;font-variant-caps:normal;font-variant-numeric:normal;font-variant-alternates:normal;font-variant-east-asian:normal;font-feature-settings:normal;font-variation-settings:normal;text-indent:0;text-align:start;text-decoration-line:none;text-decoration-style:solid;text-decoration-color:#000;text-transform:none;text-orientation:mixed;white-space:normal;shape-padding:0;shape-margin:0;inline-size:0;isolation:auto;mix-blend-mode:normal;solid-color:#000;solid-opacity:1"
            d="M307.573 185.07c-1.658 0-3.317.366-4.582 1.096l-.001.001c-1.322.763-1.952 1.775-1.893 2.775a2.218 2.218 0 000 .258 2.227 2.227 0 000 .258 2.218 2.218 0 000 .258 2.218 2.218 0 000 .258 2.227 2.227 0 000 .258 2.227 2.227 0 000 .258 2.227 2.227 0 000 .259 2.227 2.227 0 000 .258 2.21 2.21 0 000 .258 2.227 2.227 0 000 .258 2.218 2.218 0 000 .258 2.218 2.218 0 000 .258 2.227 2.227 0 000 .258 2.227 2.227 0 000 .258 2.227 2.227 0 000 .259 2.227 2.227 0 000 .258 2.21 2.21 0 000 .258 2.227 2.227 0 000 .258 2.227 2.227 0 000 .258 2.218 2.218 0 000 .258 2.227 2.227 0 000 .259 2.218 2.218 0 000 .257 2.227 2.227 0 000 .259 2.227 2.227 0 000 .258 2.21 2.21 0 000 .258 2.227 2.227 0 000 .258 2.227 2.227 0 000 .258 2.227 2.227 0 000 .259 2.218 2.218 0 000 .258 2.218 2.218 0 000 .257 2.227 2.227 0 000 .259 2.227 2.227 0 000 .258 2.21 2.21 0 000 .258 2.227 2.227 0 000 .258 2.227 2.227 0 000 .258 2.227 2.227 0 000 .259 2.227 2.227 0 000 .258 2.21 2.21 0 000 .257 2.227 2.227 0 000 .259 2.227 2.227 0 000 .258c-.06 1 .57 2.011 1.893 2.775 2.53 1.461 6.635 1.461 9.166 0 1.322-.764 1.952-1.775 1.893-2.775a2.227 2.227 0 000-.258 2.227 2.227 0 000-.259 2.21 2.21 0 000-.257 2.227 2.227 0 000-.258 2.227 2.227 0 000-.259 2.227 2.227 0 000-.258 2.227 2.227 0 000-.258 2.21 2.21 0 000-.258 2.227 2.227 0 000-.258 2.227 2.227 0 000-.259 2.21 2.21 0 000-.257 2.227 2.227 0 000-.258 2.227 2.227 0 000-.259 2.227 2.227 0 000-.258 2.227 2.227 0 000-.258 2.21 2.21 0 000-.258 2.227 2.227 0 000-.258 2.227 2.227 0 000-.259 2.21 2.21 0 000-.257 2.227 2.227 0 000-.258 2.227 2.227 0 000-.259 2.227 2.227 0 000-.258 2.227 2.227 0 000-.258 2.21 2.21 0 000-.258 2.227 2.227 0 000-.258 2.227 2.227 0 000-.259 2.21 2.21 0 000-.257 2.227 2.227 0 000-.258 2.227 2.227 0 000-.259 2.227 2.227 0 000-.258 2.227 2.227 0 000-.258 2.21 2.21 0 000-.258 2.227 2.227 0 000-.258 2.227 2.227 0 000-.259 2.21 2.21 0 000-.257 2.227 2.227 0 000-.258 2.308 2.308 0 000-.263c.005-.085.004-.17 0-.254a2.227 2.227 0 000-.258 2.218 2.218 0 000-.258c.059-1-.571-2.012-1.893-2.775-1.266-.73-2.924-1.096-4.583-1.096z"
            color="#000" font-weight="400" font-family="sans-serif" overflow="visible"
            fill="#3f3f3f" paint-order="stroke markers fill" />
        <path
            style="line-height:normal;font-variant-ligatures:normal;font-variant-position:normal;font-variant-caps:normal;font-variant-numeric:normal;font-variant-alternates:normal;font-variant-east-asian:normal;font-feature-settings:normal;font-variation-settings:normal;text-indent:0;text-align:start;text-decoration-line:none;text-decoration-style:solid;text-decoration-color:#000;text-transform:none;text-orientation:mixed;white-space:normal;shape-padding:0;shape-margin:0;inline-size:0;isolation:auto;mix-blend-mode:normal;solid-color:#000;solid-opacity:1"
            d="M312.155 191.459c-2.53 1.46-6.634 1.46-9.165 0-2.531-1.462-2.531-3.83 0-5.292 2.53-1.461 6.634-1.461 9.165 0 2.531 1.461 2.531 3.83 0 5.292z"
            color="#000" font-weight="400" font-family="sans-serif" overflow="visible"
            fill="#565656" paint-order="stroke markers fill" />
        <path
            style="line-height:normal;font-variant-ligatures:normal;font-variant-position:normal;font-variant-caps:normal;font-variant-numeric:normal;font-variant-alternates:normal;font-variant-east-asian:normal;font-feature-settings:normal;font-variation-settings:normal;text-indent:0;text-align:start;text-decoration-line:none;text-decoration-style:solid;text-decoration-color:#000;text-transform:none;text-orientation:mixed;white-space:normal;shape-padding:0;shape-margin:0;inline-size:0;isolation:auto;mix-blend-mode:normal;solid-color:#000;solid-opacity:1"
            d="M289.197 195.654c-1.659 0-3.317.365-4.582 1.096h-.001c-1.323.764-1.953 1.775-1.893 2.775a2.218 2.218 0 000 .258 2.227 2.227 0 000 .258 2.218 2.218 0 000 .258 2.218 2.218 0 000 .258 2.227 2.227 0 000 .258 2.227 2.227 0 000 .259 2.227 2.227 0 000 .258 2.227 2.227 0 000 .259 2.21 2.21 0 000 .257 2.227 2.227 0 000 .258 2.218 2.218 0 000 .258 2.218 2.218 0 000 .258 2.227 2.227 0 000 .258 2.227 2.227 0 000 .259 2.227 2.227 0 000 .258 2.227 2.227 0 000 .259 2.21 2.21 0 000 .257 2.227 2.227 0 000 .258 2.227 2.227 0 000 .259 2.218 2.218 0 000 .258 2.227 2.227 0 000 .258 2.218 2.218 0 000 .258 2.227 2.227 0 000 .258 2.227 2.227 0 000 .259 2.21 2.21 0 000 .257 2.227 2.227 0 000 .258 2.227 2.227 0 000 .259 2.227 2.227 0 000 .258 2.218 2.218 0 000 .258 2.218 2.218 0 000 .258 2.227 2.227 0 000 .258 2.227 2.227 0 000 .259 2.21 2.21 0 000 .257 2.227 2.227 0 000 .258 2.227 2.227 0 000 .259 2.227 2.227 0 000 .258 2.227 2.227 0 000 .258 2.21 2.21 0 000 .258 2.227 2.227 0 000 .258 2.227 2.227 0 000 .259c-.06 1 .57 2.01 1.893 2.775 2.53 1.46 6.634 1.46 9.165 0 1.323-.764 1.953-1.775 1.893-2.775a2.227 2.227 0 000-.259 2.227 2.227 0 000-.258 2.21 2.21 0 000-.258 2.227 2.227 0 000-.258 2.227 2.227 0 000-.258 2.227 2.227 0 000-.259 2.227 2.227 0 000-.258 2.21 2.21 0 000-.257 2.227 2.227 0 000-.259 2.227 2.227 0 000-.258 2.21 2.21 0 000-.258 2.227 2.227 0 000-.258 2.227 2.227 0 000-.258 2.227 2.227 0 000-.259 2.227 2.227 0 000-.258 2.21 2.21 0 000-.257 2.227 2.227 0 000-.259 2.227 2.227 0 000-.258 2.21 2.21 0 000-.258 2.227 2.227 0 000-.258 2.227 2.227 0 000-.258 2.227 2.227 0 000-.259 2.227 2.227 0 000-.258 2.21 2.21 0 000-.257 2.227 2.227 0 000-.259 2.227 2.227 0 000-.258 2.21 2.21 0 000-.258 2.227 2.227 0 000-.258 2.227 2.227 0 000-.258 2.227 2.227 0 000-.259 2.227 2.227 0 000-.258 2.21 2.21 0 000-.257 2.227 2.227 0 000-.259 2.227 2.227 0 000-.258 2.21 2.21 0 000-.258 2.227 2.227 0 000-.258 2.308 2.308 0 000-.263c.005-.084.004-.17 0-.254a2.227 2.227 0 000-.258 2.218 2.218 0 000-.258c.06-1-.57-2.011-1.893-2.774-1.265-.731-2.924-1.097-4.582-1.097z"
            color="#000" font-weight="400" font-family="sans-serif" overflow="visible"
            fill="#3f3f3f" paint-order="stroke markers fill" />
        <path
            style="line-height:normal;font-variant-ligatures:normal;font-variant-position:normal;font-variant-caps:normal;font-variant-numeric:normal;font-variant-alternates:normal;font-variant-east-asian:normal;font-feature-settings:normal;font-variation-settings:normal;text-indent:0;text-align:start;text-decoration-line:none;text-decoration-style:solid;text-decoration-color:#000;text-transform:none;text-orientation:mixed;white-space:normal;shape-padding:0;shape-margin:0;inline-size:0;isolation:auto;mix-blend-mode:normal;solid-color:#000;solid-opacity:1"
            d="M293.779 202.042c-2.531 1.461-6.634 1.461-9.165 0-2.531-1.461-2.531-3.83 0-5.292 2.53-1.461 6.634-1.461 9.165 0 2.531 1.461 2.531 3.83 0 5.292z"
            color="#000" font-weight="400" font-family="sans-serif" overflow="visible"
            fill="#565656" paint-order="stroke markers fill" />
        <path
            style="line-height:normal;font-variant-ligatures:normal;font-variant-position:normal;font-variant-caps:normal;font-variant-numeric:normal;font-variant-alternates:normal;font-variant-east-asian:normal;font-feature-settings:normal;font-variation-settings:normal;text-indent:0;text-align:start;text-decoration-line:none;text-decoration-style:solid;text-decoration-color:#000;text-transform:none;text-orientation:mixed;white-space:normal;shape-padding:0;shape-margin:0;inline-size:0;isolation:auto;mix-blend-mode:normal;solid-color:#000;solid-opacity:1"
            d="M270.863 185.07c-1.659 0-3.317.366-4.582 1.096l-.001.001c-1.322.763-1.952 1.775-1.893 2.775a2.218 2.218 0 000 .258 2.227 2.227 0 000 .258 2.218 2.218 0 000 .258 2.218 2.218 0 000 .258 2.227 2.227 0 000 .258 2.227 2.227 0 000 .258 2.227 2.227 0 000 .259 2.227 2.227 0 000 .258 2.21 2.21 0 000 .258 2.227 2.227 0 000 .258 2.218 2.218 0 000 .258 2.218 2.218 0 000 .258 2.227 2.227 0 000 .258 2.227 2.227 0 000 .258 2.227 2.227 0 000 .259 2.227 2.227 0 000 .258 2.21 2.21 0 000 .258 2.227 2.227 0 000 .258 2.227 2.227 0 000 .258 2.218 2.218 0 000 .258 2.227 2.227 0 000 .259 2.218 2.218 0 000 .257 2.227 2.227 0 000 .259 2.227 2.227 0 000 .258 2.21 2.21 0 000 .258 2.227 2.227 0 000 .258 2.227 2.227 0 000 .258 2.227 2.227 0 000 .259 2.218 2.218 0 000 .258 2.218 2.218 0 000 .257 2.227 2.227 0 000 .259 2.227 2.227 0 000 .258 2.21 2.21 0 000 .258 2.227 2.227 0 000 .258 2.227 2.227 0 000 .258 2.227 2.227 0 000 .259 2.227 2.227 0 000 .258 2.21 2.21 0 000 .257 2.227 2.227 0 000 .259 2.227 2.227 0 000 .258c-.06 1 .57 2.011 1.893 2.775 2.53 1.461 6.635 1.461 9.166 0 1.322-.764 1.952-1.775 1.893-2.775a2.227 2.227 0 000-.258 2.227 2.227 0 000-.259 2.21 2.21 0 000-.257 2.227 2.227 0 000-.258 2.227 2.227 0 000-.259 2.227 2.227 0 000-.258 2.227 2.227 0 000-.258 2.21 2.21 0 000-.258 2.227 2.227 0 000-.258 2.227 2.227 0 000-.259 2.21 2.21 0 000-.257 2.227 2.227 0 000-.258 2.227 2.227 0 000-.259 2.227 2.227 0 000-.258 2.227 2.227 0 000-.258 2.21 2.21 0 000-.258 2.227 2.227 0 000-.258 2.227 2.227 0 000-.259 2.21 2.21 0 000-.257 2.227 2.227 0 000-.258 2.227 2.227 0 000-.259 2.227 2.227 0 000-.258 2.227 2.227 0 000-.258 2.21 2.21 0 000-.258 2.227 2.227 0 000-.258 2.227 2.227 0 000-.259 2.21 2.21 0 000-.257 2.227 2.227 0 000-.258 2.227 2.227 0 000-.259 2.227 2.227 0 000-.258 2.227 2.227 0 000-.258 2.21 2.21 0 000-.258 2.227 2.227 0 000-.258 2.227 2.227 0 000-.259 2.21 2.21 0 000-.257 2.227 2.227 0 000-.258 2.308 2.308 0 000-.263c.005-.085.004-.17-.001-.254a2.227 2.227 0 000-.258 2.218 2.218 0 000-.258c.06-1-.57-2.012-1.892-2.775-1.266-.73-2.925-1.096-4.583-1.096z"
            color="#000" font-weight="400" font-family="sans-serif" overflow="visible"
            fill="#3f3f3f" paint-order="stroke markers fill" />
        <path
            style="line-height:normal;font-variant-ligatures:normal;font-variant-position:normal;font-variant-caps:normal;font-variant-numeric:normal;font-variant-alternates:normal;font-variant-east-asian:normal;font-feature-settings:normal;font-variation-settings:normal;text-indent:0;text-align:start;text-decoration-line:none;text-decoration-style:solid;text-decoration-color:#000;text-transform:none;text-orientation:mixed;white-space:normal;shape-padding:0;shape-margin:0;inline-size:0;isolation:auto;mix-blend-mode:normal;solid-color:#000;solid-opacity:1"
            d="M275.445 191.459c-2.53 1.46-6.634 1.46-9.165 0-2.531-1.462-2.531-3.83 0-5.292 2.53-1.461 6.634-1.461 9.165 0 2.531 1.461 2.531 3.83 0 5.292z"
            color="#000" font-weight="400" font-family="sans-serif" overflow="visible"
            fill="#565656" paint-order="stroke markers fill" />
        <path
            style="line-height:normal;font-variant-ligatures:normal;font-variant-position:normal;font-variant-caps:normal;font-variant-numeric:normal;font-variant-alternates:normal;font-variant-east-asian:normal;font-feature-settings:normal;font-variation-settings:normal;text-indent:0;text-align:start;text-decoration-line:none;text-decoration-style:solid;text-decoration-color:#000;text-transform:none;text-orientation:mixed;white-space:normal;shape-padding:0;shape-margin:0;inline-size:0;isolation:auto;mix-blend-mode:normal;solid-color:#000;solid-opacity:1"
            d="M252.47 174.616c-1.658 0-3.316.365-4.582 1.096h-.001c-1.322.764-1.952 1.775-1.893 2.775a2.218 2.218 0 000 .258 2.227 2.227 0 000 .258 2.218 2.218 0 000 .258 2.218 2.218 0 000 .258 2.227 2.227 0 000 .259 2.227 2.227 0 000 .258 2.227 2.227 0 000 .258 2.227 2.227 0 000 .259 2.21 2.21 0 000 .257 2.227 2.227 0 000 .258 2.218 2.218 0 000 .258 2.218 2.218 0 000 .258 2.227 2.227 0 000 .259 2.227 2.227 0 000 .258 2.227 2.227 0 000 .258 2.227 2.227 0 000 .259 2.21 2.21 0 000 .257 2.227 2.227 0 000 .258 2.227 2.227 0 000 .259 2.218 2.218 0 000 .258 2.227 2.227 0 000 .258 2.218 2.218 0 000 .258 2.227 2.227 0 000 .258 2.227 2.227 0 000 .259 2.21 2.21 0 000 .257 2.227 2.227 0 000 .258 2.227 2.227 0 000 .259 2.227 2.227 0 000 .258 2.218 2.218 0 000 .258 2.218 2.218 0 000 .258 2.227 2.227 0 000 .258 2.227 2.227 0 000 .259 2.21 2.21 0 000 .257 2.227 2.227 0 000 .258 2.227 2.227 0 000 .259 2.227 2.227 0 000 .258 2.227 2.227 0 000 .259 2.21 2.21 0 000 .257 2.227 2.227 0 000 .258 2.227 2.227 0 000 .259c-.06 1 .57 2.01 1.893 2.775 2.531 1.46 6.635 1.46 9.166 0 1.322-.764 1.952-1.775 1.893-2.775a2.227 2.227 0 000-.259 2.227 2.227 0 000-.258 2.21 2.21 0 000-.257 2.227 2.227 0 000-.259 2.227 2.227 0 000-.258 2.227 2.227 0 000-.259 2.227 2.227 0 000-.258 2.21 2.21 0 000-.257 2.227 2.227 0 000-.259 2.227 2.227 0 000-.258 2.21 2.21 0 000-.257 2.227 2.227 0 000-.259 2.227 2.227 0 000-.258 2.227 2.227 0 000-.259 2.227 2.227 0 000-.258 2.21 2.21 0 000-.257 2.227 2.227 0 000-.259 2.227 2.227 0 000-.258 2.21 2.21 0 000-.257 2.227 2.227 0 000-.259 2.227 2.227 0 000-.258 2.227 2.227 0 000-.259 2.227 2.227 0 000-.258 2.21 2.21 0 000-.257 2.227 2.227 0 000-.259 2.227 2.227 0 000-.258 2.21 2.21 0 000-.257 2.227 2.227 0 000-.259 2.227 2.227 0 000-.258 2.227 2.227 0 000-.259 2.227 2.227 0 000-.258 2.21 2.21 0 000-.257 2.227 2.227 0 000-.259 2.227 2.227 0 000-.258 2.21 2.21 0 000-.257 2.227 2.227 0 000-.259 2.308 2.308 0 000-.263c.005-.084.004-.17 0-.254a2.227 2.227 0 000-.258 2.218 2.218 0 000-.258c.059-1-.57-2.011-1.893-2.774-1.266-.731-2.924-1.097-4.583-1.097z"
            color="#000" font-weight="400" font-family="sans-serif" overflow="visible"
            fill="#3f3f3f" paint-order="stroke markers fill" />
        <path
            style="line-height:normal;font-variant-ligatures:normal;font-variant-position:normal;font-variant-caps:normal;font-variant-numeric:normal;font-variant-alternates:normal;font-variant-east-asian:normal;font-feature-settings:normal;font-variation-settings:normal;text-indent:0;text-align:start;text-decoration-line:none;text-decoration-style:solid;text-decoration-color:#000;text-transform:none;text-orientation:mixed;white-space:normal;shape-padding:0;shape-margin:0;inline-size:0;isolation:auto;mix-blend-mode:normal;solid-color:#000;solid-opacity:1"
            d="M257.052 181.004c-2.53 1.461-6.634 1.461-9.165 0-2.53-1.461-2.53-3.83 0-5.292 2.531-1.46 6.635-1.46 9.165 0 2.531 1.462 2.531 3.83 0 5.292z"
            color="#000" font-weight="400" font-family="sans-serif" overflow="visible"
            fill="#565656" paint-order="stroke markers fill" />
        <path
            style="line-height:normal;font-variant-ligatures:normal;font-variant-position:normal;font-variant-caps:normal;font-variant-numeric:normal;font-variant-alternates:normal;font-variant-east-asian:normal;font-feature-settings:normal;font-variation-settings:normal;text-indent:0;text-align:start;text-decoration-line:none;text-decoration-style:solid;text-decoration-color:#000;text-transform:none;text-orientation:mixed;white-space:normal;shape-padding:0;shape-margin:0;inline-size:0;isolation:auto;mix-blend-mode:normal;solid-color:#000;solid-opacity:1"
            d="M234.232 163.904c-1.658 0-3.316.365-4.582 1.096-1.323.764-1.953 1.775-1.894 2.775a2.218 2.218 0 000 .258 2.227 2.227 0 000 .258 2.218 2.218 0 000 .258 2.218 2.218 0 000 .258 2.227 2.227 0 000 .258 2.227 2.227 0 000 .259 2.227 2.227 0 000 .258 2.227 2.227 0 000 .259 2.21 2.21 0 000 .257 2.227 2.227 0 000 .258 2.218 2.218 0 000 .258 2.218 2.218 0 000 .258 2.227 2.227 0 000 .258 2.227 2.227 0 000 .259 2.227 2.227 0 000 .258 2.227 2.227 0 000 .259 2.21 2.21 0 000 .257 2.227 2.227 0 000 .258 2.227 2.227 0 000 .259 2.218 2.218 0 000 .258 2.227 2.227 0 000 .258 2.218 2.218 0 000 .258 2.227 2.227 0 000 .258 2.227 2.227 0 000 .259 2.21 2.21 0 000 .257 2.227 2.227 0 000 .258 2.227 2.227 0 000 .259 2.227 2.227 0 000 .258 2.218 2.218 0 000 .258 2.218 2.218 0 000 .258 2.227 2.227 0 000 .258 2.227 2.227 0 000 .259 2.21 2.21 0 000 .257 2.227 2.227 0 000 .258 2.227 2.227 0 000 .259 2.227 2.227 0 000 .258 2.227 2.227 0 000 .258 2.21 2.21 0 000 .258 2.227 2.227 0 000 .258 2.227 2.227 0 000 .259c-.06 1 .57 2.01 1.893 2.775 2.531 1.46 6.635 1.46 9.166 0 1.322-.764 1.952-1.775 1.893-2.775a2.227 2.227 0 000-.259 2.227 2.227 0 000-.258 2.21 2.21 0 000-.258 2.227 2.227 0 000-.258 2.227 2.227 0 000-.258 2.227 2.227 0 000-.259 2.227 2.227 0 000-.258 2.21 2.21 0 000-.257 2.227 2.227 0 000-.259 2.227 2.227 0 000-.258 2.21 2.21 0 000-.258 2.227 2.227 0 000-.258 2.227 2.227 0 000-.258 2.227 2.227 0 000-.259 2.227 2.227 0 000-.258 2.21 2.21 0 000-.257 2.227 2.227 0 000-.259 2.227 2.227 0 000-.258 2.21 2.21 0 000-.258 2.227 2.227 0 000-.258 2.227 2.227 0 000-.258 2.227 2.227 0 000-.259 2.227 2.227 0 000-.258 2.21 2.21 0 000-.257 2.227 2.227 0 000-.259 2.227 2.227 0 000-.258 2.21 2.21 0 000-.258 2.227 2.227 0 000-.258 2.227 2.227 0 000-.258 2.227 2.227 0 000-.259 2.227 2.227 0 000-.258 2.21 2.21 0 000-.257 2.227 2.227 0 000-.259 2.227 2.227 0 000-.258 2.21 2.21 0 000-.258 2.227 2.227 0 000-.258 2.308 2.308 0 000-.263c.005-.084.004-.17 0-.254a2.227 2.227 0 000-.258 2.218 2.218 0 000-.258c.059-1-.57-2.011-1.893-2.774-1.266-.731-2.924-1.097-4.583-1.097z"
            color="#000" font-weight="400" font-family="sans-serif" overflow="visible"
            fill="#3f3f3f" paint-order="stroke markers fill" />
        <path
            style="line-height:normal;font-variant-ligatures:normal;font-variant-position:normal;font-variant-caps:normal;font-variant-numeric:normal;font-variant-alternates:normal;font-variant-east-asian:normal;font-feature-settings:normal;font-variation-settings:normal;text-indent:0;text-align:start;text-decoration-line:none;text-decoration-style:solid;text-decoration-color:#000;text-transform:none;text-orientation:mixed;white-space:normal;shape-padding:0;shape-margin:0;inline-size:0;isolation:auto;mix-blend-mode:normal;solid-color:#000;solid-opacity:1"
            d="M238.815 170.292c-2.531 1.461-6.635 1.461-9.166 0-2.53-1.461-2.53-3.83 0-5.292 2.531-1.461 6.635-1.461 9.166 0 2.53 1.461 2.53 3.83 0 5.292z"
            color="#000" font-weight="400" font-family="sans-serif" overflow="visible"
            fill="#565656" paint-order="stroke markers fill" />
        <path
            style="line-height:normal;font-variant-ligatures:normal;font-variant-position:normal;font-variant-caps:normal;font-variant-numeric:normal;font-variant-alternates:normal;font-variant-east-asian:normal;font-feature-settings:normal;font-variation-settings:normal;text-indent:0;text-align:start;text-decoration-line:none;text-decoration-style:solid;text-decoration-color:#000;text-transform:none;text-orientation:mixed;white-space:normal;shape-padding:0;shape-margin:0;inline-size:0;isolation:auto;mix-blend-mode:normal;solid-color:#000;solid-opacity:1"
            d="M188.396 158.612c-1.658 0-3.316.365-4.582 1.096-1.323.764-1.953 1.775-1.894 2.775a2.218 2.218 0 000 .258 2.227 2.227 0 000 .259 2.218 2.218 0 000 .257 2.218 2.218 0 000 .258 2.227 2.227 0 000 .259 2.227 2.227 0 000 .258 2.227 2.227 0 000 .259 2.227 2.227 0 000 .258 2.21 2.21 0 000 .257 2.227 2.227 0 000 .259 2.218 2.218 0 000 .257 2.218 2.218 0 000 .258 2.227 2.227 0 000 .259 2.227 2.227 0 000 .258 2.227 2.227 0 000 .259 2.227 2.227 0 000 .258 2.21 2.21 0 000 .257 2.227 2.227 0 000 .259 2.227 2.227 0 000 .258 2.218 2.218 0 000 .258 2.227 2.227 0 000 .258 2.218 2.218 0 000 .258 2.227 2.227 0 000 .258 2.227 2.227 0 000 .259 2.21 2.21 0 000 .257 2.227 2.227 0 000 .259 2.227 2.227 0 000 .258 2.227 2.227 0 000 .258 2.218 2.218 0 000 .258 2.218 2.218 0 000 .258 2.227 2.227 0 000 .258 2.227 2.227 0 000 .259 2.21 2.21 0 000 .257 2.227 2.227 0 000 .259 2.227 2.227 0 000 .258 2.227 2.227 0 000 .258 2.227 2.227 0 000 .259 2.21 2.21 0 000 .257 2.227 2.227 0 000 .258 2.227 2.227 0 000 .259c-.059 1 .571 2.011 1.893 2.775 2.531 1.46 6.635 1.46 9.166 0 1.322-.764 1.952-1.775 1.893-2.775a2.227 2.227 0 000-.259 2.227 2.227 0 000-.258 2.21 2.21 0 000-.257 2.227 2.227 0 000-.259 2.227 2.227 0 000-.258 2.227 2.227 0 000-.258 2.227 2.227 0 000-.259 2.21 2.21 0 000-.257 2.227 2.227 0 000-.259 2.227 2.227 0 000-.258 2.21 2.21 0 000-.257 2.227 2.227 0 000-.259 2.227 2.227 0 000-.258 2.227 2.227 0 000-.258 2.227 2.227 0 000-.259 2.21 2.21 0 000-.257 2.227 2.227 0 000-.259 2.227 2.227 0 000-.258 2.21 2.21 0 000-.257 2.227 2.227 0 000-.259 2.227 2.227 0 000-.258 2.227 2.227 0 000-.258 2.227 2.227 0 000-.259 2.21 2.21 0 000-.257 2.227 2.227 0 000-.258 2.227 2.227 0 000-.259 2.21 2.21 0 000-.257 2.227 2.227 0 000-.259 2.227 2.227 0 000-.258 2.227 2.227 0 000-.258 2.227 2.227 0 000-.259 2.21 2.21 0 000-.257 2.227 2.227 0 000-.258 2.227 2.227 0 000-.259 2.21 2.21 0 000-.257 2.227 2.227 0 000-.259 2.308 2.308 0 000-.263c.005-.084.004-.169 0-.253a2.227 2.227 0 000-.259 2.218 2.218 0 000-.258c.059-1-.57-2.01-1.893-2.774-1.265-.731-2.924-1.097-4.583-1.097z"
            color="#000" font-weight="400" font-family="sans-serif" overflow="visible"
            fill="#3f3f3f" paint-order="stroke markers fill" />
        <path
            style="line-height:normal;font-variant-ligatures:normal;font-variant-position:normal;font-variant-caps:normal;font-variant-numeric:normal;font-variant-alternates:normal;font-variant-east-asian:normal;font-feature-settings:normal;font-variation-settings:normal;text-indent:0;text-align:start;text-decoration-line:none;text-decoration-style:solid;text-decoration-color:#000;text-transform:none;text-orientation:mixed;white-space:normal;shape-padding:0;shape-margin:0;inline-size:0;isolation:auto;mix-blend-mode:normal;solid-color:#000;solid-opacity:1"
            d="M192.979 165c-2.531 1.461-6.635 1.461-9.166 0-2.53-1.461-2.53-3.83 0-5.291 2.531-1.462 6.635-1.462 9.166 0 2.53 1.46 2.53 3.83 0 5.291z"
            color="#000" font-weight="400" font-family="sans-serif" overflow="visible"
            fill="#565656" paint-order="stroke markers fill" />
        <path
            style="line-height:normal;font-variant-ligatures:normal;font-variant-position:normal;font-variant-caps:normal;font-variant-numeric:normal;font-variant-alternates:normal;font-variant-east-asian:normal;font-feature-settings:normal;font-variation-settings:normal;text-indent:0;text-align:start;text-decoration-line:none;text-decoration-style:solid;text-decoration-color:#000;text-transform:none;text-orientation:mixed;white-space:normal;shape-padding:0;shape-margin:0;inline-size:0;isolation:auto;mix-blend-mode:normal;solid-color:#000;solid-opacity:1"
            d="M169.968 148.165c-1.658 0-3.316.365-4.582 1.095v.001c-1.323.764-1.953 1.775-1.894 2.775a2.218 2.218 0 000 .258 2.227 2.227 0 000 .258 2.218 2.218 0 000 .258 2.218 2.218 0 000 .258 2.227 2.227 0 000 .258 2.227 2.227 0 000 .259 2.227 2.227 0 000 .258 2.227 2.227 0 000 .258 2.21 2.21 0 000 .258 2.227 2.227 0 000 .258 2.218 2.218 0 000 .258 2.218 2.218 0 000 .258 2.227 2.227 0 000 .258 2.227 2.227 0 000 .259 2.227 2.227 0 000 .258 2.227 2.227 0 000 .258 2.21 2.21 0 000 .258 2.227 2.227 0 000 .258 2.227 2.227 0 000 .259 2.218 2.218 0 000 .257 2.227 2.227 0 000 .259 2.218 2.218 0 000 .258 2.227 2.227 0 000 .258 2.227 2.227 0 000 .258 2.21 2.21 0 000 .258 2.227 2.227 0 000 .258 2.227 2.227 0 000 .259 2.227 2.227 0 000 .258 2.218 2.218 0 000 .258 2.218 2.218 0 000 .258 2.227 2.227 0 000 .258 2.227 2.227 0 000 .258 2.21 2.21 0 000 .258 2.227 2.227 0 000 .258 2.227 2.227 0 000 .259 2.227 2.227 0 000 .258 2.227 2.227 0 000 .258 2.21 2.21 0 000 .258 2.227 2.227 0 000 .258 2.227 2.227 0 000 .258c-.06 1 .57 2.012 1.893 2.775 2.531 1.461 6.635 1.461 9.166 0 1.322-.763 1.952-1.775 1.893-2.775a2.227 2.227 0 000-.258 2.227 2.227 0 000-.258 2.21 2.21 0 000-.258 2.227 2.227 0 000-.258 2.227 2.227 0 000-.258 2.227 2.227 0 000-.259 2.227 2.227 0 000-.258 2.21 2.21 0 000-.258 2.227 2.227 0 000-.258 2.227 2.227 0 000-.258 2.21 2.21 0 000-.258 2.227 2.227 0 000-.258 2.227 2.227 0 000-.258 2.227 2.227 0 000-.259 2.227 2.227 0 000-.258 2.21 2.21 0 000-.258 2.227 2.227 0 000-.258 2.227 2.227 0 000-.258 2.21 2.21 0 000-.258 2.227 2.227 0 000-.258 2.227 2.227 0 000-.258 2.227 2.227 0 000-.259 2.227 2.227 0 000-.258 2.21 2.21 0 000-.258 2.227 2.227 0 000-.258 2.227 2.227 0 000-.258 2.21 2.21 0 000-.258 2.227 2.227 0 000-.258 2.227 2.227 0 000-.258 2.227 2.227 0 000-.259 2.227 2.227 0 000-.258 2.21 2.21 0 000-.258 2.227 2.227 0 000-.258 2.227 2.227 0 000-.258 2.21 2.21 0 000-.258 2.227 2.227 0 000-.258 2.308 2.308 0 000-.263c.005-.085.004-.17 0-.254a2.227 2.227 0 000-.258 2.218 2.218 0 000-.258c.059-1-.57-2.011-1.893-2.775-1.266-.73-2.924-1.096-4.583-1.096z"
            color="#000" font-weight="400" font-family="sans-serif" overflow="visible"
            fill="#3f3f3f" paint-order="stroke markers fill" />
        <path
            style="line-height:normal;font-variant-ligatures:normal;font-variant-position:normal;font-variant-caps:normal;font-variant-numeric:normal;font-variant-alternates:normal;font-variant-east-asian:normal;font-feature-settings:normal;font-variation-settings:normal;text-indent:0;text-align:start;text-decoration-line:none;text-decoration-style:solid;text-decoration-color:#000;text-transform:none;text-orientation:mixed;white-space:normal;shape-padding:0;shape-margin:0;inline-size:0;isolation:auto;mix-blend-mode:normal;solid-color:#000;solid-opacity:1"
            d="M174.55 154.553c-2.53 1.461-6.634 1.461-9.165 0-2.53-1.461-2.53-3.83 0-5.292 2.531-1.461 6.635-1.461 9.166 0 2.53 1.461 2.53 3.83 0 5.292z"
            color="#000" font-weight="400" font-family="sans-serif" overflow="visible"
            fill="#565656" paint-order="stroke markers fill" />
        <path d="M270.854 210.017l-9.166 5.292v5.291l9.166 5.292 9.165-5.292v-5.29z" fill="#d12ddf" />
        <path d="M270.854 210.017l9.165 5.292-9.165 5.292-9.165-5.292z" opacity=".507" fill="#fff" />
        <path d="M270.854 210.811l7.79 4.498-7.79 4.498-7.79-4.498z" fill="#2e393c" />
        <path d="M252.529 199.424l-9.166 5.292v5.291l9.166 5.292 9.165-5.292v-5.29z" fill="#33d033" />
        <path d="M252.529 199.424l9.165 5.292-9.165 5.291-9.166-5.291z" opacity=".507" fill="#fff" />
        <path d="M252.529 200.218l7.79 4.498-7.79 4.498-7.79-4.498z" fill="#2e393c" />
        <path d="M234.195 188.839l-9.166 5.292v5.291l9.166 5.292 9.165-5.292v-5.29z" fill="#357ddd" />
        <path d="M234.195 188.84l9.165 5.29-9.165 5.292-9.165-5.291z" opacity=".507" fill="#fff" />
        <path d="M234.195 189.633l7.79 4.498-7.79 4.498-7.79-4.498z" fill="#2e393c" />
        <path d="M215.861 178.254l-9.165 5.292v5.291l9.165 5.292 9.165-5.292v-5.29z" fill="#d84a53" />
        <path d="M215.861 178.254l9.166 5.292-9.166 5.291-9.165-5.291z" opacity=".507" fill="#fff" />
        <path d="M215.861 179.048l7.79 4.498-7.79 4.498-7.79-4.498z" fill="#2e393c" />
        <path
            style="line-height:normal;font-variant-ligatures:normal;font-variant-position:normal;font-variant-caps:normal;font-variant-numeric:normal;font-variant-alternates:normal;font-variant-east-asian:normal;font-feature-settings:normal;font-variation-settings:normal;text-indent:0;text-align:start;text-decoration-line:none;text-decoration-style:solid;text-decoration-color:#000;text-transform:none;text-orientation:mixed;white-space:normal;shape-padding:0;shape-margin:0;inline-size:0;isolation:auto;mix-blend-mode:normal;solid-color:#000;solid-opacity:1"
            d="M243.415 215.271l-41.245 23.812v5.293l9.166 5.292 41.244-23.813v-5.293z" color="#000"
            font-weight="400" font-family="sans-serif" overflow="visible" fill="#292929"
            paint-order="stroke markers fill" />
        <path
            style="line-height:normal;font-variant-ligatures:normal;font-variant-position:normal;font-variant-caps:normal;font-variant-numeric:normal;font-variant-alternates:normal;font-variant-east-asian:normal;font-feature-settings:normal;font-variation-settings:normal;text-indent:0;text-align:start;text-decoration-line:none;text-decoration-style:solid;text-decoration-color:#000;text-transform:none;text-orientation:mixed;white-space:normal;shape-padding:0;shape-margin:0;inline-size:0;isolation:auto;mix-blend-mode:normal;solid-color:#000;solid-opacity:1"
            d="M243.415 215.271l9.165 5.292-41.244 23.812-9.166-5.292z" color="#000"
            font-weight="400" font-family="sans-serif" overflow="visible" fill="#6b6b6b"
            paint-order="stroke markers fill" />
        <g color="#000" font-weight="400" font-family="sans-serif" paint-order="stroke markers fill">
            <path
                style="line-height:normal;font-variant-ligatures:normal;font-variant-position:normal;font-variant-caps:normal;font-variant-numeric:normal;font-variant-alternates:normal;font-variant-east-asian:normal;font-feature-settings:normal;font-variation-settings:normal;text-indent:0;text-align:start;text-decoration-line:none;text-decoration-style:solid;text-decoration-color:#000;text-transform:none;text-orientation:mixed;white-space:normal;shape-padding:0;shape-margin:0;inline-size:0;isolation:auto;mix-blend-mode:normal;solid-color:#000;solid-opacity:1"
                d="M224.97 204.688L183.725 228.5v5.292l9.166 5.292 41.245-23.813v-5.292z"
                overflow="visible" fill="#292929" />
            <path
                style="line-height:normal;font-variant-ligatures:normal;font-variant-position:normal;font-variant-caps:normal;font-variant-numeric:normal;font-variant-alternates:normal;font-variant-east-asian:normal;font-feature-settings:normal;font-variation-settings:normal;text-indent:0;text-align:start;text-decoration-line:none;text-decoration-style:solid;text-decoration-color:#000;text-transform:none;text-orientation:mixed;white-space:normal;shape-padding:0;shape-margin:0;inline-size:0;isolation:auto;mix-blend-mode:normal;solid-color:#000;solid-opacity:1"
                d="M224.97 204.688l9.165 5.291-41.244 23.813-9.166-5.292z" overflow="visible"
                fill="#6b6b6b" />
        </g>
        <g color="#000" font-weight="400" font-family="sans-serif" paint-order="stroke markers fill">
            <path
                style="line-height:normal;font-variant-ligatures:normal;font-variant-position:normal;font-variant-caps:normal;font-variant-numeric:normal;font-variant-alternates:normal;font-variant-east-asian:normal;font-feature-settings:normal;font-variation-settings:normal;text-indent:0;text-align:start;text-decoration-line:none;text-decoration-style:solid;text-decoration-color:#000;text-transform:none;text-orientation:mixed;white-space:normal;shape-padding:0;shape-margin:0;inline-size:0;isolation:auto;mix-blend-mode:normal;solid-color:#000;solid-opacity:1"
                d="M206.69 194.133l-41.245 23.812v5.293l9.166 5.292 41.244-23.813v-5.292z"
                overflow="visible" fill="#292929" />
            <path
                style="line-height:normal;font-variant-ligatures:normal;font-variant-position:normal;font-variant-caps:normal;font-variant-numeric:normal;font-variant-alternates:normal;font-variant-east-asian:normal;font-feature-settings:normal;font-variation-settings:normal;text-indent:0;text-align:start;text-decoration-line:none;text-decoration-style:solid;text-decoration-color:#000;text-transform:none;text-orientation:mixed;white-space:normal;shape-padding:0;shape-margin:0;inline-size:0;isolation:auto;mix-blend-mode:normal;solid-color:#000;solid-opacity:1"
                d="M206.69 194.133l9.165 5.292-41.245 23.813-9.165-5.292z" overflow="visible"
                fill="#6b6b6b" />
        </g>
        <g color="#000" font-weight="400" font-family="sans-serif" paint-order="stroke markers fill">
            <path
                style="line-height:normal;font-variant-ligatures:normal;font-variant-position:normal;font-variant-caps:normal;font-variant-numeric:normal;font-variant-alternates:normal;font-variant-east-asian:normal;font-feature-settings:normal;font-variation-settings:normal;text-indent:0;text-align:start;text-decoration-line:none;text-decoration-style:solid;text-decoration-color:#000;text-transform:none;text-orientation:mixed;white-space:normal;shape-padding:0;shape-margin:0;inline-size:0;isolation:auto;mix-blend-mode:normal;solid-color:#000;solid-opacity:1"
                d="M169.954 173.002l-41.245 23.812v5.292l9.166 5.293 41.245-23.813v-5.293z"
                overflow="visible" fill="#292929" />
            <path
                style="line-height:normal;font-variant-ligatures:normal;font-variant-position:normal;font-variant-caps:normal;font-variant-numeric:normal;font-variant-alternates:normal;font-variant-east-asian:normal;font-feature-settings:normal;font-variation-settings:normal;text-indent:0;text-align:start;text-decoration-line:none;text-decoration-style:solid;text-decoration-color:#000;text-transform:none;text-orientation:mixed;white-space:normal;shape-padding:0;shape-margin:0;inline-size:0;isolation:auto;mix-blend-mode:normal;solid-color:#000;solid-opacity:1"
                d="M169.954 173.002l9.165 5.292-41.244 23.812-9.166-5.291z" overflow="visible"
                fill="#6b6b6b" />
        </g>
        <g color="#000" font-weight="400" font-family="sans-serif" paint-order="stroke markers fill">
            <path
                style="line-height:normal;font-variant-ligatures:normal;font-variant-position:normal;font-variant-caps:normal;font-variant-numeric:normal;font-variant-alternates:normal;font-variant-east-asian:normal;font-feature-settings:normal;font-variation-settings:normal;text-indent:0;text-align:start;text-decoration-line:none;text-decoration-style:solid;text-decoration-color:#000;text-transform:none;text-orientation:mixed;white-space:normal;shape-padding:0;shape-margin:0;inline-size:0;isolation:auto;mix-blend-mode:normal;solid-color:#000;solid-opacity:1"
                d="M151.689 162.378l-41.245 23.812v5.293l9.165 5.292 41.245-23.813v-5.292z"
                overflow="visible" fill="#292929" />
            <path
                style="line-height:normal;font-variant-ligatures:normal;font-variant-position:normal;font-variant-caps:normal;font-variant-numeric:normal;font-variant-alternates:normal;font-variant-east-asian:normal;font-feature-settings:normal;font-variation-settings:normal;text-indent:0;text-align:start;text-decoration-line:none;text-decoration-style:solid;text-decoration-color:#000;text-transform:none;text-orientation:mixed;white-space:normal;shape-padding:0;shape-margin:0;inline-size:0;isolation:auto;mix-blend-mode:normal;solid-color:#000;solid-opacity:1"
                d="M151.688 162.378l9.166 5.292-41.245 23.813-9.165-5.292z" overflow="visible"
                fill="#6b6b6b" />
        </g>
        <path d="M202.116 265.583l.002 26.444-128.316-74.07L73.8 191.5z" fill="#ddd" />
        <path
            d="M206.7 141.222l.033 26.459 9.168 5.288-.06-26.459zM220.425 149.172l-.007 21.15 4.584-2.645.033-15.859z"
            opacity=".25" fill="#fff" />
    </g>
</svg>