<!-- Generated by IcoMoon.io -->
<svg version="1.1" xmlns="http://www.w3.org/2000/svg" width="34" height="32" viewBox="0 0 34 32">
<title>1</title>
<path d="M10.459 32c-2.261 0-4.894-1.262-7.048-3.415-2.381-2.381-3.671-5.351-3.367-7.753 0.191-1.508 1.008-2.729 2.364-3.53 0.622-0.368 1.833-0.824 3.599-1.357 1.635-0.493 2.971-1.758 3.573-3.383 0.482-1.301 1.218-2.47 2.129-3.381 0.912-0.912 1.917-1.473 2.987-1.668 0.471-0.085 0.939 0.121 1.191 0.528s0.231 0.919-0.055 1.304c-1.085 1.462-1.449 2.679-0.952 3.177 0.413 0.413 1.222 0.151 1.667-0.042 0.183-0.080 0.398-0.016 0.508 0.151s0.085 0.389-0.060 0.526l-3.957 3.753 2.047 2.047 2.97-3.131c0.141-0.149 0.371-0.171 0.538-0.052s0.221 0.343 0.126 0.526c-0.384 0.739-0.451 1.317-0.183 1.585 0.322 0.322 1.073 0.161 2.011-0.428 0.491-0.308 1.092-0.259 1.533 0.125 0.438 0.382 0.567 0.968 0.33 1.492-0.245 0.541-0.615 1.060-1.099 1.544-0.6 0.6-1.354 1.122-2.18 1.511-1.476 0.694-2.571 1.965-3.005 3.488-0.559 1.964-1.041 3.299-1.433 3.97v0c-0.793 1.356-2.007 2.175-3.511 2.369-0.236 0.030-0.478 0.045-0.725 0.045zM14.912 8.318c-0.021 0-0.044 0.002-0.067 0.006-0.902 0.164-1.76 0.648-2.552 1.439-0.828 0.828-1.498 1.895-1.939 3.085-0.691 1.866-2.227 3.319-4.108 3.886-1.679 0.506-2.861 0.948-3.418 1.277-1.145 0.676-1.806 1.66-1.966 2.924-0.268 2.122 0.961 4.896 3.132 7.067 2.178 2.178 4.96 3.409 7.085 3.135 1.259-0.162 2.236-0.824 2.905-1.967 0.352-0.602 0.82-1.909 1.352-3.779 0.499-1.752 1.755-3.214 3.447-4.009 0.741-0.348 1.414-0.814 1.948-1.347 0.414-0.414 0.727-0.852 0.931-1.302 0.128-0.283-0.060-0.478-0.121-0.531-0.127-0.111-0.339-0.182-0.552-0.049-1.787 1.124-2.667 0.679-3.033 0.313-0.169-0.169-0.365-0.46-0.398-0.919l-2.165 2.282c-0.077 0.081-0.182 0.127-0.294 0.128-0.109 0.004-0.218-0.042-0.297-0.121l-2.645-2.645c-0.079-0.079-0.122-0.186-0.121-0.297s0.048-0.217 0.128-0.294l3.203-3.038c-0.505-0.030-0.846-0.237-1.069-0.46-0.489-0.489-1.026-1.692 0.873-4.251 0.127-0.171 0.045-0.333 0.017-0.378-0.025-0.040-0.112-0.158-0.276-0.158zM14.34 29.378v0z"></path>
<path d="M15.094 19.959c-0.109 0-0.214-0.043-0.291-0.121l-2.645-2.645c-0.079-0.079-0.122-0.186-0.121-0.297s0.048-0.217 0.128-0.294l12.378-11.741c0.162-0.154 0.417-0.15 0.575 0.008l2.007 2.008c0.158 0.158 0.161 0.413 0.008 0.575l-11.741 12.378c-0.077 0.081-0.182 0.127-0.294 0.128-0.002 0-0.004 0-0.005 0zM13.039 16.91l2.047 2.047 11.173-11.78-1.44-1.44-11.78 11.173z"></path>
<path d="M29.792 2.49c-0.174 0-0.336-0.111-0.392-0.285l-0.358-1.106c-0.070-0.217 0.049-0.449 0.265-0.519s0.449 0.049 0.519 0.265l0.358 1.106c0.070 0.217-0.049 0.449-0.265 0.519-0.042 0.013-0.085 0.020-0.127 0.020z"></path>
<path d="M28.064 3.049c-0.174 0-0.336-0.111-0.392-0.285l-0.358-1.106c-0.070-0.216 0.049-0.449 0.265-0.519s0.449 0.049 0.519 0.265l0.358 1.106c0.070 0.216-0.049 0.449-0.265 0.519-0.042 0.014-0.085 0.020-0.127 0.020z"></path>
<path d="M31.52 1.93c-0.174 0-0.336-0.111-0.392-0.285l-0.358-1.106c-0.070-0.216 0.049-0.449 0.265-0.519s0.449 0.049 0.519 0.265l0.358 1.106c0.070 0.216-0.049 0.449-0.265 0.519-0.042 0.013-0.085 0.020-0.127 0.020z"></path>
<path d="M26.336 3.608c-0.174 0-0.336-0.111-0.392-0.285l-0.358-1.106c-0.070-0.216 0.049-0.449 0.265-0.519s0.449 0.049 0.519 0.265l0.358 1.106c0.070 0.216-0.049 0.449-0.265 0.519-0.042 0.014-0.085 0.020-0.127 0.020z"></path>
<path d="M10.564 26.776c-0.105 0-0.211-0.040-0.291-0.121l-4.932-4.932c-0.161-0.161-0.161-0.422 0-0.583s0.422-0.161 0.583 0l4.932 4.932c0.161 0.161 0.161 0.422 0 0.583-0.081 0.080-0.186 0.121-0.291 0.121z"></path>
<path d="M26.851 7.596c-0.108 0-0.213-0.043-0.291-0.121l-2.023-2.024c-0.102-0.102-0.143-0.249-0.109-0.389l0.26-1.065c0.117-0.477 0.465-0.852 0.932-1.003l6.296-2.038c0.57-0.184 1.181-0.099 1.678 0.235s0.808 0.867 0.853 1.464c0.043 0.567-0.164 1.122-0.567 1.523s-0.96 0.604-1.527 0.557l-1.164-0.096-2.061 2.061c-0.303 0.303-0.684 0.518-1.101 0.62l-1.078 0.263c-0.032 0.008-0.065 0.012-0.098 0.012zM25.282 5.034l1.695 1.695 0.853-0.208c0.27-0.066 0.517-0.205 0.714-0.402l2.196-2.196c0.086-0.086 0.205-0.13 0.325-0.119l1.354 0.112c0.326 0.027 0.646-0.090 0.878-0.32s0.351-0.55 0.326-0.876c-0.026-0.343-0.205-0.65-0.491-0.842s-0.638-0.241-0.965-0.135l-6.296 2.038c-0.193 0.062-0.337 0.217-0.385 0.414l-0.205 0.84z"></path>
<path d="M12.459 23.122c-0.254 0-0.492-0.099-0.672-0.278l-2.636-2.636c-0.37-0.37-0.37-0.973 0-1.343l0.865-0.865c0.179-0.179 0.418-0.278 0.671-0.278s0.492 0.099 0.672 0.278l2.636 2.636c0.179 0.18 0.278 0.418 0.278 0.672s-0.099 0.492-0.278 0.671l-0.865 0.865c-0.179 0.18-0.418 0.278-0.671 0.278zM10.688 18.546c-0.024 0-0.058 0.006-0.089 0.037l-0.865 0.865c-0.049 0.049-0.049 0.129 0 0.177l2.636 2.636c0.030 0.030 0.065 0.037 0.089 0.037s0.058-0.006 0.089-0.037l0.865-0.865c0.030-0.030 0.037-0.065 0.037-0.089s-0.006-0.058-0.037-0.089l-2.636-2.636c-0.030-0.030-0.065-0.037-0.089-0.037z"></path>
</svg>
