<!-- Generated by IcoMoon.io -->
<svg version="1.1" xmlns="http://www.w3.org/2000/svg" width="32" height="32" viewBox="0 0 32 32">
<title>11</title>
<path d="M26.977 8.653c-0.097 0-0.193-0.037-0.267-0.111l-3.252-3.252c-0.148-0.148-0.148-0.387 0-0.535 2.411-2.411 4.942-4.218 6.604-4.716v0c0.329-0.098 0.685-0.007 0.931 0.238l0.73 0.73c0.245 0.245 0.336 0.602 0.238 0.931-0.498 1.662-2.305 4.193-4.716 6.604-0.074 0.074-0.171 0.111-0.267 0.111zM24.261 5.024l2.714 2.714c2.163-2.215 3.822-4.551 4.261-6.017 0.019-0.062 0-0.131-0.048-0.179l-0.73-0.73c-0.048-0.048-0.117-0.067-0.179-0.048-1.466 0.439-3.802 2.098-6.017 4.261z"></path>
<path d="M11.459 24.17c-0.097 0-0.194-0.037-0.267-0.111l-3.252-3.252c-0.148-0.148-0.148-0.387 0-0.535l15.518-15.518c0.148-0.148 0.387-0.148 0.535 0l3.252 3.252c0.148 0.148 0.148 0.387 0 0.535l-15.518 15.518c-0.074 0.074-0.171 0.111-0.267 0.111zM8.742 20.54l2.717 2.717 14.983-14.983-2.717-2.717-14.983 14.983z"></path>
<path d="M13.11 20.305c-0.363 0-0.725-0.138-1.002-0.414-0.267-0.267-0.415-0.623-0.415-1.002s0.147-0.734 0.415-1.002c0.552-0.552 1.451-0.552 2.003 0v0c0.552 0.552 0.552 1.451 0 2.003-0.276 0.276-0.639 0.414-1.002 0.414zM13.11 18.229c-0.169 0-0.338 0.064-0.467 0.193-0.125 0.125-0.193 0.29-0.193 0.467s0.069 0.342 0.193 0.467c0.257 0.257 0.676 0.257 0.934 0s0.257-0.676 0-0.933c-0.129-0.129-0.298-0.193-0.467-0.193z"></path>
<path d="M16.098 17.317c-0.363 0-0.725-0.138-1.002-0.414-0.552-0.552-0.552-1.451 0-2.003s1.451-0.552 2.003 0v0c0.552 0.552 0.552 1.451 0 2.003-0.276 0.276-0.639 0.414-1.002 0.414zM16.098 15.242c-0.169 0-0.338 0.064-0.467 0.193-0.257 0.257-0.257 0.676 0 0.933s0.676 0.257 0.933 0c0.257-0.257 0.257-0.676 0-0.934-0.129-0.129-0.298-0.193-0.467-0.193z"></path>
<path d="M19.086 14.329c-0.363 0-0.725-0.138-1.002-0.414-0.552-0.552-0.552-1.451 0-2.003s1.451-0.552 2.003 0v0c0.552 0.552 0.552 1.451 0 2.003-0.276 0.276-0.639 0.414-1.002 0.414zM19.086 12.254c-0.169 0-0.338 0.064-0.467 0.193-0.257 0.257-0.257 0.676 0 0.933s0.676 0.257 0.933 0c0.257-0.257 0.257-0.676 0-0.934-0.129-0.129-0.298-0.193-0.467-0.193z"></path>
<path d="M22.073 11.342c-0.378 0-0.734-0.147-1.002-0.415s-0.415-0.623-0.415-1.002 0.147-0.734 0.415-1.002c0.552-0.552 1.451-0.552 2.003 0v0c0.552 0.552 0.552 1.451 0 2.003-0.268 0.268-0.623 0.415-1.002 0.415zM22.073 9.266c-0.169 0-0.338 0.064-0.467 0.193-0.125 0.125-0.193 0.29-0.193 0.467s0.069 0.342 0.193 0.467c0.125 0.125 0.29 0.193 0.467 0.193s0.342-0.069 0.467-0.193c0.257-0.257 0.257-0.676 0-0.934-0.129-0.129-0.298-0.193-0.467-0.193z"></path>
<path d="M21.339 9.57c-0.097 0-0.194-0.037-0.267-0.111l-2.079-2.079c-0.148-0.148-0.148-0.387 0-0.535s0.387-0.148 0.535 0l2.079 2.079c0.148 0.148 0.148 0.387 0 0.535-0.074 0.074-0.17 0.111-0.267 0.111z"></path>
<path d="M18.352 12.558c-0.097 0-0.194-0.037-0.267-0.111l-2.079-2.079c-0.148-0.148-0.148-0.387 0-0.535s0.387-0.148 0.535 0l2.079 2.079c0.148 0.148 0.148 0.387 0 0.535-0.074 0.074-0.171 0.111-0.268 0.111z"></path>
<path d="M15.364 15.545c-0.097 0-0.194-0.037-0.267-0.111l-2.079-2.079c-0.148-0.148-0.148-0.387 0-0.535s0.387-0.148 0.535 0l2.079 2.079c0.148 0.148 0.148 0.387 0 0.535-0.074 0.074-0.171 0.111-0.267 0.111z"></path>
<path d="M12.376 18.533c-0.097 0-0.194-0.037-0.267-0.111l-2.079-2.079c-0.148-0.148-0.148-0.387 0-0.535s0.387-0.148 0.535 0l2.079 2.079c0.148 0.148 0.148 0.387 0 0.535-0.074 0.074-0.171 0.111-0.267 0.111z"></path>
<path d="M9.158 17.593c-0.097 0-0.193-0.037-0.267-0.111-0.148-0.148-0.148-0.387 0-0.535l11.241-11.241c0.148-0.148 0.387-0.148 0.535 0s0.148 0.387 0 0.535l-11.241 11.241c-0.074 0.074-0.171 0.111-0.267 0.111z"></path>
<path d="M8.488 32c-0.374 0-0.725-0.146-0.99-0.41l-7.088-7.088c-0.546-0.546-0.546-1.434 0-1.98 0.264-0.264 0.616-0.41 0.99-0.41 0 0 0 0 0 0 0.374 0 0.725 0.146 0.99 0.41 0.781 0.781 3.253 0.049 5.551-2.249 0.148-0.148 0.387-0.148 0.535 0l3.252 3.252c0.148 0.148 0.148 0.387 0 0.535-1.075 1.076-1.891 2.273-2.298 3.372-0.365 0.988-0.348 1.782 0.049 2.179 0 0 0 0 0 0 0.546 0.546 0.546 1.434 0 1.98-0.265 0.264-0.616 0.41-0.99 0.41zM1.399 22.868c-0.172 0-0.334 0.067-0.455 0.188-0.251 0.251-0.251 0.659 0 0.91l7.088 7.088c0.122 0.122 0.283 0.188 0.455 0.188s0.334-0.067 0.455-0.188c0.251-0.251 0.251-0.659 0-0.91-0.623-0.623-0.702-1.679-0.223-2.975 0.409-1.106 1.187-2.293 2.209-3.374l-2.724-2.724c-1.693 1.601-3.543 2.51-4.907 2.511-0.588 0-1.086-0.169-1.442-0.525-0.122-0.122-0.283-0.188-0.455-0.188z"></path>
</svg>
