<!-- Generated by IcoMoon.io -->
<svg version="1.1" xmlns="http://www.w3.org/2000/svg" width="36" height="32" viewBox="0 0 36 32">
<title>14</title>
<path d="M33.468 5.906c-0.326 0-0.651-0.124-0.899-0.372l-2.571-2.571c-0.496-0.496-0.496-1.302 0-1.798l0.794-0.794c0.496-0.496 1.302-0.495 1.798 0l2.571 2.571c0.496 0.496 0.496 1.302 0 1.798l-0.794 0.794c-0.248 0.248-0.573 0.372-0.899 0.372zM31.69 0.831c-0.113 0-0.225 0.043-0.311 0.129l-0.794 0.794c-0.172 0.172-0.172 0.451 0 0.622l2.571 2.571c0.172 0.172 0.451 0.172 0.622 0l0.794-0.794c0.172-0.172 0.172-0.451 0-0.622l-2.571-2.571c-0.086-0.086-0.198-0.129-0.311-0.129z"></path>
<path d="M29.964 8.555c-0.106 0-0.213-0.041-0.294-0.122l-2.571-2.571c-0.078-0.078-0.122-0.184-0.122-0.294s0.044-0.216 0.122-0.294l2.899-2.899c0.078-0.078 0.184-0.122 0.294-0.122s0.216 0.044 0.294 0.122l2.571 2.571c0.162 0.162 0.162 0.425 0 0.588l-2.899 2.899c-0.081 0.081-0.188 0.122-0.294 0.122zM27.98 5.568l1.983 1.984 2.311-2.311-1.983-1.984-2.311 2.311z"></path>
<path d="M15.542 28.471c-0.259 0-0.502-0.101-0.684-0.284l-7.513-7.513c-0.378-0.378-0.378-0.992 0-1.369l1.613-1.613c0.377-0.377 0.992-0.377 1.369 0l7.513 7.513c0.378 0.378 0.378 0.992 0 1.369l-1.613 1.613c-0.183 0.183-0.426 0.284-0.685 0.284zM9.545 18.28l-1.613 1.613c-0.053 0.053-0.053 0.14 0 0.194l7.513 7.513c0.035 0.035 0.076 0.040 0.097 0.040s0.062-0.005 0.097-0.040l1.613-1.613c0.053-0.053 0.053-0.14 0-0.194l-7.513-7.513c-0.053-0.053-0.14-0.053-0.194 0v0z"></path>
<path d="M15.68 24.049c-0.11 0-0.216-0.044-0.294-0.122l-3.781-3.781c-0.162-0.162-0.162-0.425 0-0.588l14.523-14.523c0.364-0.363 0.955-0.364 1.319 0l3.050 3.050c0.364 0.364 0.364 0.955 0 1.319l-14.523 14.523c-0.078 0.078-0.184 0.122-0.294 0.122zM12.487 19.852l3.194 3.194 14.229-14.229c0.040-0.040 0.040-0.104 0-0.143l-3.050-3.050c-0.040-0.039-0.104-0.040-0.143 0l-14.229 14.229z"></path>
<path d="M29.378 3.999c-0.106 0-0.213-0.041-0.294-0.122l-1.068-1.068c-0.162-0.162-0.162-0.425 0-0.588s0.425-0.162 0.588 0l1.068 1.068c0.162 0.162 0.162 0.425 0 0.588-0.081 0.081-0.188 0.122-0.294 0.122z"></path>
<path d="M28.385 4.991c-0.106 0-0.213-0.041-0.294-0.122l-1.068-1.068c-0.162-0.162-0.162-0.425 0-0.588s0.425-0.162 0.588 0l1.068 1.068c0.162 0.162 0.162 0.425 0 0.588-0.081 0.081-0.187 0.122-0.294 0.122z"></path>
<path d="M33.017 7.638c-0.106 0-0.213-0.041-0.294-0.122l-1.068-1.068c-0.162-0.162-0.162-0.425 0-0.588s0.425-0.162 0.588 0l1.068 1.068c0.162 0.162 0.162 0.425 0 0.588-0.081 0.081-0.187 0.122-0.294 0.122z"></path>
<path d="M32.025 8.631c-0.106 0-0.213-0.041-0.294-0.122l-1.068-1.068c-0.162-0.162-0.162-0.425 0-0.588s0.425-0.162 0.588 0l1.068 1.068c0.162 0.162 0.162 0.426 0 0.588-0.081 0.081-0.187 0.122-0.294 0.122z"></path>
<path d="M14.943 32c-2.825 0-5.71-1.118-7.925-3.334-2.065-2.065-3.249-4.765-3.334-7.603-0.086-2.847 0.944-5.492 2.9-7.448 2.562-2.562 5.81-4.687 9.145-5.983 3.31-1.286 6.415-1.631 8.784-0.981l1.617-1.617c0.364-0.364 0.955-0.364 1.319 0l3.050 3.050c0.364 0.364 0.364 0.955 0 1.319l-1.534 1.534c1.494 4.852-1.491 12.758-6.896 18.164-1.938 1.938-4.507 2.899-7.125 2.899zM21.954 7.162c-4.515 0-10.495 2.753-14.783 7.041-1.792 1.792-2.735 4.219-2.656 6.835 0.079 2.625 1.177 5.126 3.091 7.040 3.945 3.945 10.17 4.14 13.875 0.435 2.525-2.525 4.604-5.725 5.854-9.008 1.258-3.307 1.529-6.341 0.763-8.544-0.052-0.15-0.014-0.318 0.099-0.43l1.714-1.714c0.040-0.040 0.040-0.104 0-0.143l-3.050-3.050c-0.040-0.040-0.104-0.039-0.143 0l-1.791 1.791c-0.109 0.109-0.27 0.149-0.417 0.103-0.773-0.239-1.634-0.354-2.555-0.354z"></path>
<path d="M10.766 15.341c-0.267 0-0.5-0.082-0.689-0.272-0.162-0.162-0.162-0.425 0-0.588s0.425-0.162 0.588 0c0.034 0.034 0.238 0.070 0.771-0.167 0.519-0.231 1.165-0.634 1.789-1.024 1.539-0.962 2.869-1.793 3.588-1.074 0.162 0.162 0.162 0.425 0 0.588s-0.425 0.162-0.588 0c-0.034-0.034-0.238-0.070-0.771 0.167-0.519 0.231-1.165 0.634-1.789 1.024-1.133 0.708-2.153 1.345-2.899 1.345z"></path>
<path d="M20.908 25.728c-0.106 0-0.213-0.041-0.294-0.122-0.719-0.719 0.112-2.049 1.074-3.588 0.39-0.624 0.793-1.269 1.024-1.789 0.237-0.533 0.201-0.737 0.167-0.771-0.162-0.162-0.162-0.425 0-0.588s0.425-0.162 0.588 0c0.719 0.719-0.112 2.049-1.074 3.588-0.39 0.624-0.793 1.269-1.024 1.789-0.237 0.533-0.201 0.737-0.167 0.771 0.162 0.162 0.162 0.425 0 0.588-0.081 0.081-0.187 0.122-0.294 0.122z"></path>
<path d="M5.785 30.314c-0.11 0-0.216-0.044-0.294-0.122l-3.878-3.878-0.904 0.904c-0.162 0.162-0.425 0.162-0.588 0s-0.162-0.425 0-0.588l1.198-1.198c0.162-0.162 0.425-0.162 0.588 0l3.878 3.878 1.232-1.232c0.162-0.162 0.425-0.162 0.588 0s0.162 0.425 0 0.587l-1.526 1.526c-0.078 0.078-0.184 0.121-0.294 0.121z"></path>
</svg>
