<!-- Generated by IcoMoon.io -->
<svg version="1.1" xmlns="http://www.w3.org/2000/svg" width="27" height="32" viewBox="0 0 27 32">
<title>15</title>
<path d="M22.063 16.283h-3.615c-0.227 0-0.411-0.184-0.411-0.411s0.184-0.411 0.411-0.411h3.615c0.227 0 0.411 0.184 0.411 0.411s-0.184 0.411-0.411 0.411z"></path>
<path d="M22.574 25.589h-4.637c-0.227 0-0.411-0.184-0.411-0.411s0.184-0.411 0.411-0.411h4.637c0.227 0 0.411 0.184 0.411 0.411s-0.184 0.411-0.411 0.411z"></path>
<path d="M20.255 27.908c-1.505 0-2.729-1.224-2.729-2.729 0-2.067 0.086-4.159 0.255-6.219l0.257-3.121c0.078-0.946-0.352-1.872-1.121-2.417-1.881-1.333-3.004-3.639-3.004-6.168 0-4 2.845-7.254 6.342-7.254s6.342 3.254 6.342 7.254c0 2.529-1.123 4.835-3.004 6.168-0.769 0.545-1.198 1.471-1.121 2.417l0.257 3.121c0.169 2.060 0.255 4.153 0.255 6.219 0 1.505-1.224 2.729-2.729 2.729zM20.255 0.822c-3.044 0-5.52 2.886-5.52 6.432 0 2.263 0.994 4.318 2.658 5.498 1.005 0.712 1.566 1.921 1.465 3.155l-0.257 3.121c-0.168 2.037-0.253 4.107-0.253 6.151 0 1.052 0.856 1.908 1.908 1.908s1.908-0.856 1.908-1.908c0-2.044-0.085-4.113-0.253-6.152l-0.257-3.121c-0.101-1.234 0.46-2.442 1.464-3.155 1.664-1.179 2.658-3.235 2.658-5.498 0-3.547-2.476-6.432-5.52-6.432z"></path>
<path d="M8.149 20.376h-3.615c-0.227 0-0.411-0.184-0.411-0.411s0.184-0.411 0.411-0.411h3.615c0.227 0 0.411 0.184 0.411 0.411s-0.184 0.411-0.411 0.411z"></path>
<path d="M8.66 29.682h-4.637c-0.227 0-0.411-0.184-0.411-0.411s0.184-0.411 0.411-0.411h4.637c0.227 0 0.411 0.184 0.411 0.411s-0.184 0.411-0.411 0.411z"></path>
<path d="M6.342 32c-1.505 0-2.729-1.224-2.729-2.729 0-2.067 0.086-4.16 0.255-6.219l0.257-3.121c0.078-0.946-0.352-1.872-1.121-2.417v0c-1.881-1.333-3.004-3.639-3.004-6.168 0-4 2.845-7.254 6.342-7.254s6.342 3.254 6.342 7.254c0 2.529-1.123 4.835-3.004 6.168-0.769 0.545-1.198 1.471-1.121 2.417l0.257 3.121c0.169 2.060 0.255 4.152 0.255 6.219 0 1.505-1.224 2.729-2.729 2.729zM3.479 16.844c1.005 0.712 1.566 1.921 1.465 3.155l-0.257 3.121c-0.168 2.037-0.253 4.107-0.253 6.151 0 1.052 0.856 1.908 1.908 1.908s1.908-0.856 1.908-1.908c0-2.044-0.085-4.114-0.253-6.152l-0.257-3.121c-0.101-1.234 0.46-2.442 1.465-3.155 1.664-1.179 2.658-3.235 2.658-5.498 0-3.547-2.476-6.432-5.52-6.432s-5.52 2.886-5.52 6.433c0 2.263 0.994 4.319 2.657 5.498v0z"></path>
</svg>
