<!-- Generated by IcoMoon.io -->
<svg version="1.1" xmlns="http://www.w3.org/2000/svg" width="32" height="32" viewBox="0 0 32 32">
<title>16</title>
<path d="M31.17 12.128h-14.068c-0.239 0-0.467-0.103-0.625-0.284s-0.229-0.42-0.197-0.657l0.082-0.604c0.074-0.544 0.543-0.954 1.092-0.954h13.365c0.549 0 1.018 0.41 1.092 0.954l0.082 0.604c0.032 0.237-0.040 0.477-0.197 0.657s-0.385 0.284-0.625 0.284zM17.454 10.35c-0.19 0-0.352 0.142-0.378 0.33l-0.082 0.604c-0.006 0.043 0.014 0.073 0.026 0.087s0.039 0.037 0.082 0.037h14.068c0.043 0 0.070-0.023 0.082-0.037s0.032-0.044 0.026-0.087l-0.082-0.604c-0.025-0.188-0.188-0.33-0.378-0.33h-13.366z"></path>
<path d="M24.136 21.852c-1.541 0-2.791-0.756-3.716-2.248-1.024-1.652-1.675-4.279-1.936-7.809-0.007-0.1 0.027-0.198 0.095-0.272s0.164-0.115 0.264-0.115h10.584c0.1 0 0.196 0.042 0.264 0.115s0.103 0.172 0.095 0.272c-0.26 3.53-0.911 6.157-1.936 7.809-0.924 1.491-2.175 2.248-3.716 2.248zM19.234 12.128c0.269 3.217 0.873 5.603 1.799 7.096 0.796 1.283 1.811 1.907 3.103 1.907s2.308-0.624 3.104-1.907c0.926-1.493 1.53-3.879 1.799-7.096h-9.805z"></path>
<path d="M28.679 26.523h-9.086c-0.139 0-0.265-0.080-0.325-0.205s-0.042-0.274 0.044-0.381c1.058-1.313 2.861-2.096 4.823-2.096s3.765 0.784 4.824 2.096c0.087 0.108 0.104 0.256 0.044 0.381s-0.186 0.205-0.325 0.205zM20.452 25.802h7.37c-0.94-0.788-2.262-1.242-3.685-1.242s-2.745 0.454-3.685 1.242z"></path>
<path d="M19.593 26.523c-0.172 0-0.324-0.124-0.355-0.299l-2.491-14.394c-0.034-0.196 0.098-0.383 0.294-0.416s0.383 0.098 0.416 0.293l2.491 14.394c0.034 0.196-0.098 0.383-0.294 0.416-0.021 0.004-0.041 0.005-0.061 0.005z"></path>
<path d="M28.68 26.523c-0.020 0-0.041-0.002-0.062-0.005-0.196-0.034-0.327-0.22-0.294-0.416l2.491-14.394c0.034-0.196 0.22-0.328 0.416-0.293s0.327 0.22 0.294 0.416l-2.491 14.394c-0.030 0.175-0.182 0.299-0.354 0.299z"></path>
<path d="M24.136 26.523c-0.199 0-0.36-0.161-0.36-0.36v-14.394c0-0.199 0.161-0.36 0.36-0.36s0.36 0.161 0.36 0.36v14.394c0 0.199-0.161 0.36-0.36 0.36z"></path>
<path d="M14.898 12.128h-14.068c-0.24 0-0.467-0.103-0.625-0.284s-0.229-0.42-0.197-0.657l0.082-0.604c0.074-0.544 0.543-0.954 1.092-0.954h13.365c0.549 0 1.018 0.41 1.092 0.954l0.082 0.604c0.032 0.237-0.040 0.477-0.197 0.657s-0.385 0.284-0.625 0.284zM1.181 10.35c-0.19 0-0.352 0.142-0.378 0.33l-0.082 0.604c-0.006 0.043 0.014 0.073 0.026 0.087s0.039 0.037 0.082 0.037h14.068c0.043 0 0.070-0.023 0.082-0.037s0.032-0.044 0.026-0.087l-0.082-0.604c-0.025-0.188-0.188-0.33-0.378-0.33h-13.366z"></path>
<path d="M7.864 21.852c-1.541 0-2.791-0.756-3.716-2.248-1.024-1.652-1.675-4.279-1.936-7.809-0.007-0.1 0.027-0.198 0.095-0.272s0.164-0.115 0.264-0.115h10.584c0.1 0 0.196 0.042 0.264 0.115s0.103 0.172 0.095 0.272c-0.26 3.53-0.911 6.157-1.936 7.809-0.925 1.491-2.175 2.248-3.716 2.248zM2.961 12.128c0.269 3.217 0.873 5.603 1.799 7.096 0.796 1.283 1.811 1.907 3.104 1.907s2.308-0.624 3.104-1.907c0.926-1.493 1.53-3.879 1.799-7.096h-9.805z"></path>
<path d="M12.407 26.523h-9.086c-0.139 0-0.265-0.080-0.325-0.205s-0.042-0.274 0.045-0.381c1.058-1.313 2.862-2.096 4.823-2.096s3.765 0.784 4.823 2.096c0.087 0.108 0.104 0.256 0.044 0.381s-0.186 0.205-0.325 0.205zM4.179 25.802h7.37c-0.94-0.788-2.262-1.242-3.685-1.242s-2.745 0.454-3.685 1.242z"></path>
<path d="M3.32 26.523c-0.172 0-0.324-0.124-0.354-0.299l-2.491-14.394c-0.034-0.196 0.098-0.383 0.293-0.416s0.382 0.098 0.416 0.293l2.491 14.394c0.034 0.196-0.098 0.383-0.294 0.416-0.021 0.004-0.041 0.005-0.062 0.005z"></path>
<path d="M12.407 26.523c-0.020 0-0.041-0.002-0.062-0.005-0.196-0.034-0.327-0.22-0.293-0.416l2.491-14.394c0.034-0.196 0.22-0.328 0.416-0.293s0.327 0.22 0.293 0.416l-2.491 14.394c-0.030 0.175-0.183 0.299-0.354 0.299z"></path>
<path d="M7.864 26.523c-0.199 0-0.36-0.161-0.36-0.36v-14.394c0-0.199 0.161-0.36 0.36-0.36s0.36 0.161 0.36 0.36v14.394c0 0.199-0.161 0.36-0.36 0.36z"></path>
<path d="M24.277 8.038c-0.706 0-1.28-0.574-1.28-1.28s0.574-1.28 1.28-1.28c0.706 0 1.28 0.574 1.28 1.28s-0.574 1.28-1.28 1.28zM24.277 6.198c-0.309 0-0.56 0.251-0.56 0.56s0.251 0.56 0.56 0.56c0.309 0 0.56-0.251 0.56-0.56s-0.251-0.56-0.56-0.56z"></path>
<path d="M23.358 7.118h-5.717c-0.199 0-0.36-0.161-0.36-0.36s0.161-0.36 0.36-0.36h5.717c0.199 0 0.36 0.161 0.36 0.36s-0.161 0.36-0.36 0.36z"></path>
<path d="M7.723 8.038c-0.706 0-1.28-0.574-1.28-1.28s0.574-1.28 1.28-1.28 1.28 0.574 1.28 1.28c-0 0.706-0.574 1.28-1.28 1.28zM7.723 6.198c-0.309 0-0.56 0.251-0.56 0.56s0.251 0.56 0.56 0.56c0.309 0 0.56-0.251 0.56-0.56s-0.251-0.56-0.56-0.56z"></path>
<path d="M14.36 7.118h-5.717c-0.199 0-0.36-0.161-0.36-0.36s0.161-0.36 0.36-0.36h5.717c0.199 0 0.36 0.161 0.36 0.36s-0.161 0.36-0.36 0.36z"></path>
</svg>
