<!-- Generated by IcoMoon.io -->
<svg version="1.1" xmlns="http://www.w3.org/2000/svg" width="38" height="32" viewBox="0 0 38 32">
<title>18</title>
<path d="M5.938 31.618c-0.821 0-1.55-0.591-1.695-1.426l-4.218-24.233c-0.163-0.935 0.466-1.828 1.401-1.991v0l3.625-0.631c0.26-0.045 0.506 0.128 0.551 0.388l4.644 26.686c0.022 0.124-0.007 0.253-0.080 0.356s-0.184 0.174-0.308 0.195l-3.625 0.631c-0.099 0.018-0.199 0.026-0.296 0.026zM1.59 4.906c-0.418 0.073-0.698 0.471-0.625 0.889l4.218 24.233c0.073 0.418 0.471 0.698 0.889 0.625l3.156-0.549-4.481-25.747-3.156 0.549z"></path>
<path d="M1.313 11.057c-0.227 0-0.429-0.163-0.469-0.395l-0.516-2.965c-0.022-0.124 0.007-0.253 0.080-0.356s0.184-0.174 0.308-0.195l4.852-0.844c0.26-0.045 0.506 0.128 0.551 0.388l0.516 2.965c0.022 0.124-0.007 0.252-0.080 0.356s-0.184 0.174-0.308 0.195l-4.852 0.844c-0.028 0.005-0.055 0.007-0.082 0.007zM1.349 8.003l0.353 2.026 3.913-0.681-0.353-2.026-3.913 0.681z"></path>
<path d="M1.83 14.022c-0.097 0-0.193-0.030-0.274-0.087-0.103-0.073-0.174-0.184-0.195-0.308l-0.516-2.965c-0.045-0.259 0.129-0.506 0.388-0.551l4.852-0.844c0.125-0.022 0.253 0.007 0.356 0.080s0.174 0.184 0.195 0.308l0.516 2.965c0.045 0.259-0.128 0.506-0.388 0.551l-4.852 0.844c-0.027 0.005-0.054 0.007-0.082 0.007zM1.865 10.968l0.353 2.026 3.913-0.681-0.353-2.026-3.913 0.681z"></path>
<path d="M2.345 16.987c-0.227 0-0.429-0.163-0.469-0.395l-0.516-2.965c-0.022-0.124 0.007-0.252 0.080-0.356s0.184-0.174 0.308-0.195l4.852-0.844c0.26-0.045 0.506 0.129 0.551 0.388l0.516 2.965c0.022 0.124-0.007 0.252-0.080 0.356s-0.184 0.174-0.308 0.195l-4.852 0.844c-0.028 0.005-0.055 0.007-0.082 0.007zM2.381 13.933l0.353 2.026 3.913-0.681-0.353-2.026-3.913 0.681z"></path>
<path d="M2.861 19.952c-0.227 0-0.429-0.163-0.469-0.395l-0.516-2.965c-0.022-0.124 0.007-0.253 0.080-0.356s0.184-0.174 0.308-0.195l4.852-0.844c0.125-0.022 0.253 0.007 0.356 0.080s0.174 0.184 0.195 0.308l0.516 2.965c0.045 0.259-0.129 0.506-0.388 0.551l-4.852 0.844c-0.028 0.005-0.055 0.007-0.082 0.007zM2.897 16.898l0.353 2.026 3.913-0.681-0.353-2.026-3.913 0.681z"></path>
<path d="M3.378 22.917c-0.098 0-0.193-0.030-0.274-0.087-0.103-0.073-0.174-0.184-0.195-0.308l-0.516-2.965c-0.045-0.259 0.128-0.506 0.388-0.551l4.852-0.844c0.26-0.045 0.506 0.128 0.551 0.388l0.516 2.965c0.022 0.124-0.007 0.253-0.080 0.356s-0.184 0.174-0.308 0.195l-4.852 0.844c-0.027 0.005-0.055 0.007-0.082 0.007zM3.413 19.863l0.353 2.026 3.913-0.681-0.353-2.026-3.913 0.681z"></path>
<path d="M3.893 25.882c-0.227 0-0.429-0.163-0.469-0.395l-0.516-2.965c-0.022-0.124 0.007-0.253 0.080-0.356s0.184-0.174 0.308-0.195l4.852-0.844c0.125-0.022 0.252 0.007 0.356 0.080s0.174 0.184 0.195 0.308l0.516 2.965c0.045 0.259-0.129 0.506-0.388 0.551l-4.852 0.844c-0.028 0.005-0.055 0.007-0.082 0.007zM3.929 22.828l0.353 2.026 3.913-0.681-0.353-2.026-3.913 0.681z"></path>
<path d="M4.41 28.847c-0.098 0-0.193-0.030-0.274-0.087-0.103-0.073-0.174-0.184-0.195-0.308l-0.516-2.965c-0.045-0.259 0.128-0.506 0.388-0.551l4.852-0.844c0.259-0.045 0.506 0.128 0.551 0.388l0.516 2.965c0.022 0.124-0.007 0.253-0.080 0.356s-0.184 0.174-0.308 0.195l-4.852 0.844c-0.027 0.005-0.055 0.007-0.082 0.007zM4.445 25.794l0.353 2.026 3.913-0.681-0.353-2.026-3.913 0.681z"></path>
<path d="M11.001 32c-0.351 0-0.693-0.108-0.987-0.314-0.376-0.265-0.627-0.66-0.705-1.113l-4.644-26.686c-0.079-0.453 0.023-0.91 0.288-1.286s0.66-0.627 1.113-0.706l5.437-0.946c0.453-0.079 0.91 0.023 1.286 0.288s0.627 0.66 0.705 1.113l4.645 26.686c0.163 0.935-0.466 1.828-1.401 1.991l-5.437 0.946c-0.1 0.018-0.2 0.026-0.299 0.026zM11.665 1.889l-5.437 0.946c-0.202 0.035-0.379 0.147-0.497 0.315s-0.164 0.372-0.128 0.574l4.645 26.686c0.035 0.202 0.147 0.379 0.315 0.497s0.372 0.164 0.574 0.128l5.437-0.946c0.417-0.073 0.698-0.471 0.625-0.889l-4.645-26.685c-0.073-0.418-0.472-0.698-0.889-0.625v0z"></path>
<path d="M31.521 32c-0.099 0-0.199-0.009-0.299-0.026l-5.437-0.946c-0.453-0.079-0.848-0.329-1.113-0.705s-0.367-0.833-0.288-1.286l4.644-26.686c0.163-0.935 1.056-1.563 1.991-1.401l5.437 0.946c0.935 0.163 1.563 1.056 1.401 1.991l-4.644 26.686c-0.079 0.453-0.329 0.848-0.705 1.113-0.293 0.206-0.636 0.314-0.987 0.314zM30.724 1.878c-0.366 0-0.692 0.264-0.757 0.637l-4.644 26.686c-0.035 0.202 0.010 0.406 0.128 0.574s0.294 0.28 0.497 0.315l5.437 0.946c0.417 0.072 0.816-0.208 0.889-0.625l4.644-26.686c0.073-0.417-0.208-0.816-0.625-0.889l-5.437-0.946c-0.044-0.008-0.088-0.011-0.132-0.011z"></path>
<path d="M21.261 30.529c-0.263 0-0.476-0.213-0.476-0.476v-29.577c0-0.263 0.213-0.476 0.476-0.476s0.476 0.213 0.476 0.476v29.577c0 0.263-0.213 0.476-0.476 0.476z"></path>
<path d="M22.96 30.603c-0.014 0-0.028-0.001-0.042-0.002-0.262-0.023-0.456-0.254-0.434-0.516l2.548-29.467c0.023-0.262 0.253-0.456 0.516-0.434 0.262 0.023 0.456 0.254 0.434 0.516l-2.548 29.467c-0.022 0.248-0.23 0.436-0.474 0.436z"></path>
<path d="M19.562 30.603c-0.245 0-0.453-0.187-0.474-0.436l-2.548-29.466c-0.023-0.262 0.171-0.493 0.434-0.516 0.26-0.023 0.493 0.171 0.516 0.434l2.548 29.467c0.023 0.262-0.171 0.493-0.434 0.516-0.014 0.001-0.028 0.002-0.042 0.002z"></path>
<path d="M19.126 3.305c-0.958 0-1.849-0.462-2.405-1.252-0.049-0.069-0.078-0.149-0.085-0.233l-0.097-1.119c-0.023-0.262 0.171-0.493 0.434-0.516s0.493 0.171 0.516 0.434l0.085 0.984c0.396 0.497 1.003 0.775 1.64 0.747 0.64-0.028 1.218-0.356 1.57-0.886v-0.988c0-0.263 0.213-0.476 0.476-0.476s0.476 0.213 0.476 0.476v1.123c0 0.084-0.022 0.167-0.064 0.239-0.507 0.873-1.411 1.419-2.417 1.463-0.043 0.002-0.086 0.003-0.129 0.003z"></path>
<path d="M14.876 3.673c-0.863 0-1.683-0.378-2.249-1.051-0.169-0.201-0.144-0.502 0.058-0.671s0.502-0.143 0.671 0.058c0.439 0.523 1.105 0.782 1.78 0.694 0.635-0.083 1.183-0.46 1.488-1.018l-0.085-0.984c-0.023-0.262 0.171-0.493 0.434-0.516s0.493 0.171 0.516 0.434l0.097 1.119c0.007 0.084-0.008 0.168-0.044 0.244-0.43 0.913-1.283 1.535-2.282 1.665-0.129 0.017-0.257 0.025-0.384 0.025z"></path>
<path d="M23.395 3.305c-0.043 0-0.086-0.001-0.129-0.003-1.006-0.043-1.91-0.59-2.417-1.463-0.042-0.073-0.064-0.155-0.064-0.239v-1.124c-0-0.263 0.213-0.476 0.476-0.476s0.476 0.213 0.476 0.476v0.988c0.352 0.53 0.93 0.858 1.57 0.886s1.244-0.25 1.64-0.747l0.085-0.984c0.023-0.262 0.255-0.456 0.516-0.434 0.262 0.023 0.456 0.254 0.434 0.516l-0.097 1.119c-0.007 0.084-0.037 0.164-0.085 0.233-0.556 0.79-1.448 1.252-2.405 1.252z"></path>
<path d="M27.646 3.673c-0.127 0-0.255-0.008-0.384-0.025-0.999-0.13-1.852-0.753-2.282-1.665-0.036-0.076-0.051-0.16-0.044-0.244l0.097-1.119c0.023-0.262 0.255-0.456 0.516-0.434 0.262 0.023 0.456 0.254 0.434 0.516l-0.085 0.984c0.305 0.558 0.853 0.935 1.488 1.018 0.675 0.088 1.341-0.172 1.78-0.694 0.169-0.201 0.47-0.227 0.671-0.058s0.227 0.47 0.058 0.671c-0.566 0.673-1.386 1.051-2.249 1.051z"></path>
<path d="M19.562 30.603c-0.245 0-0.453-0.187-0.474-0.435l-0.047-0.542c-0.032-0.37 0.085-0.728 0.331-1.008s0.585-0.442 0.956-0.458c0.371-0.017 0.724 0.117 0.993 0.374s0.416 0.604 0.416 0.975v0.544c0 0.263-0.213 0.476-0.476 0.476s-0.476-0.213-0.476-0.476v-0.544c0-0.109-0.044-0.211-0.123-0.287s-0.182-0.116-0.292-0.11c-0.109 0.005-0.209 0.053-0.282 0.135s-0.107 0.188-0.098 0.297l0.047 0.542c0.023 0.262-0.171 0.493-0.434 0.516-0.014 0.002-0.028 0.002-0.042 0.002z"></path>
<path d="M22.96 30.603c-0.014 0-0.028-0.001-0.042-0.002-0.262-0.023-0.456-0.254-0.434-0.516l0.047-0.542c0.009-0.109-0.025-0.215-0.098-0.297s-0.172-0.13-0.282-0.135c-0.109-0.005-0.213 0.034-0.292 0.11s-0.123 0.178-0.123 0.287v0.544c0 0.263-0.213 0.476-0.476 0.476s-0.476-0.213-0.476-0.476v-0.544c0-0.372 0.148-0.718 0.416-0.975s0.619-0.39 0.993-0.374c0.372 0.016 0.711 0.179 0.956 0.458s0.363 0.637 0.331 1.008l-0.047 0.542c-0.022 0.248-0.23 0.436-0.474 0.436z"></path>
<path d="M22.96 30.603c-0.014 0-0.028-0.001-0.042-0.002-0.262-0.023-0.456-0.254-0.434-0.516l0.047-0.542c0.033-0.385 0.218-0.732 0.519-0.974s0.679-0.349 1.063-0.299c0.614 0.080 1.111 0.563 1.208 1.174 0.041 0.26-0.136 0.504-0.396 0.545s-0.504-0.136-0.545-0.396c-0.031-0.197-0.191-0.352-0.39-0.378-0.124-0.016-0.246 0.018-0.343 0.096s-0.157 0.19-0.167 0.314l-0.047 0.542c-0.022 0.248-0.23 0.435-0.474 0.435z"></path>
<path d="M19.562 30.603c-0.245 0-0.453-0.187-0.474-0.435l-0.047-0.542c-0.011-0.124-0.070-0.236-0.167-0.314s-0.219-0.112-0.343-0.096c-0.198 0.026-0.358 0.181-0.39 0.378-0.041 0.26-0.284 0.437-0.545 0.396s-0.437-0.285-0.396-0.545c0.097-0.611 0.593-1.094 1.208-1.174 0.384-0.050 0.761 0.056 1.063 0.299s0.486 0.589 0.519 0.974l0.047 0.542c0.023 0.262-0.171 0.493-0.434 0.516-0.014 0.002-0.028 0.002-0.042 0.002z"></path>
</svg>
