<!-- Generated by IcoMoon.io -->
<svg version="1.1" xmlns="http://www.w3.org/2000/svg" width="41" height="32" viewBox="0 0 41 32">
<title>19</title>
<path d="M29.133 12.693c-0.442 0-0.883-0.168-1.219-0.504-0.672-0.672-0.672-1.766 0-2.438s1.766-0.672 2.438 0c0.672 0.672 0.672 1.766 0 2.438 0 0 0 0 0 0-0.336 0.336-0.778 0.504-1.219 0.504zM30.051 11.887v0zM29.133 10.098c-0.223 0-0.447 0.085-0.617 0.255-0.34 0.34-0.34 0.893 0 1.233s0.893 0.34 1.233 0v0c0.34-0.34 0.34-0.893 0-1.233-0.17-0.17-0.393-0.255-0.617-0.255z"></path>
<path d="M27.298 14.528c-0.442 0-0.883-0.168-1.219-0.504-0.672-0.672-0.672-1.766 0-2.438s1.766-0.672 2.438 0c0.672 0.672 0.672 1.766 0 2.438-0.336 0.336-0.777 0.504-1.219 0.504zM27.298 11.933c-0.223 0-0.447 0.085-0.617 0.255-0.34 0.34-0.34 0.893 0 1.233s0.893 0.34 1.233 0c0.34-0.34 0.34-0.893 0-1.233-0.17-0.17-0.393-0.255-0.617-0.255z"></path>
<path d="M25.462 16.364c-0.442 0-0.883-0.168-1.219-0.504-0.672-0.672-0.672-1.766 0-2.438s1.766-0.672 2.438 0c0.672 0.672 0.672 1.766 0 2.438 0 0 0 0 0 0-0.336 0.336-0.777 0.504-1.219 0.504zM26.38 15.558v0zM25.462 13.769c-0.223 0-0.447 0.085-0.617 0.255-0.34 0.34-0.34 0.893 0 1.233s0.893 0.34 1.233 0c0.34-0.34 0.34-0.893 0-1.233-0.17-0.17-0.393-0.255-0.617-0.255z"></path>
<path d="M31.805 15.902c-0.109 0-0.218-0.042-0.301-0.125l-3.589-3.589c-0.083-0.083-0.125-0.192-0.125-0.301s0.042-0.218 0.125-0.301c0.167-0.166 0.436-0.166 0.603 0 0.34 0.34 0.893 0.34 1.233 0s0.34-0.893 0-1.233c-0.083-0.083-0.125-0.192-0.125-0.301s0.042-0.218 0.125-0.301c0.166-0.166 0.436-0.166 0.603 0l3.589 3.589c0.080 0.080 0.125 0.188 0.125 0.301s-0.045 0.221-0.125 0.301l-1.836 1.835c-0.083 0.083-0.192 0.125-0.301 0.125zM29.568 12.637l2.237 2.237 1.233-1.233-2.237-2.237c-0.075 0.287-0.224 0.559-0.449 0.784s-0.497 0.374-0.784 0.449z"></path>
<path d="M30.053 10.477c-0.235 0-0.427-0.191-0.427-0.426s0.19-0.426 0.425-0.426h0.001c0.235 0 0.426 0.191 0.426 0.426s-0.19 0.426-0.426 0.426z"></path>
<path d="M29.969 17.738c-0.109 0-0.218-0.042-0.301-0.125l-3.589-3.589c-0.166-0.166-0.166-0.436 0-0.603s0.436-0.166 0.603 0v0l0.005 0.005c0.34 0.334 0.889 0.333 1.228-0.005 0.34-0.34 0.34-0.893 0-1.233-0.166-0.166-0.166-0.436 0-0.603s0.436-0.166 0.603 0h0c0.003 0.003 0.005 0.005 0.008 0.008l3.582 3.582c0.080 0.080 0.125 0.188 0.125 0.301s-0.045 0.221-0.125 0.301l-1.836 1.836c-0.083 0.083-0.192 0.125-0.301 0.125zM27.733 14.473l2.237 2.237 1.233-1.233-2.237-2.237c-0.075 0.288-0.224 0.559-0.449 0.784s-0.497 0.374-0.784 0.449z"></path>
<path d="M28.134 19.574c-0.113 0-0.221-0.045-0.301-0.125l-3.589-3.589c-0.166-0.166-0.166-0.436 0-0.603s0.436-0.166 0.603 0c0.34 0.34 0.893 0.34 1.233 0s0.34-0.893 0-1.233c-0.083-0.083-0.125-0.192-0.125-0.301s0.042-0.218 0.125-0.301c0.167-0.166 0.436-0.166 0.603 0l3.589 3.589c0.166 0.166 0.166 0.436 0 0.603l-1.836 1.836c-0.080 0.080-0.188 0.125-0.301 0.125zM25.897 16.308l2.237 2.237 1.233-1.233-2.237-2.237c-0.075 0.287-0.224 0.559-0.449 0.784s-0.497 0.374-0.784 0.449z"></path>
<path d="M12.933 32c-0.11 0-0.219-0.043-0.301-0.125l-12.507-12.507c-0.142-0.142-0.166-0.364-0.057-0.532s0.321-0.239 0.508-0.168c3.086 1.162 7.614-0.273 11.012-3.491l13.315-12.608c1.784-1.689 4.118-2.602 6.576-2.568 2.457 0.033 4.767 1.009 6.504 2.746 1.771 1.771 2.747 4.127 2.747 6.632s-0.975 4.86-2.747 6.632l-7.738 7.738c-3.61 3.61-9.484 3.61-13.093 0-0.587-0.587-1.089-1.243-1.496-1.956-2.382 3.173-3.336 6.948-2.325 9.631 0.071 0.188 0.001 0.4-0.168 0.508-0.071 0.046-0.151 0.068-0.231 0.068zM1.811 19.849l10.34 10.34c-0.181-1.326-0.031-2.801 0.448-4.345 0.668-2.153 1.915-4.234 3.605-6.019l2.675-2.825c0.001-0.001 0.002-0.002 0.003-0.003l9.948-10.505c0.832-0.878 1.955-1.371 3.165-1.387 1.211-0.018 2.346 0.445 3.202 1.301 1.732 1.732 1.732 4.55 0 6.282l-8.005 8.005c-0.933 0.933-2.173 1.446-3.492 1.446s-2.559-0.514-3.492-1.446c-0.679-0.679-1.137-1.526-1.335-2.446l-2.050 2.165c-0.001 0.001-0.002 0.002-0.003 0.004-0.195 0.206-0.392 0.426-0.585 0.655 0.396 0.763 0.907 1.46 1.522 2.075 3.277 3.277 8.611 3.278 11.888 0l7.738-7.738c1.611-1.611 2.497-3.752 2.497-6.029s-0.887-4.419-2.497-6.029c-3.29-3.29-8.514-3.361-11.892-0.162l-13.315 12.609c-1.784 1.69-3.866 2.936-6.019 3.605-1.544 0.48-3.019 0.629-4.345 0.448zM19.622 17.456c0.061 0.995 0.48 1.925 1.189 2.635 0.772 0.772 1.798 1.197 2.889 1.197s2.117-0.425 2.889-1.197l8.005-8.005c1.4-1.4 1.4-3.677 0-5.077-0.691-0.691-1.612-1.063-2.587-1.051-0.977 0.013-1.886 0.411-2.558 1.121l-9.827 10.377z"></path>
<path d="M21.221 17.472c-0.109 0-0.218-0.042-0.301-0.125l-7.332-7.333c-0.166-0.166-0.166-0.436 0-0.603s0.436-0.166 0.603 0l7.333 7.333c0.166 0.166 0.166 0.436 0 0.603-0.083 0.083-0.192 0.125-0.302 0.125z"></path>
<path d="M12.981 11.047c-0.109 0-0.218-0.042-0.301-0.125-0.166-0.166-0.166-0.436 0-0.603l1.816-1.815c0.167-0.166 0.436-0.166 0.603 0s0.166 0.436 0 0.603l-1.815 1.815c-0.083 0.083-0.192 0.125-0.302 0.125z"></path>
</svg>
