<!-- Generated by IcoMoon.io -->
<svg version="1.1" xmlns="http://www.w3.org/2000/svg" width="32" height="32" viewBox="0 0 32 32">
<title>2</title>
<path d="M5.095 25.877c-1.362 0-2.639-0.529-3.604-1.494-1.988-1.988-1.989-5.224 0-7.212l0.827-0.827c1.942-1.942 2.768-4.396 1.805-5.359-0.113-0.113-0.251-0.203-0.41-0.27-0.153-0.064-0.233-0.232-0.186-0.39s0.205-0.256 0.368-0.227l8.334 1.518c0.135 0.025 0.24 0.132 0.262 0.268s-0.046 0.27-0.167 0.335c-1.028 0.549-1.859 1.436-2.34 2.498-0.703 1.55-1.667 2.944-2.866 4.142l-1.873 1.873c-0.112 0.112-0.173 0.26-0.173 0.419s0.062 0.307 0.173 0.419c0.231 0.231 0.606 0.231 0.837 0l1.382-1.382c-0.141-0.423-0.036-0.898 0.289-1.223s0.8-0.43 1.223-0.29l1.003-1.003c-0.141-0.423-0.036-0.897 0.29-1.223s0.8-0.43 1.223-0.29l1.003-1.003c-0.141-0.423-0.036-0.897 0.289-1.223s0.8-0.43 1.223-0.29l6.128-6.128c0.899-0.899 2.093-1.393 3.364-1.393s2.465 0.495 3.364 1.393v0l2.254 2.254c0.061 0.061 0.095 0.143 0.095 0.229s-0.034 0.168-0.095 0.229l-1.464 1.464c-0.123 0.123-0.322 0.127-0.45 0.007l-2.155-2.019c-0.711-0.666-1.834-0.632-2.504 0.076l-13.741 14.527c-0.955 1.009-2.245 1.576-3.634 1.595-0.024 0-0.049 0.001-0.073 0.001zM4.891 10.937c0.774 1.378-0.072 3.821-2.115 5.864l-0.827 0.827c-1.736 1.736-1.736 4.562 0 6.298 0.858 0.858 1.996 1.32 3.211 1.304 1.213-0.017 2.34-0.511 3.173-1.393l13.741-14.527c0.913-0.966 2.446-1.012 3.416-0.103l1.927 1.805 1.014-1.014-2.025-2.025c-0.776-0.776-1.809-1.204-2.907-1.204s-2.13 0.428-2.907 1.204l-6.285 6.286c-0.105 0.105-0.267 0.125-0.395 0.049-0.217-0.129-0.492-0.095-0.671 0.083s-0.212 0.454-0.083 0.671c0.076 0.127 0.056 0.29-0.049 0.394l-1.318 1.318c-0.105 0.105-0.267 0.125-0.395 0.049-0.216-0.129-0.492-0.095-0.671 0.083s-0.212 0.454-0.083 0.671c0.076 0.127 0.056 0.29-0.049 0.394l-1.318 1.318c-0.105 0.105-0.268 0.125-0.395 0.049-0.217-0.129-0.493-0.095-0.671 0.083s-0.212 0.454-0.083 0.671c0.076 0.127 0.056 0.29-0.049 0.394l-1.54 1.54c-0.483 0.483-1.269 0.483-1.752 0-0.234-0.234-0.363-0.545-0.363-0.876s0.129-0.642 0.363-0.876l1.873-1.873c1.144-1.144 2.064-2.473 2.735-3.952 0.422-0.931 1.084-1.742 1.904-2.346l-6.407-1.167z"></path>
<path d="M31.206 13.564c-1.299 0-2.53-0.486-3.482-1.378l-0.521-0.488c-0.064-0.060-0.101-0.143-0.102-0.231s0.033-0.172 0.095-0.234l1.464-1.464c0.061-0.061 0.143-0.095 0.229-0.095v0c0.086 0 0.168 0.034 0.229 0.095l2.695 2.695c0.184 0.184 0.239 0.448 0.143 0.691s-0.317 0.398-0.577 0.406c-0.057 0.002-0.114 0.003-0.171 0.003zM27.888 11.455l0.277 0.26c0.866 0.811 1.994 1.238 3.18 1.201l-2.459-2.46-0.999 0.999z"></path>
<path d="M5.701 17.915c-0.381 0-0.763-0.145-1.054-0.436-0.281-0.281-0.436-0.656-0.436-1.054s0.155-0.772 0.436-1.054c0.581-0.581 1.526-0.581 2.107 0 0.281 0.281 0.436 0.656 0.436 1.054s-0.155 0.772-0.436 1.054c-0.291 0.291-0.672 0.436-1.054 0.436zM5.701 15.583c-0.216 0-0.432 0.082-0.596 0.246-0.329 0.329-0.329 0.864 0 1.192s0.864 0.329 1.192 0c0.329-0.329 0.329-0.864 0-1.192-0.165-0.164-0.38-0.246-0.596-0.246z"></path>
<path d="M3.075 20.745c-0.366 0-0.733-0.139-1.011-0.418-0.27-0.27-0.419-0.629-0.419-1.011s0.149-0.741 0.419-1.012c0.558-0.558 1.465-0.558 2.023 0s0.558 1.465 0 2.023c-0.279 0.279-0.645 0.418-1.012 0.418zM3.075 18.532c-0.201 0-0.401 0.076-0.554 0.229-0.306 0.306-0.306 0.803 0 1.108s0.803 0.306 1.108 0c0.306-0.306 0.306-0.803 0-1.108-0.153-0.153-0.353-0.229-0.554-0.229z"></path>
<path d="M3.43 24.247c-0.325 0-0.65-0.124-0.898-0.371-0.24-0.24-0.372-0.559-0.372-0.898s0.132-0.658 0.372-0.898c0.495-0.495 1.301-0.495 1.796 0 0.24 0.24 0.372 0.559 0.372 0.898s-0.132 0.658-0.372 0.898c-0.248 0.248-0.573 0.371-0.898 0.371zM3.43 22.355c-0.159 0-0.319 0.061-0.441 0.182-0.118 0.118-0.182 0.274-0.182 0.441s0.065 0.323 0.182 0.441c0.243 0.243 0.638 0.243 0.881 0 0.118-0.118 0.182-0.274 0.182-0.441s-0.065-0.323-0.182-0.441v0c-0.122-0.121-0.281-0.182-0.441-0.182z"></path>
<path d="M13.629 15.977c-0.32 0-0.62-0.125-0.847-0.351v0c-0.467-0.467-0.467-1.226 0-1.693 0.226-0.226 0.527-0.351 0.847-0.351s0.62 0.125 0.847 0.351c0.226 0.226 0.351 0.527 0.351 0.847s-0.125 0.62-0.351 0.847c-0.226 0.226-0.527 0.351-0.847 0.351zM13.24 15.169c0.104 0.104 0.242 0.161 0.389 0.161s0.285-0.057 0.389-0.161c0.104-0.104 0.161-0.242 0.161-0.389s-0.057-0.285-0.161-0.389c-0.104-0.104-0.242-0.161-0.389-0.161s-0.285 0.057-0.389 0.161c-0.215 0.215-0.215 0.564 0 0.779v0z"></path>
<path d="M11.114 18.492c-0.32 0-0.62-0.125-0.847-0.351v0c-0.467-0.467-0.467-1.226 0-1.693 0.226-0.226 0.527-0.351 0.847-0.351s0.62 0.125 0.847 0.351c0.226 0.226 0.351 0.527 0.351 0.847s-0.125 0.62-0.351 0.847c-0.226 0.226-0.527 0.351-0.847 0.351zM10.725 17.684c0.104 0.104 0.242 0.161 0.389 0.161s0.285-0.057 0.389-0.161c0.104-0.104 0.161-0.242 0.161-0.389s-0.057-0.285-0.161-0.389c-0.104-0.104-0.242-0.161-0.389-0.161s-0.285 0.057-0.389 0.161c-0.215 0.215-0.215 0.564 0 0.779v0z"></path>
<path d="M8.599 21.007c-0.307 0-0.613-0.117-0.847-0.35v0c-0.467-0.467-0.467-1.226 0-1.693s1.226-0.467 1.693 0c0.226 0.226 0.351 0.527 0.351 0.847s-0.125 0.62-0.351 0.847c-0.233 0.233-0.54 0.35-0.847 0.35zM8.21 20.2c0.215 0.215 0.564 0.215 0.779 0 0.104-0.104 0.161-0.242 0.161-0.389s-0.057-0.285-0.161-0.389c-0.104-0.104-0.242-0.161-0.389-0.161s-0.285 0.057-0.389 0.161c-0.215 0.215-0.215 0.564 0 0.779v0z"></path>
<path d="M14.060 20.564c-0.083 0-0.166-0.032-0.229-0.095l-2.328-2.327c-0.126-0.126-0.126-0.331 0-0.457s0.331-0.126 0.457 0l2.328 2.328c0.126 0.126 0.126 0.331 0 0.457-0.063 0.063-0.146 0.095-0.229 0.095z"></path>
<path d="M16.505 17.979c-0.083 0-0.166-0.032-0.229-0.095l-2.258-2.258c-0.126-0.126-0.126-0.331 0-0.457s0.331-0.126 0.457 0l2.257 2.257c0.126 0.126 0.126 0.331 0 0.457-0.063 0.063-0.146 0.095-0.229 0.095z"></path>
<path d="M11.599 22.82c-0.289 0-0.56-0.112-0.764-0.317l-1.846-1.846c-0.126-0.126-0.126-0.331 0-0.457s0.331-0.126 0.457 0l1.846 1.846c0.084 0.084 0.194 0.129 0.314 0.127 0.118-0.002 0.229-0.050 0.31-0.136l9.267-9.852c0.186-0.197 0.182-0.5-0.009-0.691l-0.376-0.376c-0.126-0.126-0.126-0.331 0-0.457s0.331-0.126 0.457 0l0.376 0.376c0.44 0.44 0.45 1.14 0.022 1.592l-9.267 9.852c-0.203 0.215-0.477 0.335-0.771 0.339-0.005 0-0.010 0-0.015 0z"></path>
<path d="M19.122 9.308c-0.083 0-0.166-0.032-0.229-0.095l-1.092-1.092c-0.126-0.126-0.126-0.331 0-0.457s0.331-0.126 0.457 0l1.092 1.092c0.126 0.126 0.126 0.331 0 0.457-0.063 0.063-0.146 0.095-0.229 0.095z"></path>
<path d="M17.673 8.574c-0.083 0-0.166-0.032-0.229-0.095-0.126-0.126-0.126-0.331 0-0.457l0.715-0.715c0.126-0.126 0.331-0.126 0.457 0s0.126 0.331 0 0.457l-0.715 0.715c-0.063 0.063-0.146 0.095-0.229 0.095z"></path>
<path d="M17.196 11.234c-0.083 0-0.166-0.032-0.229-0.095l-1.092-1.092c-0.126-0.126-0.126-0.331 0-0.457s0.331-0.126 0.457 0l1.092 1.092c0.126 0.126 0.126 0.331 0 0.457-0.063 0.063-0.146 0.095-0.229 0.095z"></path>
<path d="M15.747 10.5c-0.083 0-0.166-0.032-0.229-0.095-0.126-0.126-0.126-0.331 0-0.457l0.715-0.715c0.126-0.126 0.331-0.126 0.457 0s0.126 0.331 0 0.457l-0.715 0.715c-0.063 0.063-0.146 0.095-0.229 0.095z"></path>
</svg>
