<!-- Generated by IcoMoon.io -->
<svg version="1.1" xmlns="http://www.w3.org/2000/svg" width="21" height="32" viewBox="0 0 21 32">
<title>21</title>
<path d="M19.767 3.533h-18.639c-0.326 0-0.635-0.141-0.849-0.386s-0.312-0.571-0.268-0.894l0.124-0.919c0.103-0.761 0.76-1.335 1.528-1.335h17.57c0.768 0 1.425 0.574 1.528 1.335l0.124 0.919c0.044 0.323-0.054 0.648-0.268 0.894s-0.524 0.386-0.849 0.386zM1.662 0.827c-0.356 0-0.66 0.266-0.708 0.619l-0.124 0.919c-0.016 0.118 0.038 0.2 0.072 0.238s0.107 0.103 0.226 0.103h18.639c0.119 0 0.193-0.064 0.226-0.103s0.088-0.12 0.072-0.238l-0.124-0.919c-0.048-0.353-0.352-0.619-0.708-0.619h-17.57z"></path>
<path d="M14.796 32h-8.698c-0.35 0-0.679-0.155-0.902-0.426s-0.311-0.623-0.243-0.967l2.45-12.379c0.038-0.194 0.208-0.333 0.406-0.333h5.274c0.198 0 0.367 0.14 0.406 0.333l2.45 12.379c0.068 0.344-0.020 0.696-0.243 0.967s-0.551 0.426-0.901 0.426zM8.15 18.722l-2.384 12.045c-0.027 0.137 0.033 0.235 0.071 0.281s0.123 0.124 0.262 0.124h8.698c0.14 0 0.224-0.078 0.262-0.124s0.098-0.144 0.071-0.281l-2.384-12.045h-4.595z"></path>
<path d="M13.286 18.722h-5.678c-3.045 0-5.214-2.602-5.527-6.629l-0.694-8.942c-0.009-0.115 0.030-0.228 0.109-0.313s0.188-0.133 0.304-0.133h17.295c0.115 0 0.225 0.048 0.304 0.133s0.118 0.198 0.109 0.313l-0.694 8.942c-0.313 4.027-2.482 6.629-5.527 6.629zM2.247 3.533l0.66 8.496c0.277 3.563 2.122 5.865 4.702 5.865h5.678c2.58 0 4.425-2.302 4.702-5.865l0.66-8.496h-16.401z"></path>
<path d="M17.522 15.889h-14.149c-0.229 0-0.414-0.185-0.414-0.414s0.185-0.414 0.414-0.414h14.149c0.229 0 0.414 0.185 0.414 0.414s-0.185 0.414-0.414 0.414z"></path>
<path d="M15.187 15.889c-0.017 0-0.035-0.001-0.052-0.003-0.156-0.020-0.287-0.126-0.339-0.275l-1.455-4.196-2.537 4.272c-0.075 0.126-0.21 0.202-0.355 0.202s-0.281-0.077-0.355-0.202l-2.538-4.272-1.456 4.196c-0.051 0.149-0.183 0.255-0.339 0.275s-0.31-0.051-0.397-0.182l-3.34-5.037c-0.126-0.19-0.074-0.447 0.116-0.573s0.447-0.074 0.573 0.116l2.878 4.341 1.473-4.248c0.053-0.152 0.189-0.26 0.349-0.276s0.315 0.062 0.397 0.2l2.637 4.439 2.637-4.439c0.082-0.138 0.238-0.216 0.397-0.2s0.296 0.124 0.349 0.276l1.473 4.248 2.878-4.341c0.126-0.19 0.383-0.242 0.573-0.116s0.242 0.383 0.116 0.573l-3.34 5.038c-0.077 0.116-0.207 0.185-0.345 0.185z"></path>
<path d="M7.455 10.852c-0.222 0-0.406-0.177-0.413-0.4l-0.238-7.319c-0.007-0.228 0.172-0.419 0.4-0.427s0.419 0.172 0.427 0.4l0.238 7.319c0.007 0.228-0.172 0.419-0.4 0.427-0.005 0-0.009 0-0.014 0z"></path>
<path d="M13.44 10.852c-0.005 0-0.009 0-0.014-0-0.228-0.007-0.407-0.199-0.4-0.427l0.238-7.319c0.007-0.228 0.203-0.408 0.427-0.4 0.228 0.007 0.407 0.199 0.4 0.427l-0.238 7.319c-0.007 0.224-0.191 0.4-0.413 0.4z"></path>
</svg>
