<!-- Generated by IcoMoon.io -->
<svg version="1.1" xmlns="http://www.w3.org/2000/svg" width="26" height="32" viewBox="0 0 26 32">
<title>22</title>
<path d="M3.337 32c-0.142 0-0.27-0.086-0.324-0.218l-2.988-7.405c-0.052-0.13-0.022-0.279 0.077-0.378l23.647-23.647c0.047-0.047 0.106-0.079 0.171-0.094l1.119-0.25c0.091-0.020 0.186-0.004 0.264 0.047s0.134 0.129 0.153 0.22l0.478 2.211c0.023 0.104-0.004 0.213-0.072 0.296l-6.898 8.395 2.537 5.849c0.057 0.132 0.028 0.285-0.073 0.386l-14.371 14.371c-0.063 0.063-0.147 0.099-0.235 0.102l-3.473 0.116c-0.004 0-0.008 0-0.012 0zM0.759 24.33l2.81 6.964 3.091-0.103 14.105-14.105-2.527-5.827c-0.052-0.12-0.033-0.259 0.051-0.361l6.926-8.429-0.368-1.702-0.677 0.151-23.412 23.412z"></path>
<path d="M16.445 16.806c-0.093 0-0.181-0.037-0.247-0.102l-4.153-4.153c-0.065-0.066-0.102-0.154-0.102-0.247s0.037-0.181 0.102-0.247l1.554-1.554c0.136-0.136 0.358-0.136 0.494 0l4.153 4.153c0.136 0.136 0.136 0.357 0 0.494l-1.554 1.554c-0.066 0.066-0.154 0.103-0.247 0.103zM12.786 12.303l3.659 3.659 1.060-1.060-3.659-3.659-1.060 1.060z"></path>
<path d="M14.891 18.36c-0.093 0-0.181-0.037-0.247-0.102l-4.153-4.153c-0.136-0.136-0.136-0.357 0-0.494l1.554-1.554c0.066-0.066 0.154-0.102 0.247-0.102s0.181 0.037 0.247 0.102l4.153 4.153c0.136 0.136 0.136 0.357 0 0.494l-1.554 1.554c-0.066 0.066-0.154 0.102-0.247 0.102zM11.232 13.857l3.659 3.659 1.060-1.060-3.659-3.659-1.060 1.060z"></path>
<path d="M13.337 19.914c-0.089 0-0.179-0.034-0.247-0.102l-4.153-4.153c-0.065-0.066-0.102-0.154-0.102-0.247s0.037-0.181 0.102-0.247l1.554-1.554c0.136-0.136 0.357-0.136 0.494 0l4.153 4.153c0.066 0.066 0.102 0.154 0.102 0.247s-0.037 0.181-0.102 0.247l-1.554 1.554c-0.068 0.068-0.158 0.102-0.247 0.102zM9.678 15.411l3.659 3.659 1.060-1.060-3.659-3.659-1.060 1.060z"></path>
<path d="M11.784 21.468c-0.093 0-0.181-0.037-0.247-0.102l-4.153-4.153c-0.136-0.136-0.136-0.357 0-0.494l1.554-1.554c0.066-0.066 0.154-0.102 0.247-0.102s0.181 0.037 0.247 0.102l4.153 4.153c0.136 0.136 0.136 0.357 0 0.494l-1.554 1.554c-0.065 0.066-0.154 0.103-0.247 0.103zM8.124 16.965l3.659 3.659 1.060-1.060-3.659-3.659-1.060 1.060z"></path>
<path d="M10.23 23.022c-0.089 0-0.179-0.034-0.247-0.102l-4.153-4.153c-0.065-0.066-0.102-0.154-0.102-0.247s0.037-0.181 0.102-0.247l1.554-1.554c0.136-0.136 0.357-0.136 0.494 0l4.153 4.153c0.065 0.066 0.102 0.154 0.102 0.247s-0.037 0.181-0.102 0.247l-1.554 1.554c-0.068 0.068-0.158 0.102-0.247 0.102zM6.57 18.519l3.659 3.659 1.060-1.060-3.659-3.659-1.060 1.060z"></path>
<path d="M8.676 24.575c-0.093 0-0.181-0.037-0.247-0.102l-4.153-4.153c-0.136-0.136-0.136-0.357 0-0.494l1.554-1.554c0.066-0.066 0.154-0.102 0.247-0.102s0.181 0.037 0.247 0.102l4.153 4.153c0.136 0.136 0.136 0.357 0 0.494l-1.554 1.554c-0.066 0.066-0.154 0.103-0.247 0.103zM5.016 20.073l3.659 3.659 1.060-1.060-3.659-3.659-1.060 1.060z"></path>
<path d="M7.122 26.129c-0.089 0-0.179-0.034-0.247-0.102l-4.153-4.153c-0.136-0.136-0.136-0.357 0-0.494l1.554-1.554c0.066-0.066 0.154-0.102 0.247-0.102s0.181 0.037 0.247 0.102l4.153 4.153c0.066 0.066 0.102 0.154 0.102 0.247s-0.037 0.181-0.102 0.247l-1.554 1.554c-0.068 0.068-0.158 0.102-0.247 0.102zM3.462 21.627l3.659 3.659 1.060-1.060-3.659-3.659-1.060 1.060z"></path>
<path d="M5.568 27.683c-0.093 0-0.181-0.037-0.247-0.102l-4.153-4.153c-0.066-0.066-0.102-0.154-0.102-0.247s0.037-0.181 0.102-0.247l1.554-1.554c0.136-0.136 0.357-0.136 0.494 0l4.153 4.153c0.136 0.136 0.136 0.357 0 0.494l-1.554 1.554c-0.066 0.066-0.154 0.103-0.247 0.103zM1.909 23.181l3.659 3.659 1.060-1.060-3.659-3.659-1.060 1.060z"></path>
<path d="M19.065 10.853c-0.078 0-0.157-0.026-0.221-0.079l-1.33-1.093c-0.072-0.059-0.117-0.144-0.126-0.236s0.019-0.184 0.078-0.256l2.429-2.957c0.122-0.149 0.343-0.171 0.491-0.048l1.33 1.093c0.072 0.059 0.117 0.144 0.126 0.236s-0.019 0.184-0.078 0.256l-2.429 2.957c-0.069 0.084-0.169 0.127-0.27 0.127zM18.227 9.363l0.79 0.649 1.986-2.417-0.79-0.649-1.986 2.417z"></path>
<path d="M13.922 22.052c-0.089 0-0.179-0.034-0.247-0.102-0.136-0.136-0.136-0.357 0-0.494l3.108-3.108c0.136-0.136 0.358-0.136 0.494 0s0.136 0.357 0 0.494l-3.108 3.108c-0.068 0.068-0.158 0.102-0.247 0.102z"></path>
<path d="M9.625 25.176c-0.227 0.227-0.227 0.596 0 0.823s0.596 0.227 0.823 0 0.227-0.596 0-0.823c-0.227-0.227-0.596-0.227-0.823 0z"></path>
<path d="M8.071 26.73c-0.227 0.227-0.227 0.596 0 0.823s0.596 0.227 0.823 0 0.227-0.596 0-0.823c-0.227-0.227-0.596-0.227-0.823 0z"></path>
<path d="M11.179 23.622c-0.227 0.227-0.227 0.596 0 0.823s0.596 0.227 0.823 0 0.227-0.596 0-0.823c-0.227-0.227-0.596-0.227-0.823 0z"></path>
</svg>
