<!-- Generated by IcoMoon.io -->
<svg version="1.1" xmlns="http://www.w3.org/2000/svg" width="32" height="32" viewBox="0 0 32 32">
<title>23</title>
<path d="M9.207 24.985c-0.083 0-0.166-0.032-0.229-0.095l-8.883-8.883c-0.114-0.114-0.127-0.294-0.030-0.422s0.273-0.167 0.414-0.090c2.526 1.377 5.693 1.043 7.531-0.795l5.075-5.075c3.479-3.479 9.139-3.479 12.617 0s3.478 9.139 0 12.617c-3.479 3.479-9.139 3.479-12.617 0-1.488-1.488-2.387-3.415-2.576-5.488l-0.223 0.223c-1.838 1.838-2.173 5.005-0.795 7.531 0.077 0.141 0.039 0.317-0.090 0.414-0.058 0.043-0.126 0.064-0.194 0.064zM11.121 16.141c0.053 2.132 0.909 4.131 2.421 5.643 3.227 3.227 8.476 3.227 11.703 0s3.227-8.476 0-11.703c-3.226-3.226-8.476-3.226-11.703 0l-5.075 5.075c-1.028 1.028-2.393 1.651-3.946 1.801-0.943 0.091-1.911-0.004-2.831-0.271l6.608 6.608c-0.267-0.92-0.362-1.888-0.271-2.831 0.15-1.553 0.773-2.918 1.801-3.946l0.734-0.734c0.003-0.003 0.005-0.006 0.008-0.008l4.333-4.333c2.475-2.475 6.503-2.475 8.979 0s2.475 6.503 0 8.979c-2.475 2.475-6.503 2.475-8.979 0-1.199-1.199-1.86-2.794-1.86-4.489 0-0.709 0.115-1.401 0.338-2.053l-2.261 2.261zM15.361 11.901c-1.077 1.077-1.67 2.509-1.67 4.032s0.593 2.955 1.67 4.032c1.077 1.077 2.509 1.67 4.032 1.67s2.955-0.593 4.032-1.67c2.223-2.223 2.223-5.841 0-8.064s-5.841-2.223-8.064 0z"></path>
<path d="M31.049 16.785c-0.083 0-0.166-0.032-0.229-0.095l-3.593-3.593c-0.126-0.126-0.126-0.331 0-0.457s0.331-0.126 0.457 0l3.593 3.593c0.126 0.126 0.126 0.331 0 0.457-0.063 0.063-0.146 0.095-0.229 0.095z"></path>
<path d="M30.422 17.412c-0.083 0-0.166-0.032-0.229-0.095-0.126-0.126-0.126-0.331 0-0.457l1.255-1.255c0.126-0.126 0.331-0.126 0.457 0s0.126 0.331 0 0.457l-1.255 1.255c-0.063 0.063-0.146 0.095-0.229 0.095z"></path>
<path d="M22.872 16.898c-0.374 0-0.725-0.146-0.99-0.41 0 0 0 0 0 0-0.546-0.546-0.546-1.434 0-1.98 0.265-0.264 0.616-0.41 0.99-0.41s0.725 0.146 0.99 0.41c0.264 0.264 0.41 0.616 0.41 0.99s-0.146 0.725-0.41 0.99c-0.265 0.265-0.616 0.41-0.99 0.41zM22.34 16.031c0.142 0.142 0.331 0.221 0.533 0.221s0.39-0.078 0.533-0.221c0.294-0.294 0.294-0.771 0-1.065-0.142-0.142-0.331-0.221-0.533-0.221s-0.39 0.078-0.533 0.221c-0.294 0.294-0.294 0.771 0 1.065v0z"></path>
<path d="M21.35 15.375c-0.359 0-0.717-0.136-0.99-0.409v0c-0.264-0.264-0.41-0.616-0.41-0.99s0.146-0.725 0.41-0.99c0.546-0.546 1.434-0.546 1.98 0 0.265 0.264 0.41 0.616 0.41 0.99s-0.146 0.725-0.41 0.99c-0.273 0.273-0.631 0.409-0.99 0.409zM21.35 13.223c-0.193 0-0.386 0.073-0.533 0.22-0.142 0.142-0.221 0.331-0.221 0.533s0.078 0.39 0.221 0.533v0c0.294 0.294 0.771 0.294 1.065 0s0.294-0.771 0-1.065c-0.147-0.147-0.34-0.22-0.533-0.22z"></path>
<path d="M19.827 13.853c-0.374 0-0.725-0.146-0.99-0.41-0.546-0.546-0.546-1.434 0-1.98 0.265-0.264 0.616-0.41 0.99-0.41s0.725 0.146 0.99 0.41c0.546 0.546 0.546 1.434-0 1.98-0.264 0.264-0.616 0.41-0.99 0.41zM19.827 11.701c-0.193 0-0.386 0.073-0.533 0.22-0.294 0.294-0.294 0.771 0 1.065v0c0.142 0.142 0.331 0.221 0.533 0.221s0.39-0.078 0.533-0.221c0.294-0.294 0.294-0.771 0-1.065-0.147-0.147-0.34-0.22-0.533-0.22z"></path>
<path d="M18.959 20.968c-0.261 0-0.523-0.1-0.722-0.299l-0.536-0.536c-0.193-0.193-0.299-0.449-0.299-0.722s0.106-0.529 0.299-0.722l4.182-4.182c0.126-0.126 0.331-0.126 0.457 0s0.126 0.331 0 0.457c-0.294 0.294-0.294 0.771 0 1.065 0.142 0.142 0.331 0.221 0.533 0.221s0.39-0.078 0.532-0.22l0.001-0.001c0.126-0.126 0.331-0.126 0.457 0s0.126 0.331 0 0.457c-0 0-0.001 0.001-0.001 0.001l-4.18 4.18c-0.199 0.199-0.461 0.298-0.722 0.298zM21.506 15.8l-3.348 3.348c-0.071 0.071-0.11 0.165-0.11 0.265s0.039 0.194 0.11 0.265v0l0.536 0.536c0.071 0.071 0.165 0.11 0.265 0.11s0.194-0.039 0.265-0.11l3.347-3.347c-0.259-0.057-0.496-0.186-0.688-0.378-0.196-0.196-0.321-0.436-0.377-0.688z"></path>
<path d="M23.635 16.583c-0.178 0-0.324-0.145-0.324-0.323s0.144-0.323 0.323-0.323h0.001c0.178 0 0.323 0.145 0.323 0.323s-0.145 0.323-0.323 0.323z"></path>
<path d="M17.436 19.446c-0.261 0-0.523-0.1-0.722-0.299l-0.536-0.536c-0.398-0.398-0.398-1.046 0-1.444l4.182-4.182c0.126-0.126 0.331-0.126 0.457 0v0 0c0.126 0.126 0.126 0.331 0 0.457l-0.006 0.006c-0.138 0.142-0.214 0.328-0.214 0.526 0 0.201 0.078 0.39 0.221 0.533 0.294 0.294 0.771 0.294 1.065 0 0.126-0.126 0.331-0.126 0.457 0s0.126 0.331 0 0.457l-4.182 4.182c-0.199 0.199-0.461 0.299-0.722 0.299zM16.636 18.154l0.536 0.536c0.071 0.071 0.165 0.11 0.265 0.11s0.194-0.039 0.265-0.11l3.348-3.348c-0.253-0.055-0.493-0.181-0.688-0.377-0.192-0.192-0.321-0.429-0.378-0.688l-3.347 3.347c-0.146 0.146-0.146 0.383 0 0.529v0z"></path>
<path d="M15.914 17.923c-0.261 0-0.523-0.1-0.722-0.299l-0.536-0.536c-0.398-0.398-0.398-1.046 0-1.444l4.182-4.182c0.126-0.126 0.331-0.126 0.457 0s0.126 0.331 0 0.457c-0.294 0.294-0.294 0.771 0 1.065 0.142 0.142 0.331 0.221 0.533 0.221s0.39-0.078 0.532-0.22l0.001-0.001c0.126-0.126 0.331-0.126 0.457 0s0.126 0.331 0 0.457c-0 0-0.001 0.001-0.001 0.001l-4.18 4.18c-0.199 0.199-0.46 0.299-0.722 0.299zM18.461 12.755l-3.348 3.348c-0.071 0.071-0.11 0.165-0.11 0.265s0.039 0.194 0.11 0.265l0.536 0.536c0.071 0.071 0.165 0.11 0.265 0.11s0.194-0.039 0.265-0.11l3.347-3.347c-0.259-0.057-0.496-0.186-0.688-0.378-0.196-0.196-0.322-0.436-0.377-0.689z"></path>
</svg>
