<!-- Generated by IcoMoon.io -->
<svg version="1.1" xmlns="http://www.w3.org/2000/svg" width="32" height="32" viewBox="0 0 32 32">
<title>27</title>
<path d="M11.883 23.053c-0.093 0-0.186-0.036-0.258-0.107l-2.574-2.574c-0.142-0.142-0.142-0.373 0-0.515s0.373-0.142 0.515 0l2.574 2.574c0.142 0.142 0.142 0.373 0 0.515-0.071 0.071-0.164 0.107-0.258 0.107z"></path>
<path d="M4.16 32c-1.112 0-2.157-0.433-2.943-1.219-1.623-1.622-1.623-4.262 0-5.885l10.438-10.438-2.918-2.918c-0.12-0.12-0.141-0.308-0.050-0.452s0.269-0.206 0.43-0.149c2.594 0.917 6.432-0.373 9.128-3.069l6.653-6.652c1.623-1.623 4.263-1.623 5.885 0v0c1.623 1.623 1.623 4.263 0 5.885l-23.68 23.68c-0.786 0.786-1.831 1.219-2.942 1.219zM12.17 14.973l-10.438 10.438c-1.339 1.339-1.339 3.517 0 4.855 0.648 0.648 1.511 1.006 2.428 1.006s1.779-0.357 2.427-1.006l23.679-23.679c1.339-1.339 1.339-3.517 0-4.855s-3.516-1.339-4.855 0l-6.652 6.653c-1.445 1.445-3.178 2.519-5.011 3.107-1.265 0.405-2.506 0.546-3.609 0.42l2.287 2.287c0.001 0.001 0.002 0.002 0.003 0.003l3.687 3.687c-0.127-1.103 0.014-2.345 0.42-3.609 0.588-1.833 1.662-3.566 3.107-5.011l6.652-6.652c0.852-0.852 2.237-0.851 3.089 0s0.852 2.237 0 3.089l-12.486 12.486c0.047 0.25 0.109 0.487 0.186 0.707 0 0.001 0 0.001 0.001 0.002s0 0 0 0c0.001 0.004 0.003 0.008 0.004 0.011 0.057 0.16-0.005 0.339-0.149 0.429-0.141 0.089-0.326 0.071-0.446-0.045v0c-0.001-0.001-0.002-0.002-0.003-0.003s-0-0-0-0-0-0-0-0-0-0-0-0-0-0-0-0-0-0-0-0.001-0-0-0-0-0-0-0-0l-0.345-0.345-10.438 10.438c-0.851 0.852-2.237 0.852-3.089 0s-0.852-2.237 0-3.089l10.438-10.438-0.883-0.883zM13.568 16.371l-10.438 10.438c-0.568 0.568-0.568 1.491 0 2.059s1.491 0.568 2.059 0l10.438-10.438-2.059-2.059zM27.839 2.704c-0.373 0-0.745 0.142-1.029 0.426l-6.652 6.652c-2.168 2.168-3.427 5.074-3.36 7.478l12.071-12.071c0.568-0.568 0.568-1.491 0-2.059-0.284-0.284-0.657-0.426-1.030-0.426z"></path>
</svg>
