<!-- Generated by IcoMoon.io -->
<svg version="1.1" xmlns="http://www.w3.org/2000/svg" width="26" height="32" viewBox="0 0 26 32">
<title>28</title>
<path d="M19.909 27.161h-13.507c-0.655 0-6.402-0.207-6.402-7.377 0-3.762 1.589-6.526 2.99-8.965 1.013-1.762 1.888-3.284 1.888-4.776 0-0.041-0.003-0.081-0.009-0.12-0.296 0.259-0.685 0.411-1.098 0.411-1.005 0-1.605-0.897-1.605-1.764 0-1.19 0.97-2.421 2.592-2.421 1.555 0 2.803 1.123 3.191 2.829h10.411c0.389-1.707 1.637-2.829 3.191-2.829 1.623 0 2.592 1.231 2.592 2.421 0 0.867-0.6 1.764-1.605 1.764-0.412 0-0.801-0.153-1.097-0.411-0.006 0.039-0.009 0.079-0.009 0.12 0 1.492 0.875 3.014 1.888 4.776 1.402 2.438 2.99 5.202 2.99 8.965 0 7.17-5.747 7.377-6.402 7.377zM4.934 4.734c0.111 0 0.218 0.045 0.296 0.127 0.047 0.050 0.463 0.509 0.463 1.182 0 1.709-0.925 3.318-1.996 5.182-1.351 2.35-2.882 5.014-2.882 8.559 0 2.594 0.799 4.465 2.376 5.562 1.336 0.929 2.796 1.002 3.212 1.002h13.507c0.416 0 1.876-0.072 3.212-1.002 1.577-1.097 2.376-2.968 2.376-5.562 0-3.545-1.531-6.209-2.882-8.559-1.071-1.863-1.996-3.473-1.996-5.182 0-0.672 0.416-1.131 0.463-1.182 0.096-0.102 0.239-0.147 0.376-0.12s0.251 0.124 0.301 0.255c0.136 0.361 0.491 0.523 0.781 0.523 0.495 0 0.791-0.483 0.791-0.95 0-0.779-0.623-1.606-1.778-1.606-1.259 0-2.221 0.975-2.452 2.484-0.031 0.199-0.201 0.345-0.402 0.345h-11.084c-0.201 0-0.372-0.147-0.402-0.345-0.231-1.509-1.193-2.484-2.452-2.484-1.155 0-1.778 0.828-1.778 1.606 0 0.467 0.296 0.95 0.791 0.95 0.29 0 0.645-0.162 0.781-0.523 0.050-0.131 0.163-0.228 0.301-0.255 0.027-0.005 0.054-0.008 0.080-0.008zM18.718 23.567h-11.124c-1.507 0-2.7-0.631-3.451-1.826-0.579-0.921-0.785-2.016-0.785-2.734 0-2.349 0.912-4.148 1.878-6.051 0.884-1.743 1.798-3.545 1.991-5.867 0.017-0.211 0.194-0.373 0.406-0.373h11.045c0.212 0 0.388 0.162 0.406 0.373 0.192 2.322 1.107 4.124 1.991 5.867 0.966 1.904 1.878 3.702 1.878 6.051 0 0.718-0.206 1.813-0.785 2.734-0.751 1.195-1.944 1.826-3.451 1.826zM8.002 7.529c-0.265 2.298-1.166 4.074-2.039 5.795-0.92 1.815-1.79 3.528-1.79 5.683 0 0.577 0.173 1.526 0.66 2.301 0.602 0.959 1.531 1.445 2.761 1.445h11.124c1.23 0 2.159-0.486 2.761-1.445 0.487-0.776 0.66-1.724 0.66-2.301 0-2.155-0.869-3.868-1.79-5.683-0.873-1.721-1.774-3.497-2.039-5.795h-10.308z"></path>
<path d="M13.020 5.792c-0.225 0-0.407-0.182-0.407-0.407v-4.978c0-0.225 0.182-0.407 0.407-0.407s0.407 0.182 0.407 0.407v4.978c0 0.225-0.182 0.407-0.407 0.407z"></path>
<path d="M13.020 23.567c-0.225 0-0.407-0.182-0.407-0.407v-16.038c0-0.225 0.182-0.407 0.407-0.407s0.407 0.182 0.407 0.407v16.038c0 0.225-0.182 0.407-0.407 0.407z"></path>
<path d="M15.953 5.792c-0.225 0-0.407-0.182-0.407-0.407v-3.34c0-0.225 0.182-0.407 0.407-0.407s0.407 0.182 0.407 0.407v3.34c0 0.225-0.182 0.407-0.407 0.407z"></path>
<path d="M15.953 23.567c-0.225 0-0.407-0.182-0.407-0.407v-16.038c0-0.225 0.182-0.407 0.407-0.407s0.407 0.182 0.407 0.407v16.038c0 0.225-0.182 0.407-0.407 0.407z"></path>
<path d="M10.086 5.792c-0.225 0-0.407-0.182-0.407-0.407v-3.34c0-0.225 0.182-0.407 0.407-0.407s0.407 0.182 0.407 0.407v3.34c0 0.225-0.182 0.407-0.407 0.407z"></path>
<path d="M10.086 23.567c-0.225 0-0.407-0.182-0.407-0.407v-16.038c0-0.225 0.182-0.407 0.407-0.407s0.407 0.182 0.407 0.407v16.038c0 0.225-0.182 0.407-0.407 0.407z"></path>
<path d="M18.886 32h-11.46c-0.132 0-0.257-0.064-0.333-0.173s-0.095-0.247-0.050-0.372l1.737-4.839c0.058-0.162 0.211-0.27 0.383-0.27h7.985c0.172 0 0.325 0.108 0.383 0.27l1.737 4.839c0.045 0.125 0.026 0.263-0.050 0.372s-0.2 0.173-0.333 0.173zM8.005 31.186h10.302l-1.445-4.025h-7.413l-1.445 4.025z"></path>
</svg>
