<!-- Generated by IcoMoon.io -->
<svg version="1.1" xmlns="http://www.w3.org/2000/svg" width="32" height="32" viewBox="0 0 32 32">
<title>31</title>
<path d="M15.228 25.124c-1.126 0-2.252-0.429-3.109-1.286-0.429-0.429-0.758-0.93-0.98-1.489-0.057-0.145-0.023-0.31 0.087-0.42l2.601-2.601c0.153-0.153 0.4-0.153 0.553 0s0.153 0.4 0 0.553c-0.467 0.467-0.467 1.228 0 1.696 0.227 0.227 0.528 0.351 0.848 0.351s0.621-0.125 0.848-0.351l3.405-3.404c0.153-0.153 0.4-0.153 0.553 0l1.708 1.708c0.153 0.153 0.153 0.4 0 0.553l-3.405 3.404c-0.857 0.857-1.983 1.286-3.109 1.286zM11.968 22.293c0.176 0.367 0.412 0.7 0.704 0.992 1.409 1.409 3.703 1.409 5.112 0l3.128-3.128-1.155-1.155-3.128 3.128c-0.374 0.374-0.871 0.58-1.401 0.58s-1.027-0.206-1.401-0.58c-0.319-0.318-0.506-0.719-0.561-1.134l-1.298 1.298z"></path>
<path d="M7.816 32c-0.101 0-0.201-0.039-0.277-0.114l-7.426-7.426c-0.129-0.129-0.152-0.331-0.054-0.485s0.289-0.221 0.461-0.16c2.349 0.831 5.852-0.45 8.517-3.115l15.458-15.458c1.682-1.682 4.444-1.709 6.157-0.060 0.841 0.81 1.311 1.91 1.322 3.1 0.012 1.207-0.469 2.386-1.317 3.234l-3.968 3.967c-0.153 0.153-0.4 0.153-0.553 0l-1.708-1.708c-0.073-0.073-0.114-0.173-0.114-0.277s0.041-0.203 0.114-0.277l4.024-4.024c0.234-0.234 0.359-0.545 0.351-0.876s-0.147-0.636-0.393-0.86c-0.466-0.424-1.222-0.391-1.685 0.072l-15.426 15.426c-2.666 2.665-3.947 6.168-3.115 8.517 0.061 0.172-0.006 0.364-0.16 0.461-0.064 0.041-0.137 0.060-0.208 0.060zM1.592 24.831l5.577 5.577c-0.207-2.493 1.121-5.543 3.579-8l15.426-15.426c0.767-0.767 1.981-0.81 2.764-0.098 0.405 0.369 0.636 0.873 0.648 1.42s-0.193 1.061-0.58 1.448l-3.747 3.747 1.155 1.155 3.691-3.691c0.701-0.701 1.098-1.675 1.088-2.674-0.009-0.978-0.394-1.881-1.082-2.544-1.408-1.355-3.679-1.333-5.061 0.049l-15.458 15.458c-2.457 2.458-5.508 3.785-8 3.579z"></path>
<path d="M26.072 18.241c-0.294 0-0.587-0.112-0.811-0.335l-4.73-4.73c-0.153-0.153-0.153-0.4 0-0.553l1.65-1.65c0.153-0.153 0.4-0.153 0.553 0l4.73 4.73c0.447 0.447 0.447 1.175 0 1.622l-0.581 0.581c-0.224 0.224-0.517 0.335-0.811 0.335zM21.361 12.9l4.453 4.453c0.142 0.142 0.374 0.142 0.516 0l0.581-0.581c0.142-0.142 0.142-0.374 0-0.516l-4.453-4.453-1.097 1.097z"></path>
<path d="M24.422 19.892c-0.294 0-0.587-0.112-0.811-0.335l-4.73-4.73c-0.153-0.153-0.153-0.4 0-0.553l1.65-1.65c0.153-0.153 0.4-0.153 0.553 0l4.73 4.73c0.447 0.447 0.447 1.175 0 1.622l-0.581 0.581c-0.224 0.224-0.517 0.335-0.811 0.335zM19.711 14.55l4.453 4.453c0.142 0.142 0.374 0.142 0.516 0l0.581-0.581c0.142-0.142 0.142-0.374 0-0.516l-4.453-4.453-1.097 1.097z"></path>
<path d="M22.772 21.542c-0.294 0-0.587-0.112-0.811-0.335l-4.73-4.729c-0.153-0.153-0.153-0.4 0-0.553l1.65-1.65c0.073-0.073 0.173-0.114 0.276-0.114s0.203 0.041 0.276 0.114l4.73 4.73c0.447 0.447 0.447 1.175 0 1.622l-0.581 0.581c-0.224 0.224-0.517 0.335-0.811 0.335zM18.061 16.2l4.453 4.453c0.142 0.142 0.374 0.142 0.516 0l0.581-0.581c0.142-0.142 0.142-0.374 0-0.516l-4.453-4.453-1.097 1.097z"></path>
<path d="M19.925 10.758c-0.1 0-0.2-0.038-0.276-0.114l-1.627-1.627c-0.153-0.153-0.153-0.4 0-0.553s0.4-0.153 0.553 0l1.627 1.627c0.153 0.153 0.153 0.4 0 0.553-0.076 0.076-0.177 0.114-0.276 0.114z"></path>
<path d="M17.868 9.561c-0.1 0-0.2-0.038-0.276-0.114-0.153-0.153-0.153-0.4 0-0.553l0.86-0.86c0.153-0.153 0.4-0.153 0.553 0s0.153 0.4 0 0.553l-0.86 0.86c-0.076 0.076-0.176 0.114-0.276 0.114z"></path>
<path d="M27.654 4.737c-0.1 0-0.2-0.038-0.276-0.114-0.153-0.153-0.153-0.4 0-0.553l3.525-3.525c0.153-0.153 0.4-0.153 0.553 0s0.153 0.4 0 0.553l-3.525 3.525c-0.076 0.076-0.176 0.114-0.276 0.114z"></path>
<path d="M31.609 1.642c-0.1 0-0.2-0.038-0.276-0.114l-0.86-0.86c-0.153-0.153-0.153-0.4 0-0.553s0.4-0.153 0.553 0l0.86 0.86c0.153 0.153 0.153 0.4 0 0.553-0.076 0.076-0.176 0.114-0.276 0.114z"></path>
<path d="M18.275 12.408c-0.1 0-0.2-0.038-0.276-0.114l-1.627-1.627c-0.153-0.153-0.153-0.4 0-0.553s0.4-0.153 0.553 0l1.627 1.627c0.153 0.153 0.153 0.4 0 0.553-0.076 0.076-0.176 0.114-0.276 0.114z"></path>
<path d="M16.218 11.211c-0.1 0-0.2-0.038-0.277-0.114-0.153-0.153-0.153-0.4 0-0.553l0.86-0.86c0.153-0.153 0.4-0.153 0.553 0s0.153 0.4 0 0.553l-0.86 0.86c-0.076 0.076-0.176 0.114-0.276 0.114z"></path>
<path d="M16.625 14.058c-0.1 0-0.2-0.038-0.276-0.114l-1.627-1.627c-0.153-0.153-0.153-0.4 0-0.553s0.4-0.153 0.553 0l1.627 1.627c0.153 0.153 0.153 0.4 0 0.553-0.076 0.076-0.176 0.115-0.276 0.115z"></path>
<path d="M14.568 12.861c-0.1 0-0.2-0.038-0.277-0.114-0.153-0.153-0.153-0.4 0-0.553l0.86-0.86c0.153-0.153 0.4-0.153 0.553 0s0.153 0.4 0 0.553l-0.86 0.86c-0.076 0.076-0.177 0.114-0.277 0.114z"></path>
</svg>
