<!-- Generated by IcoMoon.io -->
<svg version="1.1" xmlns="http://www.w3.org/2000/svg" width="32" height="32" viewBox="0 0 32 32">
<title>32</title>
<path d="M12.492 32c-6.888 0-12.492-5.604-12.492-12.492s5.604-12.492 12.492-12.492 12.492 5.604 12.492 12.492c0 6.888-5.604 12.492-12.492 12.492zM12.492 7.863c-6.421 0-11.645 5.224-11.645 11.645s5.224 11.645 11.645 11.645 11.645-5.224 11.645-11.645c0-6.421-5.224-11.645-11.645-11.645z"></path>
<path d="M23.781 24.205c-0.11 0-0.219-0.043-0.299-0.124-0.118-0.118-0.156-0.294-0.097-0.449 0.499-1.317 0.752-2.704 0.752-4.123 0-6.421-5.224-11.645-11.645-11.645-1.418 0-2.806 0.253-4.123 0.752-0.156 0.059-0.332 0.021-0.449-0.097s-0.156-0.294-0.097-0.449c0.889-2.347 2.448-4.353 4.509-5.803 2.108-1.482 4.59-2.266 7.176-2.266 6.888 0 12.492 5.604 12.492 12.492 0 2.586-0.784 5.068-2.266 7.176-1.449 2.061-3.456 3.62-5.803 4.509-0.049 0.019-0.1 0.027-0.15 0.027zM12.492 7.016c6.888 0 12.492 5.604 12.492 12.492 0 1.199-0.169 2.378-0.502 3.515 4.025-1.908 6.671-6.029 6.671-10.531 0-6.421-5.224-11.645-11.645-11.645-4.502 0-8.623 2.646-10.531 6.671 1.138-0.333 2.316-0.502 3.515-0.502z"></path>
<path d="M12.492 24.686c-2.855 0-5.178-2.323-5.178-5.178s2.323-5.178 5.178-5.178c2.855 0 5.178 2.323 5.178 5.178s-2.323 5.178-5.178 5.178zM12.492 15.177c-2.388 0-4.331 1.943-4.331 4.331s1.943 4.331 4.331 4.331 4.331-1.943 4.331-4.331-1.943-4.331-4.331-4.331z"></path>
<path d="M12.492 28.999c-0.554 0-1.074-0.245-1.427-0.671s-0.496-0.983-0.393-1.527l1.403-7.372c0.038-0.2 0.213-0.344 0.416-0.344s0.378 0.145 0.416 0.344l1.403 7.372c0.103 0.544-0.040 1.1-0.393 1.527s-0.873 0.671-1.427 0.671zM12.492 21.773l-0.987 5.187c-0.056 0.295 0.022 0.597 0.213 0.828s0.474 0.364 0.774 0.364c0.3 0 0.583-0.133 0.774-0.364s0.269-0.533 0.213-0.828l-0.987-5.187z"></path>
</svg>
