<!-- Generated by IcoMoon.io -->
<svg version="1.1" xmlns="http://www.w3.org/2000/svg" width="32" height="32" viewBox="0 0 32 32">
<title>34</title>
<path d="M15.485 23.684h-15.111c-0.207 0-0.374-0.168-0.374-0.374v-2.079c0-0.661 0.538-1.199 1.199-1.199h0.52c0.606 0 1.1-0.493 1.1-1.1v-1.265c0-0.661 0.538-1.199 1.199-1.199h12.2c0.207 0 0.374 0.168 0.374 0.374v5.735c-0 0.611-0.497 1.107-1.108 1.107zM0.748 22.936h14.736c0.198 0 0.359-0.161 0.359-0.359v-5.361h-11.826c-0.249 0-0.451 0.202-0.451 0.451v1.265c0 1.019-0.829 1.848-1.848 1.848h-0.519c-0.249 0-0.451 0.202-0.451 0.451v1.705z"></path>
<path d="M31.324 22.951h-15.106c-0.207 0-0.374-0.168-0.374-0.374v-5.735c0-0.207 0.168-0.374 0.374-0.374h15.844c0.207 0 0.374 0.168 0.374 0.374v4.997c0 0.613-0.499 1.112-1.112 1.112zM16.592 22.203h14.732c0.201 0 0.364-0.163 0.364-0.364v-4.622h-15.095v4.986z"></path>
<path d="M8.942 32h-1.291c-0.197 0-0.36-0.152-0.373-0.349l-0.385-5.684c-0.015-0.219-0.199-0.391-0.419-0.391-0.629 0-1.141-0.512-1.141-1.141v-1.125c0-0.207 0.168-0.374 0.374-0.374h5.177c0.207 0 0.374 0.168 0.374 0.374v1.125c0 0.629-0.512 1.141-1.141 1.141-0.22 0-0.404 0.172-0.419 0.391l-0.385 5.684c-0.014 0.197-0.177 0.349-0.373 0.349zM8 31.252h0.591l0.361-5.335c0.041-0.611 0.553-1.089 1.165-1.089 0.216 0 0.392-0.176 0.392-0.392v-0.751h-4.429v0.751c0 0.216 0.176 0.392 0.392 0.392 0.612 0 1.124 0.478 1.165 1.089l0.361 5.335z"></path>
<path d="M26.759 31.267h-1.291c-0.197 0-0.36-0.152-0.373-0.349l-0.385-5.684c-0.015-0.219-0.199-0.391-0.419-0.391-0.629 0-1.141-0.512-1.141-1.141v-1.125c0-0.207 0.168-0.374 0.374-0.374h5.177c0.207 0 0.374 0.168 0.374 0.374v1.125c0 0.629-0.512 1.141-1.141 1.141-0.22 0-0.404 0.172-0.419 0.391l-0.385 5.684c-0.013 0.197-0.177 0.349-0.373 0.349zM25.818 30.518h0.591l0.361-5.335c0.041-0.611 0.553-1.089 1.165-1.089 0.216 0 0.392-0.176 0.392-0.392v-0.751h-4.429v0.751c0 0.216 0.176 0.392 0.392 0.392 0.612 0 1.124 0.478 1.165 1.089l0.361 5.335z"></path>
<path d="M26.154 17.216h-16.574c-0.207 0-0.374-0.168-0.374-0.374v-16.468c0-0.207 0.168-0.374 0.374-0.374 2.512 0 4.935 0.914 6.821 2.572 2.244 1.973 4.997 3.216 7.961 3.594l2.474 0.316c2.683 0.342 4.707 2.64 4.707 5.346 0 2.972-2.417 5.389-5.389 5.389zM9.954 16.468h16.2c2.559 0 4.641-2.082 4.641-4.641 0-2.33-1.743-4.309-4.053-4.603l-2.474-0.316c-3.113-0.397-6.004-1.702-8.36-3.774-1.656-1.456-3.757-2.293-5.953-2.379v15.712z"></path>
<path d="M13.609 17.216c-0.207 0-0.374-0.168-0.374-0.374v-10.83c0-0.207 0.168-0.374 0.374-0.374s0.374 0.168 0.374 0.374v10.83c0 0.207-0.167 0.374-0.374 0.374z"></path>
</svg>
