<!-- Generated by IcoMoon.io -->
<svg version="1.1" xmlns="http://www.w3.org/2000/svg" width="40" height="32" viewBox="0 0 40 32">
<title>37</title>
<path fill="#4b4b4b" d="M39.454 32c-0.279 0-0.504-0.226-0.504-0.504v-23.087c0-0.006-0.005-0.011-0.011-0.011h-37.92c-0.006 0-0.011 0.005-0.011 0.011v23.087c0 0.278-0.226 0.504-0.504 0.504s-0.504-0.226-0.504-0.504v-23.087c0-0.562 0.457-1.019 1.019-1.019h37.92c0.562 0 1.019 0.457 1.019 1.019v23.087c0 0.278-0.225 0.504-0.504 0.504z"></path>
<path fill="#4b4b4b" d="M36.462 32h-1.229c-0.868 0-1.574-0.706-1.574-1.574v-22.531c0-0.278 0.226-0.504 0.504-0.504h3.369c0.279 0 0.504 0.226 0.504 0.504v22.531c0 0.868-0.706 1.574-1.574 1.574zM34.668 8.399v22.027c0 0.312 0.254 0.566 0.566 0.566h1.229c0.312 0 0.566-0.254 0.566-0.566v-22.027h-2.361z"></path>
<path fill="#4b4b4b" d="M31.173 28.915h-1.229c-0.868 0-1.574-0.706-1.574-1.574v-19.446c0-0.278 0.226-0.504 0.504-0.504h3.369c0.279 0 0.504 0.226 0.504 0.504v19.446c0 0.868-0.706 1.574-1.574 1.574zM29.378 8.399v18.942c0 0.312 0.254 0.566 0.566 0.566h1.229c0.312 0 0.566-0.254 0.566-0.566v-18.942h-2.361z"></path>
<path fill="#4b4b4b" d="M25.883 25.83h-1.229c-0.868 0-1.574-0.706-1.574-1.574v-16.361c0-0.278 0.226-0.504 0.504-0.504h3.369c0.279 0 0.504 0.226 0.504 0.504v16.361c0 0.868-0.706 1.574-1.574 1.574zM24.088 8.399v15.857c0 0.312 0.254 0.566 0.566 0.566h1.229c0.312 0 0.566-0.254 0.566-0.566v-15.857h-2.361z"></path>
<path fill="#4b4b4b" d="M20.593 22.745h-1.229c-0.868 0-1.574-0.706-1.574-1.574v-13.276c0-0.278 0.226-0.504 0.504-0.504h3.369c0.279 0 0.504 0.226 0.504 0.504v13.276c0 0.868-0.706 1.574-1.574 1.574zM18.798 8.399v12.772c0 0.312 0.254 0.566 0.566 0.566h1.229c0.312 0 0.566-0.254 0.566-0.566v-12.772h-2.361z"></path>
<path fill="#4b4b4b" d="M15.303 19.659h-1.229c-0.868 0-1.574-0.706-1.574-1.574v-10.19c0-0.278 0.226-0.504 0.504-0.504h3.369c0.279 0 0.504 0.226 0.504 0.504v10.19c0 0.868-0.706 1.574-1.574 1.574zM13.509 8.399v9.686c0 0.312 0.254 0.566 0.566 0.566h1.229c0.312 0 0.566-0.254 0.566-0.566v-9.686h-2.361z"></path>
<path fill="#4b4b4b" d="M10.014 16.574h-1.229c-0.868 0-1.574-0.706-1.574-1.574v-7.105c0-0.278 0.226-0.504 0.504-0.504h3.369c0.278 0 0.504 0.226 0.504 0.504v7.105c0 0.868-0.706 1.574-1.574 1.574zM8.219 8.399v6.601c0 0.312 0.254 0.566 0.566 0.566h1.229c0.312 0 0.566-0.254 0.566-0.566v-6.601h-2.361z"></path>
<path fill="#4b4b4b" d="M4.724 13.489h-1.229c-0.868 0-1.574-0.706-1.574-1.574v-4.020c0-0.278 0.226-0.504 0.504-0.504h3.369c0.279 0 0.504 0.226 0.504 0.504v4.020c0 0.868-0.706 1.574-1.574 1.574zM2.929 8.399v3.516c0 0.312 0.254 0.566 0.566 0.566h1.229c0.312 0 0.566-0.254 0.566-0.566v-3.516h-2.361z"></path>
<path fill="#4b4b4b" d="M35.152 6.273c-0.954 0-1.731-0.776-1.731-1.731s0.776-1.731 1.731-1.731c0.954 0 1.731 0.776 1.731 1.731s-0.777 1.731-1.731 1.731zM35.152 3.82c-0.398 0-0.722 0.324-0.722 0.723s0.324 0.722 0.722 0.722 0.722-0.324 0.722-0.722c0-0.399-0.324-0.723-0.722-0.723z"></path>
<path fill="#4b4b4b" d="M33.925 5.047h-7.622c-0.279 0-0.504-0.226-0.504-0.504s0.226-0.504 0.504-0.504h7.622c0.279 0 0.504 0.226 0.504 0.504s-0.225 0.504-0.504 0.504z"></path>
<path fill="#4b4b4b" d="M22.441 3.461c-0.954 0-1.731-0.776-1.731-1.731s0.777-1.73 1.731-1.73c0.954 0 1.731 0.776 1.731 1.731s-0.776 1.73-1.731 1.73zM22.441 1.008c-0.398 0-0.722 0.324-0.722 0.722s0.324 0.723 0.722 0.723 0.722-0.324 0.722-0.723c0-0.398-0.324-0.722-0.722-0.722z"></path>
<path fill="#4b4b4b" d="M31.29 2.235h-7.622c-0.279 0-0.504-0.226-0.504-0.504s0.226-0.504 0.504-0.504h7.622c0.279 0 0.504 0.226 0.504 0.504s-0.226 0.504-0.504 0.504z"></path>
<path fill="#4b4b4b" d="M17.517 6.273c-0.954 0-1.731-0.776-1.731-1.731s0.776-1.731 1.731-1.731c0.954 0 1.731 0.776 1.731 1.731s-0.777 1.731-1.731 1.731zM17.517 3.82c-0.398 0-0.722 0.324-0.722 0.723s0.324 0.722 0.722 0.722 0.722-0.324 0.722-0.722c0-0.399-0.324-0.723-0.722-0.723z"></path>
<path fill="#4b4b4b" d="M16.29 5.047h-7.622c-0.278 0-0.504-0.226-0.504-0.504s0.226-0.504 0.504-0.504h7.622c0.279 0 0.504 0.226 0.504 0.504s-0.226 0.504-0.504 0.504z"></path>
<path fill="#4b4b4b" d="M4.806 3.461c-0.954 0-1.731-0.776-1.731-1.731s0.777-1.73 1.731-1.73c0.954 0 1.731 0.776 1.731 1.731s-0.776 1.73-1.731 1.73zM4.806 1.008c-0.398 0-0.722 0.324-0.722 0.722s0.324 0.723 0.722 0.723c0.399 0 0.723-0.324 0.723-0.723s-0.324-0.722-0.723-0.722z"></path>
<path fill="#4b4b4b" d="M13.655 2.235h-7.622c-0.279 0-0.504-0.226-0.504-0.504s0.226-0.504 0.504-0.504h7.622c0.278 0 0.504 0.226 0.504 0.504s-0.226 0.504-0.504 0.504z"></path>
</svg>
