<!-- Generated by IcoMoon.io -->
<svg version="1.1" xmlns="http://www.w3.org/2000/svg" width="28" height="32" viewBox="0 0 28 32">
<title>38</title>
<path d="M3.722 32h-2.012c-0.592 0-1.073-0.482-1.073-1.073v-23.222c0-0.249 0.202-0.451 0.451-0.451h3.257c0.249 0 0.451 0.202 0.451 0.451v23.222c0 0.592-0.482 1.073-1.073 1.073zM1.539 8.156v22.771c0 0.095 0.077 0.171 0.171 0.171h2.012c0.095 0 0.171-0.077 0.171-0.171v-22.771h-2.355z"></path>
<path d="M6.979 26.763h-2.634c-0.249 0-0.451-0.202-0.451-0.451v-18.608c0-0.249 0.202-0.451 0.451-0.451h3.257c0.249 0 0.451 0.202 0.451 0.451v17.985c0 0.592-0.482 1.073-1.074 1.073zM4.796 25.861h2.183c0.095 0 0.171-0.077 0.171-0.172v-17.534h-2.355v17.706z"></path>
<path d="M10.236 22.307h-2.634c-0.249 0-0.451-0.202-0.451-0.451v-14.152c0-0.249 0.202-0.451 0.451-0.451h3.257c0.249 0 0.451 0.202 0.451 0.451v13.529c-0 0.592-0.482 1.073-1.074 1.073zM8.053 21.405h2.183c0.095 0 0.171-0.077 0.171-0.171v-13.078h-2.355v13.25z"></path>
<path d="M13.493 18.957h-2.635c-0.249 0-0.451-0.202-0.451-0.451v-10.801c0-0.249 0.202-0.451 0.451-0.451h3.257c0.249 0 0.451 0.202 0.451 0.451v10.178c0 0.592-0.482 1.073-1.073 1.073zM11.31 18.054h2.183c0.095 0 0.171-0.077 0.171-0.171v-9.727h-2.355v9.899z"></path>
<path d="M16.75 16.176h-2.634c-0.249 0-0.451-0.202-0.451-0.451v-8.020c0-0.249 0.202-0.451 0.451-0.451h3.257c0.249 0 0.451 0.202 0.451 0.451v7.398c0 0.592-0.482 1.073-1.074 1.073zM14.567 15.274h2.183c0.095 0 0.171-0.077 0.171-0.171v-6.947h-2.355v7.118z"></path>
<path d="M20.007 14.383h-2.634c-0.249 0-0.451-0.202-0.451-0.451v-6.227c0-0.249 0.202-0.451 0.451-0.451h3.257c0.249 0 0.451 0.202 0.451 0.451v5.605c0 0.592-0.482 1.073-1.074 1.073zM17.824 13.481h2.183c0.095 0 0.171-0.077 0.171-0.171v-5.154h-2.355v5.325z"></path>
<path d="M23.265 12.754h-2.634c-0.249 0-0.451-0.202-0.451-0.451v-4.598c0-0.249 0.202-0.451 0.451-0.451h3.257c0.249 0 0.451 0.202 0.451 0.451v3.976c-0 0.592-0.482 1.073-1.074 1.073zM21.081 11.852h2.183c0.095 0 0.171-0.077 0.171-0.171v-3.525h-2.355v3.696z"></path>
<path d="M26.522 11.61h-2.634c-0.249 0-0.451-0.202-0.451-0.451v-3.455c0-0.249 0.202-0.451 0.451-0.451h3.257c0.249 0 0.451 0.202 0.451 0.451v2.832c-0 0.592-0.482 1.073-1.074 1.073zM24.338 10.708h2.183c0.095 0 0.172-0.077 0.172-0.171v-2.381h-2.355v2.553z"></path>
<path d="M27.144 8.156h-26.056c-0.6 0-1.088-0.488-1.088-1.088v-2.513c0-0.6 0.488-1.088 1.088-1.088h26.056c0.6 0 1.088 0.488 1.088 1.088v2.513c0 0.6-0.488 1.088-1.088 1.088zM1.088 4.369c-0.103 0-0.186 0.083-0.186 0.186v2.513c0 0.103 0.083 0.186 0.186 0.186h26.056c0.102 0 0.186-0.083 0.186-0.186v-2.513c0-0.103-0.083-0.186-0.186-0.186h-26.056z"></path>
<path d="M4.345 4.369h-3.257c-0.249 0-0.451-0.202-0.451-0.451v-3.467c0-0.183 0.11-0.347 0.279-0.417s0.363-0.031 0.492 0.098c0.349 0.351 0.814 0.544 1.309 0.544s0.96-0.193 1.309-0.544c0.129-0.129 0.323-0.168 0.492-0.098s0.279 0.234 0.279 0.417v3.467c0 0.249-0.202 0.451-0.451 0.451zM1.539 3.467h2.355v-2.152c-0.363 0.172-0.763 0.263-1.178 0.263s-0.814-0.091-1.177-0.263v2.152z"></path>
<path d="M7.602 4.369h-3.257c-0.249 0-0.451-0.202-0.451-0.451v-3.467c0-0.183 0.11-0.347 0.279-0.417s0.363-0.031 0.492 0.098c0.349 0.351 0.814 0.544 1.309 0.544s0.96-0.193 1.309-0.544c0.129-0.129 0.323-0.168 0.492-0.098s0.279 0.234 0.279 0.417v3.467c0 0.249-0.202 0.451-0.451 0.451zM4.796 3.467h2.355v-2.152c-0.363 0.172-0.763 0.263-1.177 0.263s-0.814-0.091-1.177-0.263v2.152z"></path>
<path d="M10.859 4.369h-3.257c-0.249 0-0.451-0.202-0.451-0.451v-3.467c0-0.183 0.11-0.347 0.279-0.417s0.363-0.031 0.492 0.098c0.349 0.351 0.814 0.544 1.309 0.544s0.96-0.193 1.309-0.544c0.129-0.129 0.323-0.168 0.492-0.098s0.279 0.234 0.279 0.417v3.467c-0 0.249-0.202 0.451-0.451 0.451zM8.053 3.467h2.355v-2.152c-0.363 0.172-0.763 0.263-1.178 0.263s-0.814-0.091-1.177-0.263v2.152z"></path>
<path d="M14.116 4.369h-3.257c-0.249 0-0.451-0.202-0.451-0.451v-3.467c0-0.183 0.11-0.347 0.279-0.417s0.363-0.031 0.492 0.098c0.349 0.351 0.814 0.544 1.309 0.544s0.96-0.193 1.309-0.544c0.129-0.129 0.323-0.168 0.492-0.098s0.279 0.234 0.279 0.417v3.467c0 0.249-0.202 0.451-0.451 0.451zM11.31 3.467h2.355v-2.151c-0.363 0.172-0.763 0.263-1.177 0.263s-0.814-0.091-1.177-0.263v2.151z"></path>
<path d="M17.373 4.369h-3.257c-0.249 0-0.451-0.202-0.451-0.451v-3.467c0-0.183 0.11-0.347 0.279-0.417s0.363-0.031 0.492 0.098c0.349 0.351 0.814 0.544 1.309 0.544s0.96-0.193 1.309-0.544c0.129-0.129 0.323-0.168 0.492-0.098s0.279 0.234 0.279 0.417v3.467c-0 0.249-0.202 0.451-0.451 0.451zM14.567 3.467h2.355v-2.151c-0.363 0.172-0.763 0.263-1.177 0.263s-0.814-0.091-1.178-0.263v2.151z"></path>
<path d="M20.63 4.369h-3.257c-0.249 0-0.451-0.202-0.451-0.451v-3.467c0-0.183 0.11-0.347 0.279-0.417s0.363-0.031 0.492 0.098c0.349 0.351 0.814 0.544 1.309 0.544s0.96-0.193 1.309-0.544c0.129-0.129 0.323-0.168 0.492-0.098s0.279 0.234 0.279 0.417v3.467c0 0.249-0.202 0.451-0.451 0.451zM17.824 3.467h2.355v-2.151c-0.363 0.172-0.763 0.263-1.177 0.263s-0.814-0.091-1.177-0.263v2.151z"></path>
<path d="M23.887 4.369h-3.257c-0.249 0-0.451-0.202-0.451-0.451v-3.467c0-0.183 0.11-0.347 0.279-0.417s0.363-0.031 0.492 0.098c0.349 0.351 0.814 0.544 1.309 0.544s0.96-0.193 1.309-0.544c0.129-0.129 0.323-0.168 0.492-0.098s0.279 0.234 0.279 0.417v3.467c0 0.249-0.202 0.451-0.451 0.451zM21.081 3.467h2.355v-2.152c-0.363 0.172-0.763 0.263-1.177 0.263s-0.814-0.091-1.178-0.263v2.152z"></path>
<path d="M27.144 4.369h-3.257c-0.249 0-0.451-0.202-0.451-0.451v-3.467c0-0.183 0.11-0.347 0.279-0.417s0.363-0.031 0.492 0.098c0.349 0.351 0.814 0.544 1.309 0.544s0.96-0.193 1.309-0.544c0.129-0.129 0.323-0.168 0.492-0.098s0.279 0.234 0.279 0.417v3.467c0 0.249-0.202 0.451-0.451 0.451zM24.338 3.467h2.355v-2.152c-0.363 0.172-0.763 0.263-1.178 0.263s-0.814-0.091-1.177-0.263v2.152z"></path>
</svg>
