<!-- Generated by IcoMoon.io -->
<svg version="1.1" xmlns="http://www.w3.org/2000/svg" width="26" height="32" viewBox="0 0 26 32">
<title>4</title>
<path d="M8.138 24.898c0 0 0 0 0 0-0.619 0-1.201-0.241-1.638-0.679s-0.679-1.019-0.679-1.638c0-1.277 1.039-2.317 2.317-2.317s2.317 1.039 2.317 2.317c0 0.619-0.241 1.201-0.679 1.638s-1.019 0.679-1.638 0.679zM8.138 21.001c-0.872 0-1.581 0.709-1.581 1.581 0 0.422 0.164 0.819 0.463 1.118s0.695 0.463 1.118 0.463c0.422 0 0.819-0.164 1.118-0.463s0.463-0.696 0.463-1.118c0-0.872-0.709-1.581-1.581-1.581z"></path>
<path d="M20.297 8.135c-0.255 0-0.509-0.097-0.703-0.291l-1.793-1.793c-0.388-0.388-0.388-1.019 0-1.406l0.955-0.955c0.218-0.218 0.466-0.4 0.739-0.543l2.452-1.282c0.142-0.075 0.317-0.048 0.431 0.066l1.337 1.337c0.114 0.114 0.14 0.288 0.066 0.431l-1.282 2.452c-0.142 0.273-0.325 0.521-0.543 0.739l-0.955 0.955c-0.194 0.194-0.449 0.291-0.703 0.291zM22.048 2.642l-2.212 1.157c-0.207 0.108-0.395 0.246-0.56 0.411l-0.955 0.955c-0.101 0.101-0.101 0.265 0 0.366l1.793 1.793c0.101 0.101 0.265 0.101 0.366 0l0.955-0.955c0.165-0.165 0.303-0.353 0.411-0.56l1.157-2.212-0.955-0.955z"></path>
<path d="M23.899 4.341c-0.096 0-0.19-0.037-0.26-0.108l-2.227-2.227c-0.103-0.103-0.135-0.256-0.083-0.392 0.28-0.73 0.86-1.31 1.59-1.59 0.136-0.052 0.289-0.019 0.392 0.083l2.227 2.227c0.103 0.103 0.135 0.256 0.083 0.392-0.28 0.73-0.86 1.31-1.59 1.59-0.043 0.016-0.088 0.024-0.132 0.024zM22.111 1.665l1.868 1.868c0.366-0.192 0.666-0.491 0.858-0.858l-1.868-1.868c-0.366 0.192-0.666 0.492-0.858 0.858z"></path>
<path d="M7.339 32c-1.992 0-3.836-0.751-5.214-2.129-2.945-2.945-2.813-7.87 0.294-10.977 0.137-0.137 0.28-0.27 0.425-0.397l14.952-13.006c0.146-0.127 0.365-0.119 0.502 0.017l1.838 1.838c0.137 0.137 0.144 0.356 0.017 0.502l-4.671 5.371c0.861 3.095 1.124 6.241 0.762 9.112-0.388 3.072-1.475 5.578-3.142 7.246-1.503 1.503-3.47 2.362-5.539 2.421-0.075 0.002-0.15 0.003-0.224 0.003zM18.021 6.271l-14.693 12.781c-0.133 0.116-0.263 0.238-0.388 0.362-2.821 2.821-2.953 7.278-0.294 9.936 1.285 1.285 3.026 1.963 4.897 1.911 1.881-0.053 3.67-0.836 5.040-2.205 3.102-3.102 3.962-9.463 2.139-15.828-0.034-0.12-0.006-0.249 0.076-0.343l4.577-5.262-1.353-1.353z"></path>
<path d="M13.482 25.976c-0.040 0-0.081-0.007-0.122-0.021-0.192-0.067-0.293-0.277-0.226-0.469 1.037-2.964 1.144-6.86 0.293-10.689-0.044-0.198 0.081-0.395 0.279-0.439s0.395 0.081 0.439 0.279c0.893 4.017 0.781 7.957-0.316 11.092-0.053 0.152-0.195 0.247-0.347 0.247z"></path>
<path d="M8.761 30.42c-0.014 0-0.029-0.001-0.043-0.003-1.513-0.177-3.197-1.095-4.621-2.518s-2.341-3.108-2.518-4.621c-0.024-0.202 0.121-0.385 0.323-0.408 0.203-0.023 0.385 0.121 0.408 0.323 0.156 1.332 1.018 2.897 2.307 4.186s2.854 2.152 4.186 2.308c0.202 0.024 0.346 0.206 0.323 0.408-0.022 0.187-0.181 0.325-0.365 0.325z"></path>
</svg>
