<!-- Generated by IcoMoon.io -->
<svg version="1.1" xmlns="http://www.w3.org/2000/svg" width="32" height="32" viewBox="0 0 32 32">
<title>40</title>
<path d="M14.781 32c-0.464 0-0.929-0.177-1.282-0.53l-12.968-12.969c-0.707-0.707-0.707-1.857-0.001-2.564l0.025-0.025c0.55-0.551 1.387-0.675 2.082-0.309l0.057 0.030c0.801 0.421 1.768 0.273 2.407-0.367l4.45-4.459c2.537-2.536 6.436-3.129 9.597-1.497l7.385-8.265c0.58-0.649 1.378-1.019 2.247-1.044 0.871-0.024 1.687 0.301 2.302 0.916s0.94 1.433 0.916 2.302c-0.024 0.87-0.395 1.668-1.044 2.247l-8.265 7.386c1.633 3.161 1.040 7.061-1.496 9.597l-4.433 4.433c-0.654 0.654-0.804 1.643-0.374 2.461v0c0.371 0.707 0.242 1.561-0.323 2.126-0.353 0.354-0.818 0.53-1.282 0.53zM1.8 16.253c-0.236 0-0.466 0.091-0.639 0.264l-0.025 0.025c-0.373 0.373-0.372 0.981 0 1.353l12.968 12.968c0.373 0.373 0.98 0.373 1.352 0 0.298-0.298 0.366-0.748 0.17-1.121v0c-0.606-1.153-0.394-2.546 0.527-3.466l4.433-4.433c2.346-2.346 2.836-5.994 1.192-8.872-0.1-0.176-0.064-0.397 0.086-0.532l8.518-7.612c0.471-0.421 0.74-1.001 0.758-1.632s-0.218-1.225-0.665-1.672c-0.447-0.447-1.037-0.683-1.672-0.665-0.632 0.018-1.211 0.287-1.632 0.758l-7.611 8.518c-0.135 0.151-0.357 0.187-0.532 0.087-2.877-1.644-6.526-1.154-8.872 1.192l-4.449 4.458c-0.906 0.907-2.277 1.117-3.412 0.52l-0.057-0.030c-0.14-0.073-0.29-0.109-0.438-0.109z"></path>
<path d="M7.317 28.045c-0.898 0-1.743-0.35-2.378-0.985-1.311-1.311-1.311-3.445 0-4.756 0.167-0.167 0.439-0.167 0.606 0l4.15 4.15c0.080 0.080 0.125 0.189 0.125 0.303s-0.045 0.223-0.125 0.303c-0.635 0.635-1.48 0.985-2.378 0.985zM5.269 23.24c-0.689 0.977-0.596 2.341 0.277 3.215 0.473 0.473 1.102 0.734 1.772 0.734 0.524 0 1.024-0.16 1.443-0.456l-3.492-3.492z"></path>
<path d="M22.151 13.188c-0.11 0-0.219-0.042-0.303-0.125l-2.91-2.911c-0.167-0.167-0.167-0.439 0-0.606s0.439-0.167 0.606 0l2.91 2.91c0.167 0.167 0.167 0.439 0 0.606-0.084 0.084-0.193 0.126-0.303 0.126z"></path>
</svg>
