<!-- Generated by IcoMoon.io -->
<svg version="1.1" xmlns="http://www.w3.org/2000/svg" width="26" height="32" viewBox="0 0 26 32">
<title>41</title>
<path d="M15.49 27.154h-1.758c-2.274 0-4.355-1.149-5.567-3.074l-1.196-1.901c-0.293-0.465-0.796-0.743-1.346-0.743-0.877 0-1.59 0.713-1.59 1.59v0.322c0 1.112-0.905 2.016-2.016 2.016s-2.016-0.905-2.016-2.016v-0.25c0-3.14 2.555-5.695 5.695-5.695h11.084c2.333 0 4.231 1.898 4.231 4.231-0 3.043-2.476 5.519-5.519 5.519zM5.623 20.789c0.774 0 1.481 0.391 1.893 1.046l1.196 1.901c1.092 1.735 2.969 2.771 5.019 2.771h1.758c2.687 0 4.872-2.186 4.872-4.872 0-1.976-1.608-3.584-3.584-3.584h-11.084c-2.784 0-5.048 2.265-5.048 5.048v0.25c0 0.755 0.614 1.369 1.369 1.369s1.369-0.614 1.369-1.369v-0.322c-0-1.234 1.004-2.237 2.237-2.237z"></path>
<path d="M6.577 18.050c-0.137 0-0.264-0.088-0.308-0.225l-2.983-9.366c-0.054-0.17 0.040-0.352 0.21-0.406s0.352 0.040 0.406 0.21l2.983 9.366c0.054 0.17-0.040 0.352-0.21 0.406-0.033 0.011-0.066 0.015-0.098 0.015z"></path>
<path d="M4.852 14.731c-0.137 0-0.264-0.088-0.308-0.225-0.054-0.17 0.040-0.352 0.21-0.406l1.214-0.387c0.17-0.054 0.352 0.040 0.406 0.21s-0.040 0.352-0.21 0.406l-1.214 0.387c-0.033 0.011-0.066 0.015-0.098 0.015z"></path>
<path d="M2.016 32c-0.179 0-0.323-0.145-0.323-0.323v-6.635c0-0.179 0.145-0.323 0.323-0.323s0.323 0.145 0.323 0.323v6.635c0 0.179-0.145 0.323-0.323 0.323z"></path>
<path d="M2.844 32h-1.655c-0.179 0-0.323-0.145-0.323-0.323s0.145-0.323 0.323-0.323h1.655c0.179 0 0.323 0.145 0.323 0.323s-0.145 0.323-0.323 0.323z"></path>
<path d="M10.259 18.050c-0.179 0-0.323-0.145-0.323-0.323v-15.471c0-0.179 0.145-0.323 0.323-0.323s0.323 0.145 0.323 0.323v15.471c0 0.179-0.145 0.323-0.323 0.323z"></path>
<path d="M10.866 10.48h-1.213c-0.179 0-0.323-0.145-0.323-0.323s0.145-0.323 0.323-0.323h1.213c0.179 0 0.323 0.145 0.323 0.323s-0.145 0.323-0.323 0.323z"></path>
<path d="M13.087 18.654c-0.031 0-0.062-0.004-0.093-0.014-0.171-0.051-0.269-0.231-0.217-0.402l4.16-13.927c0.051-0.171 0.232-0.268 0.403-0.217s0.268 0.231 0.217 0.402l-4.16 13.927c-0.042 0.14-0.171 0.231-0.31 0.231z"></path>
<path d="M15.834 11.574c-0.031 0-0.062-0.004-0.093-0.014l-1.162-0.347c-0.171-0.051-0.269-0.231-0.217-0.402s0.231-0.268 0.402-0.217l1.162 0.347c0.171 0.051 0.269 0.231 0.217 0.402-0.042 0.14-0.171 0.231-0.31 0.231z"></path>
<path d="M10.259 2.579c-0.623 0-1.13-0.507-1.13-1.13v-1.125c0-0.179 0.145-0.323 0.323-0.323h1.614c0.179 0 0.323 0.145 0.323 0.323v1.125c0 0.623-0.507 1.13-1.13 1.13zM9.776 0.647v0.802c0 0.267 0.217 0.484 0.484 0.484s0.484-0.217 0.484-0.484v-0.802h-0.967z"></path>
<path d="M17.479 4.761c-0.109 0-0.218-0.016-0.325-0.048-0.289-0.086-0.528-0.28-0.671-0.546s-0.175-0.571-0.088-0.861l0.322-1.078c0.025-0.082 0.081-0.151 0.156-0.192s0.164-0.050 0.246-0.025l1.546 0.462c0.171 0.051 0.269 0.231 0.217 0.402l-0.322 1.078c-0.086 0.289-0.28 0.528-0.546 0.671-0.167 0.090-0.351 0.136-0.536 0.136zM17.244 2.724l-0.229 0.768c-0.037 0.124-0.023 0.255 0.038 0.368s0.163 0.197 0.287 0.233c0.124 0.037 0.255 0.023 0.368-0.038s0.197-0.163 0.234-0.287l0.229-0.768-0.927-0.277z"></path>
<path d="M15.425 20.078c-0.068 0-0.137-0.021-0.195-0.066-0.142-0.108-0.17-0.311-0.062-0.453l8.070-10.646c0.108-0.142 0.311-0.17 0.453-0.062s0.17 0.311 0.062 0.453l-8.070 10.646c-0.064 0.084-0.16 0.128-0.258 0.128z"></path>
<path d="M19.77 15.349c-0.068 0-0.137-0.021-0.195-0.066l-0.967-0.733c-0.142-0.108-0.17-0.311-0.062-0.453s0.311-0.17 0.453-0.062l0.967 0.733c0.142 0.108 0.17 0.311 0.062 0.453-0.064 0.084-0.16 0.128-0.258 0.128z"></path>
<path d="M23.98 9.596c-0.245 0-0.482-0.079-0.681-0.23-0.241-0.182-0.396-0.448-0.437-0.747s0.037-0.596 0.219-0.837l0.68-0.897c0.052-0.068 0.129-0.113 0.214-0.125s0.171 0.011 0.24 0.063l1.286 0.975c0.142 0.108 0.17 0.311 0.062 0.453l-0.68 0.897c-0.182 0.241-0.448 0.396-0.747 0.437-0.052 0.007-0.105 0.011-0.156 0.011zM24.081 7.535l-0.484 0.639c-0.078 0.103-0.111 0.23-0.094 0.358s0.084 0.241 0.187 0.319c0.103 0.078 0.23 0.111 0.358 0.094s0.241-0.084 0.319-0.187l0.484-0.639-0.771-0.584z"></path>
<path d="M21.662 11.849c-0.073 0-0.146-0.025-0.207-0.075l-5.184-4.311-6.089-1.485c-0.174-0.042-0.28-0.217-0.238-0.391s0.217-0.28 0.391-0.238l6.162 1.503c0.048 0.012 0.092 0.034 0.13 0.066l5.241 4.359c0.137 0.114 0.156 0.318 0.042 0.456-0.064 0.077-0.156 0.117-0.249 0.117z"></path>
</svg>
