<!-- Generated by IcoMoon.io -->
<svg version="1.1" xmlns="http://www.w3.org/2000/svg" width="23" height="32" viewBox="0 0 23 32">
<title>43</title>
<path d="M22.067 5.373c-0.25 0-0.452-0.202-0.452-0.452 0-0.709-0.576-1.285-1.285-1.285h-18.142c-0.708 0-1.285 0.576-1.285 1.285 0 0.249-0.202 0.452-0.452 0.452s-0.452-0.202-0.452-0.452v-2.733c0-1.207 0.982-2.188 2.188-2.188h18.143c1.207 0 2.188 0.982 2.188 2.188v2.733c-0 0.249-0.202 0.452-0.452 0.452zM2.188 2.733h18.143c0.48 0 0.924 0.155 1.285 0.418v-0.963c0-0.708-0.576-1.285-1.285-1.285h-18.143c-0.708 0-1.285 0.576-1.285 1.285v0.963c0.361-0.263 0.805-0.418 1.285-0.418z"></path>
<path d="M20.331 32h-18.142c-1.207 0-2.188-0.982-2.188-2.188v-24.89c0-1.207 0.982-2.188 2.188-2.188h18.143c1.207 0 2.188 0.982 2.188 2.188v24.89c-0 1.207-0.982 2.188-2.188 2.188zM2.188 3.637c-0.708 0-1.285 0.576-1.285 1.285v24.89c0 0.708 0.576 1.285 1.285 1.285h18.143c0.709 0 1.285-0.576 1.285-1.285v-24.89c0-0.709-0.576-1.285-1.285-1.285h-18.143z"></path>
<path d="M2.71 4.69c-0.416 0-0.753 0.337-0.753 0.753s0.337 0.753 0.753 0.753c0.416 0 0.753-0.337 0.753-0.753s-0.337-0.753-0.753-0.753z"></path>
<path d="M8.41 4.69c-0.416 0-0.753 0.337-0.753 0.753s0.337 0.753 0.753 0.753 0.753-0.337 0.753-0.753-0.337-0.753-0.753-0.753z"></path>
<path d="M14.109 4.69c-0.416 0-0.753 0.337-0.753 0.753s0.337 0.753 0.753 0.753 0.753-0.337 0.753-0.753-0.337-0.753-0.753-0.753z"></path>
<path d="M8.41 28.537c-0.416 0-0.753 0.337-0.753 0.753s0.337 0.753 0.753 0.753 0.753-0.337 0.753-0.753c0-0.416-0.337-0.753-0.753-0.753z"></path>
<path d="M14.109 28.537c-0.416 0-0.753 0.337-0.753 0.753s0.337 0.753 0.753 0.753 0.753-0.337 0.753-0.753c0-0.416-0.337-0.753-0.753-0.753z"></path>
<path d="M2.71 10.652c-0.416 0-0.753 0.337-0.753 0.753s0.337 0.753 0.753 0.753c0.416 0 0.753-0.337 0.753-0.753s-0.337-0.753-0.753-0.753z"></path>
<path d="M2.71 16.614c-0.416 0-0.753 0.337-0.753 0.753s0.337 0.753 0.753 0.753c0.416 0 0.753-0.337 0.753-0.753s-0.337-0.753-0.753-0.753z"></path>
<path d="M2.71 22.576c-0.416 0-0.753 0.337-0.753 0.753s0.337 0.753 0.753 0.753c0.416 0 0.753-0.337 0.753-0.753s-0.337-0.753-0.753-0.753z"></path>
<path d="M19.809 10.652c-0.416 0-0.753 0.337-0.753 0.753s0.337 0.753 0.753 0.753c0.416 0 0.753-0.337 0.753-0.753s-0.337-0.753-0.753-0.753z"></path>
<path d="M19.809 16.614c-0.416 0-0.753 0.337-0.753 0.753s0.337 0.753 0.753 0.753c0.416 0 0.753-0.337 0.753-0.753s-0.337-0.753-0.753-0.753z"></path>
<path d="M19.809 22.576c-0.416 0-0.753 0.337-0.753 0.753s0.337 0.753 0.753 0.753c0.416 0 0.753-0.337 0.753-0.753s-0.337-0.753-0.753-0.753z"></path>
<path d="M19.809 4.69c-0.416 0-0.753 0.337-0.753 0.753s0.337 0.753 0.753 0.753c0.416 0 0.753-0.337 0.753-0.753s-0.337-0.753-0.753-0.753z"></path>
<path d="M2.71 28.537c-0.416 0-0.753 0.337-0.753 0.753s0.337 0.753 0.753 0.753c0.416 0 0.753-0.337 0.753-0.753s-0.337-0.753-0.753-0.753z"></path>
<path d="M19.809 28.537c-0.416 0-0.753 0.337-0.753 0.753s0.337 0.753 0.753 0.753c0.416 0 0.753-0.337 0.753-0.753s-0.337-0.753-0.753-0.753z"></path>
</svg>
