<!-- Generated by IcoMoon.io -->
<svg version="1.1" xmlns="http://www.w3.org/2000/svg" width="32" height="32" viewBox="0 0 32 32">
<title>45</title>
<path d="M22.141 18.228c-0.107 0-0.21-0.042-0.286-0.119l-2.851-2.851c-0.155-0.155-0.158-0.405-0.008-0.564l2.298-2.436c0.082-0.087 0.199-0.134 0.319-0.126s0.23 0.067 0.301 0.164c1.519 2.065 1.721 4.167 0.554 5.766-0.070 0.096-0.178 0.156-0.296 0.165-0.010 0.001-0.021 0.001-0.031 0.001zM19.854 14.964l2.215 2.214c0.765-1.453 0.116-2.995-0.53-4l-1.685 1.786z"></path>
<path d="M8.865 32c-0.368 0-0.744-0.039-1.128-0.118-1.583-0.326-3.233-1.311-4.771-2.849s-2.523-3.188-2.849-4.771c-0.366-1.781 0.123-3.407 1.416-4.699 1.162-1.162 2.57-2.030 4.073-2.51 0.213-0.068 0.388-0.229 0.479-0.441 0.057-0.133 0.181-0.225 0.325-0.242s0.285 0.045 0.372 0.161c0.395 0.533 1.639 0.523 2.859-0.343 1.193-0.847 1.627-2.007 1.284-2.561-0.068-0.109-0.080-0.243-0.032-0.363s0.148-0.209 0.272-0.242c0.214-0.057 0.387-0.209 0.473-0.415 0.292-0.706 0.693-1.373 1.19-1.983 0.072-0.089 0.179-0.143 0.293-0.148s0.226 0.037 0.307 0.118l2.827 2.828c0.077 0.077 0.12 0.183 0.119 0.292s-0.047 0.213-0.127 0.289l-1.991 1.879 1.862 1.862 1.879-1.991c0.075-0.080 0.179-0.125 0.289-0.127 0.11-0.003 0.215 0.041 0.292 0.118l2.827 2.827c0.081 0.081 0.124 0.192 0.118 0.307s-0.060 0.221-0.148 0.293c-0.61 0.497-1.277 0.898-1.983 1.19-0.206 0.086-0.358 0.258-0.415 0.473-0.033 0.124-0.123 0.225-0.242 0.272s-0.254 0.035-0.362-0.032c-0.553-0.343-1.714 0.091-2.561 1.284-0.866 1.22-0.877 2.463-0.344 2.859 0.116 0.086 0.178 0.228 0.161 0.372s-0.109 0.268-0.242 0.325c-0.212 0.091-0.373 0.266-0.441 0.479-0.48 1.503-1.348 2.911-2.51 4.073-1.015 1.014-2.234 1.534-3.572 1.534zM6.534 17.389c-0.184 0.2-0.418 0.351-0.681 0.435-1.38 0.441-2.676 1.24-3.747 2.311-1.107 1.107-1.509 2.441-1.196 3.964 0.294 1.428 1.202 2.936 2.628 4.361s2.934 2.334 4.362 2.628c1.524 0.314 2.857-0.089 3.964-1.196 1.071-1.071 1.87-2.367 2.311-3.747 0.084-0.263 0.235-0.496 0.435-0.681-0.555-0.854-0.364-2.302 0.541-3.577 0.922-1.299 2.231-1.957 3.229-1.685 0.166-0.261 0.411-0.47 0.702-0.59 0.498-0.207 0.976-0.474 1.424-0.796l-2.206-2.206-1.879 1.991c-0.075 0.080-0.179 0.125-0.289 0.127-0.109 0.003-0.215-0.041-0.292-0.119l-2.452-2.451c-0.077-0.077-0.12-0.183-0.118-0.292s0.048-0.214 0.127-0.289l1.991-1.879-2.206-2.206c-0.323 0.448-0.59 0.926-0.796 1.424-0.12 0.291-0.329 0.535-0.59 0.702 0.272 0.998-0.386 2.307-1.685 3.229-1.275 0.905-2.723 1.096-3.577 0.541z"></path>
<path d="M17.028 13.115c-0.104 0-0.207-0.040-0.286-0.118l-2.851-2.851c-0.084-0.084-0.127-0.2-0.117-0.318s0.069-0.226 0.165-0.296c1.599-1.167 3.7-0.965 5.766 0.554 0.097 0.071 0.157 0.181 0.164 0.301s-0.039 0.237-0.126 0.319l-2.436 2.298c-0.078 0.074-0.178 0.11-0.278 0.11zM14.822 9.931l2.215 2.214 1.786-1.685c-1.005-0.645-2.547-1.295-4-0.53z"></path>
<path d="M8.257 19.973c-0.219 0-0.413-0.068-0.574-0.229-0.158-0.158-0.158-0.414 0-0.573 0.155-0.155 0.404-0.158 0.562-0.010 0.239 0.057 1.098-0.459 1.562-0.739 1.018-0.613 1.979-1.191 2.542-0.628 0.158 0.158 0.158 0.414 0 0.573-0.155 0.155-0.404 0.158-0.562 0.010-0.24-0.057-1.098 0.46-1.562 0.739-0.726 0.437-1.423 0.857-1.968 0.857z"></path>
<path d="M12.542 24.436c-0.104 0-0.207-0.040-0.286-0.119-0.564-0.564 0.015-1.524 0.627-2.542 0.279-0.464 0.797-1.323 0.739-1.562-0.148-0.159-0.145-0.408 0.010-0.562 0.158-0.158 0.414-0.158 0.573 0 0.564 0.564-0.015 1.524-0.627 2.542-0.279 0.464-0.797 1.323-0.739 1.562 0.148 0.159 0.145 0.407-0.010 0.562-0.079 0.079-0.183 0.119-0.286 0.119zM13.632 20.223v0z"></path>
<path d="M3.864 29.726c-0.096 0-0.192-0.034-0.268-0.102-0.219-0.194-0.431-0.393-0.629-0.591s-0.398-0.41-0.591-0.629c-0.127-0.144-0.136-0.357-0.021-0.511l4.337-5.8c0.070-0.094 0.178-0.153 0.295-0.161s0.232 0.035 0.315 0.118l2.648 2.648c0.083 0.083 0.126 0.198 0.118 0.315s-0.067 0.225-0.161 0.295l-5.8 4.337c-0.072 0.054-0.157 0.081-0.242 0.081zM3.203 28.111c0.112 0.12 0.224 0.237 0.337 0.349s0.229 0.225 0.349 0.336l5.158-3.857-1.987-1.987-3.857 5.158z"></path>
<path d="M16.127 18.729c-0.107 0-0.21-0.043-0.286-0.119l-2.452-2.451c-0.077-0.077-0.12-0.183-0.118-0.292s0.048-0.214 0.127-0.289l2.295-2.165c0.159-0.15 0.409-0.147 0.564 0.008l2.322 2.322c0.155 0.155 0.158 0.405 0.008 0.564l-2.165 2.294c-0.075 0.080-0.179 0.125-0.289 0.127-0.002 0-0.004 0-0.006 0zM14.256 15.882l1.862 1.862 1.609-1.706-1.766-1.766-1.706 1.609z"></path>
<path d="M19.29 15.377c-0.107 0-0.21-0.043-0.286-0.118l-2.262-2.262c-0.077-0.077-0.12-0.183-0.119-0.292s0.047-0.213 0.127-0.289l10.63-10.030c0.159-0.15 0.409-0.147 0.564 0.008l1.661 1.661c0.155 0.155 0.158 0.405 0.008 0.564l-10.030 10.631c-0.075 0.080-0.179 0.125-0.289 0.127-0.002 0-0.004 0-0.006 0zM17.609 12.719l1.673 1.673 9.474-10.042-1.105-1.105-10.041 9.474z"></path>
<path d="M29.602 4.761c-0.281 0-0.545-0.109-0.744-0.308l-1.31-1.31c-0.203-0.203-0.313-0.473-0.308-0.76s0.122-0.554 0.33-0.751l1.423-1.343c0.417-0.394 1.062-0.384 1.467 0.021l1.23 1.23c0.406 0.406 0.415 1.050 0.021 1.467l-1.343 1.423c-0.197 0.209-0.464 0.326-0.751 0.33-0.005-0-0.010-0-0.016-0zM29.715 0.811c-0.060 0-0.12 0.022-0.167 0.067l-1.423 1.343c-0.048 0.046-0.075 0.107-0.076 0.173s0.024 0.129 0.071 0.176l1.31 1.31c0.047 0.047 0.107 0.072 0.176 0.071 0.066-0.001 0.128-0.028 0.174-0.076l1.343-1.423c0.091-0.096 0.089-0.245-0.005-0.339h-0l-1.23-1.23c-0.048-0.048-0.11-0.072-0.172-0.072z"></path>
<path d="M27.052 3.657c-0.104 0-0.207-0.039-0.286-0.119l-0.934-0.934c-0.158-0.158-0.158-0.414 0-0.573s0.415-0.158 0.573 0l0.934 0.934c0.158 0.158 0.158 0.414 0 0.573-0.079 0.079-0.183 0.119-0.286 0.119z"></path>
<path d="M26.090 4.565c-0.104 0-0.207-0.040-0.286-0.119l-0.934-0.934c-0.158-0.158-0.158-0.414 0-0.573s0.415-0.158 0.573 0l0.934 0.934c0.158 0.158 0.158 0.414 0 0.573-0.079 0.079-0.183 0.119-0.286 0.119z"></path>
<path d="M29.682 6.287c-0.104 0-0.207-0.040-0.286-0.119l-0.934-0.934c-0.158-0.158-0.158-0.414 0-0.573s0.415-0.158 0.573 0l0.934 0.934c0.158 0.158 0.158 0.414 0 0.573-0.079 0.079-0.183 0.119-0.286 0.119z"></path>
<path d="M28.774 7.249c-0.104 0-0.207-0.040-0.286-0.119l-0.934-0.934c-0.158-0.158-0.158-0.414 0-0.573s0.415-0.158 0.573 0l0.934 0.934c0.158 0.158 0.158 0.414 0 0.573-0.079 0.079-0.183 0.119-0.286 0.119z"></path>
<path d="M26.543 24.685c-0.107 0-0.21-0.043-0.286-0.119l-18.595-18.595c-0.001-0.001-0.001-0.001-0.002-0.002-0.158-0.158-0.158-0.414 0-0.572s0.414-0.158 0.572 0l0.001 0.001c0.103 0.102 0.282 0.102 0.385-0.001v0c0.461-0.46 1.21-0.46 1.67 0l17.569 17.569c0.158 0.158 0.158 0.415 0 0.573l-1.028 1.028c-0.076 0.076-0.179 0.119-0.286 0.119zM8.973 6.139l17.569 17.569 0.455-0.455-17.283-17.283c-0.145-0.145-0.38-0.145-0.525 0-0.066 0.066-0.139 0.123-0.217 0.168z"></path>
<path d="M25.114 23.257c-0.104 0-0.207-0.040-0.286-0.119-0.158-0.158-0.158-0.415 0-0.573l1.028-1.028c0.158-0.158 0.415-0.158 0.573 0s0.158 0.414 0 0.573l-1.028 1.028c-0.079 0.079-0.183 0.118-0.286 0.118z"></path>
<path d="M29.104 25.191c-0.104 0-0.207-0.040-0.286-0.119l-1.533-1.533c-0.158-0.158-0.158-0.415 0-0.573s0.415-0.158 0.573 0l1.533 1.533c0.158 0.158 0.158 0.414 0 0.573-0.079 0.079-0.183 0.119-0.286 0.119z"></path>
</svg>
