<!-- Generated by IcoMoon.io -->
<svg version="1.1" xmlns="http://www.w3.org/2000/svg" width="32" height="32" viewBox="0 0 32 32">
<title>5</title>
<path d="M2.636 32c-0.273 0-0.546-0.104-0.754-0.312l-1.57-1.57c-0.416-0.416-0.416-1.092 0-1.508l4.441-4.441c-0.354-0.605-0.272-1.397 0.246-1.915 0.298-0.298 0.695-0.462 1.117-0.462 0.285 0 0.559 0.075 0.799 0.216l1.235-1.235c-0.354-0.605-0.272-1.397 0.246-1.915s1.31-0.6 1.915-0.246l1.235-1.235c-0.354-0.605-0.272-1.397 0.246-1.915s1.311-0.6 1.915-0.246l1.235-1.235c-0.354-0.605-0.272-1.397 0.246-1.915s1.31-0.6 1.915-0.246l6.462-6.462c-0.322-0.361-0.31-0.916 0.036-1.262l0.4-0.4c0.26-0.26 0.658-0.313 0.968-0.129 0.307 0.182 0.697 0.132 0.95-0.12s0.302-0.643 0.12-0.95c-0.184-0.31-0.131-0.708 0.129-0.968l0.4-0.4c0.174-0.174 0.404-0.269 0.65-0.269 0.228 0 0.443 0.082 0.612 0.233l0.779-0.779c0.416-0.416 1.092-0.416 1.508 0l1.569 1.57c0.416 0.416 0.416 1.092 0 1.508l-28.298 28.298c-0.208 0.208-0.481 0.312-0.754 0.312zM6.116 22.59c-0.2 0-0.4 0.076-0.552 0.228-0.305 0.305-0.304 0.8 0 1.105 0.156 0.156 0.156 0.409 0 0.564l-4.688 4.687c-0.105 0.105-0.105 0.275 0 0.379l1.57 1.57c0.104 0.104 0.275 0.105 0.379 0l28.299-28.298c0.105-0.105 0.105-0.275 0-0.379l-1.57-1.57c-0.104-0.105-0.275-0.105-0.379 0l-1.060 1.060c-0.156 0.156-0.409 0.156-0.564 0l-0.245-0.245c-0.029-0.029-0.063-0.035-0.085-0.035s-0.056 0.006-0.085 0.035l-0.4 0.4c-0.002 0.003-0.003 0.003-0.004 0.002 0.364 0.62 0.263 1.407-0.246 1.916s-1.294 0.609-1.913 0.247l-0.405 0.402c-0.047 0.047-0.047 0.124 0 0.171l0.245 0.245c0.075 0.075 0.117 0.176 0.117 0.282s-0.042 0.207-0.117 0.282l-6.989 6.989c-0.156 0.156-0.409 0.156-0.564 0-0.304-0.304-0.8-0.304-1.105 0s-0.305 0.8 0 1.105c0.156 0.156 0.156 0.409 0 0.565l-1.727 1.727c-0.156 0.156-0.409 0.156-0.565 0-0.304-0.304-0.8-0.305-1.105 0s-0.304 0.8 0 1.105c0.156 0.156 0.156 0.409 0 0.564l-1.727 1.727c-0.075 0.075-0.176 0.117-0.282 0.117s-0.207-0.042-0.282-0.117c-0.148-0.148-0.344-0.229-0.552-0.229s-0.405 0.081-0.552 0.229c-0.305 0.305-0.305 0.8 0 1.105 0.075 0.075 0.117 0.177 0.117 0.282s-0.042 0.207-0.117 0.282l-1.727 1.727c-0.156 0.156-0.409 0.156-0.564 0-0.152-0.152-0.352-0.228-0.552-0.228z"></path>
<path d="M16.305 14.761c-0.422 0-0.819-0.164-1.117-0.463-0.616-0.616-0.616-1.618 0-2.233s1.618-0.616 2.234 0c0.616 0.616 0.616 1.618 0 2.233-0.298 0.298-0.695 0.463-1.117 0.463zM16.305 12.401c-0.2 0-0.4 0.076-0.552 0.228-0.148 0.148-0.229 0.344-0.229 0.552s0.081 0.405 0.229 0.552c0.148 0.148 0.344 0.229 0.552 0.229s0.405-0.081 0.552-0.229c0.304-0.305 0.305-0.8 0-1.105-0.152-0.152-0.352-0.228-0.552-0.228z"></path>
<path d="M12.909 18.156c-0.404 0-0.809-0.154-1.117-0.462v0c-0.616-0.616-0.616-1.618 0-2.233 0.298-0.298 0.695-0.463 1.117-0.463s0.819 0.164 1.117 0.463c0.298 0.298 0.463 0.695 0.463 1.117s-0.164 0.819-0.463 1.117c-0.308 0.308-0.712 0.462-1.117 0.462zM12.356 17.13c0.305 0.304 0.8 0.305 1.105 0 0.148-0.148 0.229-0.344 0.229-0.552s-0.081-0.405-0.229-0.552-0.344-0.229-0.552-0.229c-0.209 0-0.405 0.081-0.552 0.229-0.304 0.304-0.304 0.8 0 1.105v0z"></path>
<path d="M9.512 21.553c-0.422 0-0.818-0.164-1.117-0.462v0c-0.298-0.298-0.463-0.695-0.463-1.117s0.164-0.819 0.463-1.117c0.298-0.298 0.695-0.462 1.117-0.462s0.819 0.164 1.117 0.462c0.298 0.298 0.463 0.695 0.463 1.117s-0.164 0.819-0.463 1.117c-0.298 0.298-0.695 0.462-1.117 0.462zM9.512 19.193c-0.209 0-0.405 0.081-0.552 0.229s-0.229 0.344-0.229 0.552c0 0.209 0.081 0.405 0.229 0.552 0 0 0 0 0 0 0.148 0.148 0.344 0.229 0.552 0.229s0.405-0.081 0.552-0.229c0.148-0.148 0.229-0.344 0.229-0.552s-0.081-0.405-0.229-0.552c-0.147-0.148-0.344-0.229-0.552-0.229z"></path>
<path d="M6.116 24.95c-0.422 0-0.819-0.164-1.117-0.462s-0.463-0.695-0.463-1.117c0-0.422 0.164-0.819 0.463-1.117s0.695-0.462 1.117-0.462 0.819 0.164 1.117 0.462c0.616 0.616 0.616 1.618 0 2.233-0.298 0.298-0.695 0.462-1.117 0.462zM6.116 22.589c-0.209 0-0.405 0.081-0.552 0.229s-0.229 0.344-0.229 0.552c0 0.209 0.081 0.405 0.229 0.552s0.344 0.229 0.552 0.229c0.209 0 0.405-0.081 0.552-0.229 0.304-0.305 0.305-0.8 0-1.105-0.148-0.148-0.344-0.229-0.552-0.229z"></path>
<path d="M9.979 27.633c-0.102 0-0.204-0.039-0.282-0.117l-3.029-3.029c-0.156-0.156-0.156-0.409 0-0.564s0.409-0.156 0.564 0l3.028 3.029c0.156 0.156 0.156 0.409 0 0.564-0.078 0.078-0.18 0.117-0.282 0.117z"></path>
<path d="M13.376 24.236c-0.102 0-0.204-0.039-0.282-0.117l-3.028-3.029c-0.156-0.156-0.156-0.409 0-0.564s0.409-0.156 0.565 0l3.028 3.029c0.156 0.156 0.156 0.409 0 0.564-0.078 0.078-0.18 0.117-0.282 0.117z"></path>
<path d="M16.772 20.84c-0.102 0-0.204-0.039-0.282-0.117l-3.029-3.029c-0.156-0.156-0.156-0.409 0-0.564s0.409-0.156 0.565 0l3.028 3.029c0.156 0.156 0.156 0.409 0 0.564-0.078 0.078-0.18 0.117-0.282 0.117z"></path>
<path d="M20.168 17.444c-0.102 0-0.204-0.039-0.282-0.117l-3.029-3.029c-0.156-0.156-0.156-0.409 0-0.565s0.409-0.156 0.564 0l3.029 3.028c0.156 0.156 0.156 0.409 0 0.564-0.078 0.078-0.18 0.117-0.282 0.117z"></path>
<path d="M8.684 28.927c-0.102 0-0.204-0.039-0.282-0.117-0.156-0.156-0.156-0.409 0-0.564l12.779-12.779c0.156-0.156 0.409-0.156 0.564 0s0.156 0.409 0 0.565l-12.779 12.779c-0.078 0.078-0.18 0.117-0.282 0.117z"></path>
<path d="M25.386 6.476c-0.434 0-0.868-0.165-1.198-0.495l-0.586-0.586c-0.358-0.358-0.358-0.941 0-1.3l0.4-0.4c0.26-0.26 0.658-0.313 0.968-0.129 0.307 0.182 0.697 0.132 0.95-0.12s0.302-0.643 0.12-0.95c-0.184-0.31-0.131-0.708 0.129-0.968l0.4-0.4c0.174-0.174 0.404-0.269 0.65-0.269s0.476 0.096 0.65 0.269l0.586 0.586c0 0 0 0 0 0 0.661 0.661 0.661 1.736 0 2.396l-1.871 1.871c-0.33 0.33-0.764 0.495-1.198 0.495zM24.571 4.257l-0.405 0.402c-0.047 0.047-0.047 0.124 0 0.171l0.586 0.586c0.35 0.349 0.918 0.349 1.267 0l1.871-1.871c0.349-0.349 0.349-0.918 0-1.267l-0.586-0.586c-0.029-0.029-0.063-0.035-0.085-0.035s-0.056 0.006-0.085 0.035l-0.4 0.4c-0.002 0.003-0.003 0.003-0.004 0.002 0.364 0.62 0.263 1.407-0.246 1.916s-1.294 0.609-1.913 0.247z"></path>
</svg>
