<!-- Generated by IcoMoon.io -->
<svg version="1.1" xmlns="http://www.w3.org/2000/svg" width="32" height="32" viewBox="0 0 32 32">
<title>6</title>
<path d="M13.59 22.013c-0.764 0-1.669-0.41-2.43-1.171-1.208-1.208-1.531-2.778-0.735-3.574 0.406-0.405 1.019-0.534 1.727-0.362 0.639 0.155 1.295 0.545 1.847 1.096s0.941 1.207 1.096 1.847c0.172 0.708 0.044 1.321-0.362 1.727-0.294 0.295-0.695 0.436-1.144 0.436zM11.565 17.613c-0.207 0-0.428 0.048-0.587 0.207-0.411 0.411-0.21 1.526 0.735 2.471s2.061 1.145 2.471 0.735c0.277-0.277 0.217-0.74 0.155-0.991-0.122-0.502-0.438-1.028-0.89-1.48v0c-0.452-0.452-0.978-0.768-1.48-0.89-0.106-0.026-0.251-0.052-0.404-0.052z"></path>
<path d="M25.888 8.221c-0.102 0-0.202-0.040-0.276-0.114l-1.715-1.715c-0.098-0.098-0.136-0.24-0.101-0.374l0.471-1.807c0.020-0.078 0.065-0.149 0.127-0.201l4.335-3.627c0.155-0.13 0.383-0.119 0.526 0.023l2.343 2.343c0.143 0.143 0.153 0.371 0.023 0.526l-3.627 4.335c-0.052 0.062-0.122 0.107-0.201 0.127l-1.807 0.471c-0.032 0.009-0.065 0.013-0.098 0.013zM24.606 5.998l1.399 1.399 1.47-0.383 3.319-3.966-1.839-1.838-3.966 3.319-0.383 1.47z"></path>
<path d="M9.505 32c-0.259 0-0.521-0.014-0.786-0.041-2.063-0.214-4.112-1.245-5.771-2.904-3.514-3.514-3.94-8.387-0.992-11.336 2.009-2.009 4.289-3.37 6.972-4.162 2.137-0.631 4.499-0.926 7.875-0.981l7.101-6.743c0.153-0.145 0.395-0.142 0.544 0.007l1.715 1.715c0.149 0.149 0.152 0.391 0.007 0.544l-6.743 7.101c-0.055 3.376-0.35 5.737-0.981 7.875-0.792 2.683-2.154 4.963-4.162 6.972-1.274 1.274-2.949 1.953-4.779 1.953zM24.166 6.66l-6.936 6.586c-0.071 0.067-0.165 0.106-0.263 0.107-5.975 0.084-10.477 0.936-14.459 4.918-2.634 2.634-2.208 7.033 0.992 10.233 1.532 1.532 3.415 2.484 5.3 2.68 1.896 0.196 3.648-0.403 4.933-1.688 3.982-3.982 4.834-8.485 4.918-14.459 0.001-0.098 0.040-0.192 0.107-0.263l6.586-6.936-1.178-1.178z"></path>
<path d="M14.638 20.069c-0.027 0-0.054-0.003-0.081-0.008-0.132-0.028-0.241-0.123-0.286-0.251-0.153-0.432-0.445-0.877-0.822-1.254-0 0-0 0-0 0-0.377-0.377-0.822-0.669-1.254-0.822-0.128-0.045-0.223-0.154-0.251-0.286s0.015-0.27 0.113-0.364l11.848-11.25c0.153-0.145 0.395-0.142 0.544 0.007l1.715 1.715c0.149 0.149 0.152 0.391 0.007 0.544l-11.25 11.848c-0.074 0.078-0.177 0.121-0.282 0.121zM14 18.004c0.304 0.304 0.559 0.639 0.753 0.988l10.591-11.154-1.178-1.178-11.154 10.591c0.349 0.194 0.683 0.448 0.988 0.753v0c0 0 0 0 0 0v0z"></path>
<path d="M28.024 1.878c-0.1 0-0.2-0.038-0.276-0.114l-1.099-1.099c-0.152-0.152-0.152-0.399 0-0.551s0.399-0.152 0.551 0l1.099 1.099c0.152 0.152 0.152 0.399 0 0.551-0.076 0.076-0.176 0.114-0.276 0.114z"></path>
<path d="M26.668 3.005c-0.1 0-0.2-0.038-0.276-0.114l-1.099-1.099c-0.152-0.152-0.152-0.399 0-0.551s0.399-0.152 0.551 0l1.099 1.099c0.152 0.152 0.152 0.399 0 0.551-0.076 0.076-0.176 0.114-0.276 0.114z"></path>
<path d="M25.316 4.137c-0.1 0-0.2-0.038-0.276-0.114l-1.099-1.099c-0.152-0.152-0.152-0.399 0-0.551s0.399-0.152 0.551 0l1.099 1.099c0.152 0.152 0.152 0.399 0 0.551-0.076 0.076-0.176 0.114-0.276 0.114z"></path>
<path d="M31.618 5.472c-0.1 0-0.2-0.038-0.276-0.114l-1.099-1.099c-0.152-0.152-0.152-0.399 0-0.551s0.399-0.152 0.551 0l1.099 1.099c0.152 0.152 0.152 0.399 0 0.551-0.076 0.076-0.176 0.114-0.276 0.114z"></path>
<path d="M30.487 6.824c-0.1 0-0.199-0.038-0.276-0.114l-1.099-1.099c-0.152-0.152-0.152-0.399 0-0.551s0.399-0.152 0.551 0l1.099 1.099c0.152 0.152 0.152 0.399 0 0.551-0.076 0.076-0.176 0.114-0.276 0.114z"></path>
<path d="M29.355 8.177c-0.1 0-0.2-0.038-0.276-0.114l-1.099-1.099c-0.152-0.152-0.152-0.399 0-0.551s0.399-0.152 0.551 0l1.099 1.099c0.152 0.152 0.152 0.399 0 0.551-0.076 0.076-0.176 0.114-0.276 0.114z"></path>
<path d="M10.669 27.835c-0.1 0-0.2-0.038-0.276-0.114l-6.11-6.11c-0.152-0.152-0.152-0.399 0-0.551s0.399-0.152 0.551 0l6.11 6.11c0.152 0.152 0.152 0.399 0 0.551-0.076 0.076-0.176 0.114-0.276 0.114z"></path>
</svg>
