<!-- Generated by IcoMoon.io -->
<svg version="1.1" xmlns="http://www.w3.org/2000/svg" width="41" height="32" viewBox="0 0 41 32">
<title>7</title>
<path d="M23.348 20.731c-0.118 0-0.234-0.039-0.328-0.113-0.13-0.101-0.205-0.256-0.205-0.421v-2.316c0-0.245 0.167-0.458 0.404-0.518l2.197-0.552c0.159-0.040 0.328-0.004 0.458 0.097s0.205 0.256 0.205 0.421v2.316c0 0.245-0.166 0.458-0.404 0.518l-2.197 0.552c-0.043 0.011-0.086 0.016-0.13 0.016zM23.881 18.297v1.215l1.13-0.284v-1.215l-1.13 0.284z"></path>
<path d="M7.945 24.596c-0.118 0-0.234-0.039-0.328-0.113-0.13-0.101-0.205-0.256-0.205-0.421v-2.316c0-0.245 0.166-0.458 0.404-0.518l2.197-0.552c0.159-0.040 0.329-0.004 0.458 0.097s0.205 0.256 0.205 0.421v2.316c0 0.245-0.167 0.458-0.404 0.518l-2.197 0.552c-0.043 0.011-0.086 0.016-0.13 0.016zM8.479 22.163v1.215l1.13-0.283v-1.215l-1.13 0.283z"></path>
<path d="M15.646 22.664c-0.118 0-0.234-0.039-0.328-0.113-0.13-0.101-0.206-0.256-0.206-0.421v-2.316c0-0.245 0.167-0.458 0.404-0.518l2.197-0.552c0.159-0.040 0.328-0.004 0.458 0.097s0.205 0.256 0.205 0.421v2.316c0 0.245-0.166 0.458-0.404 0.518l-2.197 0.552c-0.043 0.011-0.086 0.016-0.13 0.016zM16.18 20.23v1.215l1.13-0.283v-1.215l-1.13 0.283z"></path>
<path d="M1.653 26.14c-0.364 0-0.72-0.121-1.016-0.351-0.405-0.316-0.638-0.793-0.638-1.307 0-0.761 0.516-1.422 1.254-1.607l1.057-0.265c0.159-0.040 0.329-0.004 0.458 0.097s0.205 0.256 0.205 0.421v2.316c0 0.245-0.167 0.458-0.404 0.518l-0.51 0.128c-0.135 0.034-0.272 0.051-0.407 0.051zM1.907 23.811l-0.393 0.099c-0.263 0.066-0.446 0.301-0.446 0.572 0 0.183 0.083 0.352 0.227 0.465s0.329 0.152 0.506 0.107l0.106-0.027v-1.216z"></path>
<path d="M38.75 16.866c-0.118 0-0.234-0.039-0.328-0.113-0.13-0.101-0.205-0.256-0.205-0.421v-2.316c0-0.245 0.166-0.458 0.404-0.518l0.51-0.128c0.498-0.125 1.017-0.016 1.423 0.301s0.638 0.793 0.638 1.307c0 0.761-0.516 1.422-1.254 1.607l-1.057 0.265c-0.043 0.011-0.087 0.016-0.13 0.016zM39.284 14.432v1.216l0.393-0.099c0.263-0.066 0.446-0.301 0.446-0.572 0-0.183-0.083-0.352-0.227-0.465s-0.329-0.152-0.506-0.107l-0.106 0.027z"></path>
<path d="M31.049 18.799c-0.118 0-0.234-0.039-0.328-0.113-0.13-0.101-0.206-0.256-0.206-0.421v-2.316c0-0.245 0.167-0.458 0.404-0.518l2.198-0.552c0.159-0.040 0.329-0.004 0.458 0.097s0.205 0.257 0.205 0.421v2.316c0 0.245-0.167 0.458-0.404 0.518l-2.198 0.552c-0.043 0.011-0.086 0.016-0.13 0.016zM31.583 16.365v1.215l1.13-0.283v-1.215l-1.13 0.283z"></path>
<path d="M10.143 6.313c-0.015 0-0.030-0-0.045-0.002l-2.197-0.184c-0.277-0.023-0.489-0.254-0.489-0.532v-2.255c0-0.149 0.062-0.292 0.172-0.393s0.257-0.151 0.406-0.139l2.197 0.184c0.277 0.023 0.489 0.254 0.489 0.532v2.255c0 0.149-0.062 0.292-0.172 0.393-0.099 0.091-0.228 0.141-0.361 0.141zM8.479 5.104l1.13 0.094v-1.183l-1.13-0.094v1.183z"></path>
<path d="M25.545 7.602c-0.015 0-0.030-0-0.045-0.002l-2.197-0.184c-0.277-0.023-0.489-0.254-0.489-0.532v-2.255c0-0.149 0.062-0.292 0.172-0.393s0.258-0.152 0.406-0.139l2.197 0.184c0.277 0.023 0.489 0.254 0.489 0.532v2.255c0 0.149-0.062 0.292-0.172 0.393-0.099 0.091-0.228 0.141-0.361 0.141zM23.881 6.393l1.13 0.094v-1.183l-1.13-0.094v1.183z"></path>
<path d="M17.844 6.957c-0.015 0-0.030-0.001-0.045-0.002l-2.197-0.184c-0.277-0.023-0.489-0.254-0.489-0.532v-2.255c0-0.149 0.063-0.292 0.172-0.393s0.258-0.152 0.406-0.139l2.197 0.184c0.277 0.023 0.489 0.254 0.489 0.532v2.255c0 0.149-0.062 0.292-0.172 0.393-0.099 0.091-0.228 0.141-0.361 0.141zM16.18 5.748l1.13 0.094v-1.183l-1.13-0.094v1.183z"></path>
<path d="M39.533 8.768c-0.046 0-0.091-0.002-0.137-0.006l-0.69-0.058c-0.277-0.023-0.489-0.254-0.489-0.532v-2.255c0-0.149 0.062-0.292 0.172-0.393s0.257-0.152 0.406-0.139l0.877 0.074c0.852 0.071 1.519 0.797 1.519 1.651 0 0.462-0.195 0.907-0.535 1.22-0.306 0.282-0.709 0.437-1.123 0.437zM39.284 7.681l0.201 0.017c0.167 0.014 0.325-0.041 0.448-0.154s0.191-0.267 0.191-0.434c0-0.304-0.237-0.562-0.54-0.587l-0.299-0.025v1.183z"></path>
<path d="M2.441 5.669c-0.015 0-0.030-0-0.045-0.002l-0.877-0.074c-0.852-0.071-1.519-0.797-1.519-1.651 0-0.462 0.195-0.907 0.535-1.22s0.8-0.47 1.26-0.432l0.69 0.058c0.277 0.023 0.489 0.254 0.489 0.532v2.255c0 0.149-0.062 0.292-0.172 0.393-0.099 0.091-0.228 0.141-0.361 0.141zM1.656 3.353c-0.148 0-0.287 0.054-0.397 0.156-0.123 0.113-0.191 0.267-0.191 0.434 0 0.304 0.237 0.562 0.54 0.587l0.299 0.025v-1.183l-0.201-0.017c-0.017-0.002-0.034-0.002-0.051-0.002z"></path>
<path d="M33.247 8.246c-0.015 0-0.030-0.001-0.045-0.002l-2.198-0.184c-0.277-0.023-0.489-0.254-0.489-0.532v-2.255c0-0.149 0.063-0.292 0.172-0.393s0.258-0.152 0.406-0.139l2.198 0.184c0.277 0.023 0.489 0.254 0.489 0.532v2.255c0 0.149-0.062 0.292-0.172 0.393-0.099 0.091-0.228 0.141-0.361 0.141zM31.583 7.037l1.13 0.094v-1.183l-1.13-0.094v1.183z"></path>
<path d="M7.945 27.833h-5.504c-0.295 0-0.534-0.239-0.534-0.534v-26.765c0-0.295 0.239-0.534 0.534-0.534h5.504c0.295 0 0.534 0.239 0.534 0.534v26.765c0 0.295-0.239 0.534-0.534 0.534zM2.975 26.765h4.436v-25.697h-4.436v25.697z"></path>
<path d="M15.646 25.9h-5.504c-0.295 0-0.534-0.239-0.534-0.534v-24.188c0-0.295 0.239-0.534 0.534-0.534h5.504c0.295 0 0.534 0.239 0.534 0.534v24.188c0 0.295-0.239 0.534-0.534 0.534zM10.676 24.832h4.436v-23.121h-4.436v23.121z"></path>
<path d="M23.348 23.968h-5.504c-0.295 0-0.534-0.239-0.534-0.534v-21.611c0-0.295 0.239-0.534 0.534-0.534h5.504c0.295 0 0.534 0.239 0.534 0.534v21.612c0 0.295-0.239 0.534-0.534 0.534zM18.378 22.9h4.436v-20.544h-4.436v20.544z"></path>
<path d="M31.049 22.035h-5.504c-0.295 0-0.534-0.239-0.534-0.534v-19.035c0-0.295 0.239-0.534 0.534-0.534h5.504c0.295 0 0.534 0.239 0.534 0.534v19.035c0 0.295-0.239 0.534-0.534 0.534zM26.079 20.967h4.436v-17.967h-4.436v17.967z"></path>
<path d="M38.75 20.103h-5.504c-0.295 0-0.534-0.239-0.534-0.534v-16.458c0-0.295 0.239-0.534 0.534-0.534h5.504c0.295 0 0.534 0.239 0.534 0.534v16.458c0 0.295-0.239 0.534-0.534 0.534zM33.781 19.035h4.436v-15.39h-4.436v15.39z"></path>
<path d="M5.193 3.348c-0.491 0-0.89 0.398-0.89 0.89s0.398 0.89 0.89 0.89c0.491 0 0.89-0.398 0.89-0.89s-0.398-0.89-0.89-0.89z"></path>
<path d="M5.193 22.705c-0.491 0-0.89 0.398-0.89 0.89s0.398 0.89 0.89 0.89c0.491 0 0.89-0.398 0.89-0.89s-0.398-0.89-0.89-0.89z"></path>
<path d="M12.894 20.772c-0.491 0-0.89 0.398-0.89 0.89s0.398 0.89 0.89 0.89 0.89-0.398 0.89-0.89-0.398-0.89-0.89-0.89z"></path>
<path d="M20.596 18.84c-0.491 0-0.89 0.398-0.89 0.89s0.398 0.89 0.89 0.89c0.491 0 0.89-0.398 0.89-0.89s-0.398-0.89-0.89-0.89z"></path>
<path d="M28.297 16.907c-0.491 0-0.89 0.398-0.89 0.89s0.398 0.89 0.89 0.89 0.89-0.398 0.89-0.89c0-0.492-0.398-0.89-0.89-0.89z"></path>
<path d="M35.998 14.975c-0.491 0-0.89 0.398-0.89 0.89s0.398 0.89 0.89 0.89c0.491 0 0.89-0.398 0.89-0.89s-0.398-0.89-0.89-0.89z"></path>
<path d="M12.894 3.992c-0.491 0-0.89 0.398-0.89 0.89s0.398 0.89 0.89 0.89 0.89-0.398 0.89-0.89-0.398-0.89-0.89-0.89z"></path>
<path d="M20.596 4.636c-0.491 0-0.89 0.398-0.89 0.89s0.398 0.89 0.89 0.89c0.491 0 0.89-0.398 0.89-0.89s-0.398-0.89-0.89-0.89z"></path>
<path d="M28.297 5.281c-0.491 0-0.89 0.398-0.89 0.89s0.398 0.89 0.89 0.89 0.89-0.398 0.89-0.89-0.398-0.89-0.89-0.89z"></path>
<path d="M35.998 5.925c-0.491 0-0.89 0.398-0.89 0.89s0.398 0.89 0.89 0.89c0.491 0 0.89-0.398 0.89-0.89s-0.398-0.89-0.89-0.89z"></path>
<path d="M38.478 27.945c-1.011 0-1.833-0.822-1.833-1.833s0.822-1.833 1.833-1.833c1.011 0 1.833 0.822 1.833 1.833s-0.822 1.833-1.833 1.833zM38.478 25.347c-0.422 0-0.765 0.343-0.765 0.765s0.343 0.765 0.765 0.765 0.765-0.343 0.765-0.765c0-0.422-0.343-0.765-0.765-0.765z"></path>
<path d="M37.179 26.646h-11.634c-0.295 0-0.534-0.239-0.534-0.534s0.239-0.534 0.534-0.534h11.634c0.295 0 0.534 0.239 0.534 0.534s-0.239 0.534-0.534 0.534z"></path>
<path d="M20.596 32c-1.011 0-1.833-0.822-1.833-1.833s0.822-1.833 1.833-1.833c1.011 0 1.833 0.822 1.833 1.833s-0.822 1.833-1.833 1.833zM20.596 29.402c-0.422 0-0.765 0.343-0.765 0.765s0.343 0.765 0.765 0.765c0.422 0 0.765-0.343 0.765-0.765s-0.343-0.765-0.765-0.765z"></path>
<path d="M33.528 30.701h-11.633c-0.295 0-0.534-0.239-0.534-0.534s0.239-0.534 0.534-0.534h11.634c0.295 0 0.534 0.239 0.534 0.534s-0.239 0.534-0.534 0.534z"></path>
</svg>
